G04 #@! TF.FileFunction,Copper,L1,Top,Signal*
%FSLAX46Y46*%
G04 Gerber Fmt 4.6, Leading zero omitted, Abs format (unit mm)*
G04 Created by KiCad (PCBNEW 4.0.2+dfsg1-stable) date Sun 02 Jun 2019 14:52:45 CEST*
%MOMM*%
G01*
G04 APERTURE LIST*
%ADD10C,0.100000*%
%ADD11R,1.700000X2.000000*%
%ADD12R,2.000000X1.700000*%
%ADD13R,0.700000X1.750000*%
%ADD14R,1.300000X1.500000*%
%ADD15R,0.800000X1.500000*%
%ADD16R,1.450000X1.000000*%
%ADD17R,0.800000X1.400000*%
%ADD18R,1.500000X1.500000*%
%ADD19R,1.000000X1.550000*%
%ADD20R,1.800860X1.597660*%
%ADD21R,1.600000X2.000000*%
%ADD22C,0.650000*%
%ADD23R,0.650000X4.600000*%
%ADD24C,1.500000*%
%ADD25R,2.180000X1.600000*%
%ADD26C,4.000000*%
%ADD27R,2.032000X1.727200*%
%ADD28O,2.032000X1.727200*%
%ADD29R,2.032000X2.032000*%
%ADD30O,2.032000X2.032000*%
%ADD31R,2.000000X1.600000*%
%ADD32C,0.400000*%
%ADD33C,0.250000*%
%ADD34C,0.254000*%
G04 APERTURE END LIST*
D10*
G36*
X132128373Y-93278478D02*
X131916241Y-93066346D01*
X132976901Y-92005686D01*
X133189033Y-92217818D01*
X132128373Y-93278478D01*
X132128373Y-93278478D01*
G37*
G36*
X132481926Y-93632031D02*
X132269794Y-93419899D01*
X133330454Y-92359239D01*
X133542586Y-92571371D01*
X132481926Y-93632031D01*
X132481926Y-93632031D01*
G37*
G36*
X132835480Y-93985584D02*
X132623348Y-93773452D01*
X133684008Y-92712792D01*
X133896140Y-92924924D01*
X132835480Y-93985584D01*
X132835480Y-93985584D01*
G37*
G36*
X133189033Y-94339138D02*
X132976901Y-94127006D01*
X134037561Y-93066346D01*
X134249693Y-93278478D01*
X133189033Y-94339138D01*
X133189033Y-94339138D01*
G37*
G36*
X133542587Y-94692691D02*
X133330455Y-94480559D01*
X134391115Y-93419899D01*
X134603247Y-93632031D01*
X133542587Y-94692691D01*
X133542587Y-94692691D01*
G37*
G36*
X133896140Y-95046244D02*
X133684008Y-94834112D01*
X134744668Y-93773452D01*
X134956800Y-93985584D01*
X133896140Y-95046244D01*
X133896140Y-95046244D01*
G37*
G36*
X134249693Y-95399798D02*
X134037561Y-95187666D01*
X135098221Y-94127006D01*
X135310353Y-94339138D01*
X134249693Y-95399798D01*
X134249693Y-95399798D01*
G37*
G36*
X134603247Y-95753351D02*
X134391115Y-95541219D01*
X135451775Y-94480559D01*
X135663907Y-94692691D01*
X134603247Y-95753351D01*
X134603247Y-95753351D01*
G37*
G36*
X134956800Y-96106905D02*
X134744668Y-95894773D01*
X135805328Y-94834113D01*
X136017460Y-95046245D01*
X134956800Y-96106905D01*
X134956800Y-96106905D01*
G37*
G36*
X135310354Y-96460458D02*
X135098222Y-96248326D01*
X136158882Y-95187666D01*
X136371014Y-95399798D01*
X135310354Y-96460458D01*
X135310354Y-96460458D01*
G37*
G36*
X135663907Y-96814011D02*
X135451775Y-96601879D01*
X136512435Y-95541219D01*
X136724567Y-95753351D01*
X135663907Y-96814011D01*
X135663907Y-96814011D01*
G37*
G36*
X136017460Y-97167565D02*
X135805328Y-96955433D01*
X136865988Y-95894773D01*
X137078120Y-96106905D01*
X136017460Y-97167565D01*
X136017460Y-97167565D01*
G37*
G36*
X136371014Y-97521118D02*
X136158882Y-97308986D01*
X137219542Y-96248326D01*
X137431674Y-96460458D01*
X136371014Y-97521118D01*
X136371014Y-97521118D01*
G37*
G36*
X136724567Y-97874672D02*
X136512435Y-97662540D01*
X137573095Y-96601880D01*
X137785227Y-96814012D01*
X136724567Y-97874672D01*
X136724567Y-97874672D01*
G37*
G36*
X137078121Y-98228225D02*
X136865989Y-98016093D01*
X137926649Y-96955433D01*
X138138781Y-97167565D01*
X137078121Y-98228225D01*
X137078121Y-98228225D01*
G37*
G36*
X137431674Y-98581778D02*
X137219542Y-98369646D01*
X138280202Y-97308986D01*
X138492334Y-97521118D01*
X137431674Y-98581778D01*
X137431674Y-98581778D01*
G37*
G36*
X137785227Y-98935332D02*
X137573095Y-98723200D01*
X138633755Y-97662540D01*
X138845887Y-97874672D01*
X137785227Y-98935332D01*
X137785227Y-98935332D01*
G37*
G36*
X138138781Y-99288885D02*
X137926649Y-99076753D01*
X138987309Y-98016093D01*
X139199441Y-98228225D01*
X138138781Y-99288885D01*
X138138781Y-99288885D01*
G37*
G36*
X138492334Y-99642439D02*
X138280202Y-99430307D01*
X139340862Y-98369647D01*
X139552994Y-98581779D01*
X138492334Y-99642439D01*
X138492334Y-99642439D01*
G37*
G36*
X138845888Y-99995992D02*
X138633756Y-99783860D01*
X139694416Y-98723200D01*
X139906548Y-98935332D01*
X138845888Y-99995992D01*
X138845888Y-99995992D01*
G37*
G36*
X139199441Y-100349545D02*
X138987309Y-100137413D01*
X140047969Y-99076753D01*
X140260101Y-99288885D01*
X139199441Y-100349545D01*
X139199441Y-100349545D01*
G37*
G36*
X139552994Y-100703099D02*
X139340862Y-100490967D01*
X140401522Y-99430307D01*
X140613654Y-99642439D01*
X139552994Y-100703099D01*
X139552994Y-100703099D01*
G37*
G36*
X139906548Y-101056652D02*
X139694416Y-100844520D01*
X140755076Y-99783860D01*
X140967208Y-99995992D01*
X139906548Y-101056652D01*
X139906548Y-101056652D01*
G37*
G36*
X140260101Y-101410206D02*
X140047969Y-101198074D01*
X141108629Y-100137414D01*
X141320761Y-100349546D01*
X140260101Y-101410206D01*
X140260101Y-101410206D01*
G37*
G36*
X140613654Y-101763759D02*
X140401522Y-101551627D01*
X141462182Y-100490967D01*
X141674314Y-100703099D01*
X140613654Y-101763759D01*
X140613654Y-101763759D01*
G37*
G36*
X144078478Y-101551627D02*
X143866346Y-101763759D01*
X142805686Y-100703099D01*
X143017818Y-100490967D01*
X144078478Y-101551627D01*
X144078478Y-101551627D01*
G37*
G36*
X144432031Y-101198074D02*
X144219899Y-101410206D01*
X143159239Y-100349546D01*
X143371371Y-100137414D01*
X144432031Y-101198074D01*
X144432031Y-101198074D01*
G37*
G36*
X144785584Y-100844520D02*
X144573452Y-101056652D01*
X143512792Y-99995992D01*
X143724924Y-99783860D01*
X144785584Y-100844520D01*
X144785584Y-100844520D01*
G37*
G36*
X145139138Y-100490967D02*
X144927006Y-100703099D01*
X143866346Y-99642439D01*
X144078478Y-99430307D01*
X145139138Y-100490967D01*
X145139138Y-100490967D01*
G37*
G36*
X145492691Y-100137413D02*
X145280559Y-100349545D01*
X144219899Y-99288885D01*
X144432031Y-99076753D01*
X145492691Y-100137413D01*
X145492691Y-100137413D01*
G37*
G36*
X145846244Y-99783860D02*
X145634112Y-99995992D01*
X144573452Y-98935332D01*
X144785584Y-98723200D01*
X145846244Y-99783860D01*
X145846244Y-99783860D01*
G37*
G36*
X146199798Y-99430307D02*
X145987666Y-99642439D01*
X144927006Y-98581779D01*
X145139138Y-98369647D01*
X146199798Y-99430307D01*
X146199798Y-99430307D01*
G37*
G36*
X146553351Y-99076753D02*
X146341219Y-99288885D01*
X145280559Y-98228225D01*
X145492691Y-98016093D01*
X146553351Y-99076753D01*
X146553351Y-99076753D01*
G37*
G36*
X146906905Y-98723200D02*
X146694773Y-98935332D01*
X145634113Y-97874672D01*
X145846245Y-97662540D01*
X146906905Y-98723200D01*
X146906905Y-98723200D01*
G37*
G36*
X147260458Y-98369646D02*
X147048326Y-98581778D01*
X145987666Y-97521118D01*
X146199798Y-97308986D01*
X147260458Y-98369646D01*
X147260458Y-98369646D01*
G37*
G36*
X147614011Y-98016093D02*
X147401879Y-98228225D01*
X146341219Y-97167565D01*
X146553351Y-96955433D01*
X147614011Y-98016093D01*
X147614011Y-98016093D01*
G37*
G36*
X147967565Y-97662540D02*
X147755433Y-97874672D01*
X146694773Y-96814012D01*
X146906905Y-96601880D01*
X147967565Y-97662540D01*
X147967565Y-97662540D01*
G37*
G36*
X148321118Y-97308986D02*
X148108986Y-97521118D01*
X147048326Y-96460458D01*
X147260458Y-96248326D01*
X148321118Y-97308986D01*
X148321118Y-97308986D01*
G37*
G36*
X148674672Y-96955433D02*
X148462540Y-97167565D01*
X147401880Y-96106905D01*
X147614012Y-95894773D01*
X148674672Y-96955433D01*
X148674672Y-96955433D01*
G37*
G36*
X149028225Y-96601879D02*
X148816093Y-96814011D01*
X147755433Y-95753351D01*
X147967565Y-95541219D01*
X149028225Y-96601879D01*
X149028225Y-96601879D01*
G37*
G36*
X149381778Y-96248326D02*
X149169646Y-96460458D01*
X148108986Y-95399798D01*
X148321118Y-95187666D01*
X149381778Y-96248326D01*
X149381778Y-96248326D01*
G37*
G36*
X149735332Y-95894773D02*
X149523200Y-96106905D01*
X148462540Y-95046245D01*
X148674672Y-94834113D01*
X149735332Y-95894773D01*
X149735332Y-95894773D01*
G37*
G36*
X150088885Y-95541219D02*
X149876753Y-95753351D01*
X148816093Y-94692691D01*
X149028225Y-94480559D01*
X150088885Y-95541219D01*
X150088885Y-95541219D01*
G37*
G36*
X150442439Y-95187666D02*
X150230307Y-95399798D01*
X149169647Y-94339138D01*
X149381779Y-94127006D01*
X150442439Y-95187666D01*
X150442439Y-95187666D01*
G37*
G36*
X150795992Y-94834112D02*
X150583860Y-95046244D01*
X149523200Y-93985584D01*
X149735332Y-93773452D01*
X150795992Y-94834112D01*
X150795992Y-94834112D01*
G37*
G36*
X151149545Y-94480559D02*
X150937413Y-94692691D01*
X149876753Y-93632031D01*
X150088885Y-93419899D01*
X151149545Y-94480559D01*
X151149545Y-94480559D01*
G37*
G36*
X151503099Y-94127006D02*
X151290967Y-94339138D01*
X150230307Y-93278478D01*
X150442439Y-93066346D01*
X151503099Y-94127006D01*
X151503099Y-94127006D01*
G37*
G36*
X151856652Y-93773452D02*
X151644520Y-93985584D01*
X150583860Y-92924924D01*
X150795992Y-92712792D01*
X151856652Y-93773452D01*
X151856652Y-93773452D01*
G37*
G36*
X152210206Y-93419899D02*
X151998074Y-93632031D01*
X150937414Y-92571371D01*
X151149546Y-92359239D01*
X152210206Y-93419899D01*
X152210206Y-93419899D01*
G37*
G36*
X152563759Y-93066346D02*
X152351627Y-93278478D01*
X151290967Y-92217818D01*
X151503099Y-92005686D01*
X152563759Y-93066346D01*
X152563759Y-93066346D01*
G37*
G36*
X151503099Y-90874314D02*
X151290967Y-90662182D01*
X152351627Y-89601522D01*
X152563759Y-89813654D01*
X151503099Y-90874314D01*
X151503099Y-90874314D01*
G37*
G36*
X151149546Y-90520761D02*
X150937414Y-90308629D01*
X151998074Y-89247969D01*
X152210206Y-89460101D01*
X151149546Y-90520761D01*
X151149546Y-90520761D01*
G37*
G36*
X150795992Y-90167208D02*
X150583860Y-89955076D01*
X151644520Y-88894416D01*
X151856652Y-89106548D01*
X150795992Y-90167208D01*
X150795992Y-90167208D01*
G37*
G36*
X150442439Y-89813654D02*
X150230307Y-89601522D01*
X151290967Y-88540862D01*
X151503099Y-88752994D01*
X150442439Y-89813654D01*
X150442439Y-89813654D01*
G37*
G36*
X150088885Y-89460101D02*
X149876753Y-89247969D01*
X150937413Y-88187309D01*
X151149545Y-88399441D01*
X150088885Y-89460101D01*
X150088885Y-89460101D01*
G37*
G36*
X149735332Y-89106548D02*
X149523200Y-88894416D01*
X150583860Y-87833756D01*
X150795992Y-88045888D01*
X149735332Y-89106548D01*
X149735332Y-89106548D01*
G37*
G36*
X149381779Y-88752994D02*
X149169647Y-88540862D01*
X150230307Y-87480202D01*
X150442439Y-87692334D01*
X149381779Y-88752994D01*
X149381779Y-88752994D01*
G37*
G36*
X149028225Y-88399441D02*
X148816093Y-88187309D01*
X149876753Y-87126649D01*
X150088885Y-87338781D01*
X149028225Y-88399441D01*
X149028225Y-88399441D01*
G37*
G36*
X148674672Y-88045887D02*
X148462540Y-87833755D01*
X149523200Y-86773095D01*
X149735332Y-86985227D01*
X148674672Y-88045887D01*
X148674672Y-88045887D01*
G37*
G36*
X148321118Y-87692334D02*
X148108986Y-87480202D01*
X149169646Y-86419542D01*
X149381778Y-86631674D01*
X148321118Y-87692334D01*
X148321118Y-87692334D01*
G37*
G36*
X147967565Y-87338781D02*
X147755433Y-87126649D01*
X148816093Y-86065989D01*
X149028225Y-86278121D01*
X147967565Y-87338781D01*
X147967565Y-87338781D01*
G37*
G36*
X147614012Y-86985227D02*
X147401880Y-86773095D01*
X148462540Y-85712435D01*
X148674672Y-85924567D01*
X147614012Y-86985227D01*
X147614012Y-86985227D01*
G37*
G36*
X147260458Y-86631674D02*
X147048326Y-86419542D01*
X148108986Y-85358882D01*
X148321118Y-85571014D01*
X147260458Y-86631674D01*
X147260458Y-86631674D01*
G37*
G36*
X146906905Y-86278120D02*
X146694773Y-86065988D01*
X147755433Y-85005328D01*
X147967565Y-85217460D01*
X146906905Y-86278120D01*
X146906905Y-86278120D01*
G37*
G36*
X146553351Y-85924567D02*
X146341219Y-85712435D01*
X147401879Y-84651775D01*
X147614011Y-84863907D01*
X146553351Y-85924567D01*
X146553351Y-85924567D01*
G37*
G36*
X146199798Y-85571014D02*
X145987666Y-85358882D01*
X147048326Y-84298222D01*
X147260458Y-84510354D01*
X146199798Y-85571014D01*
X146199798Y-85571014D01*
G37*
G36*
X145846245Y-85217460D02*
X145634113Y-85005328D01*
X146694773Y-83944668D01*
X146906905Y-84156800D01*
X145846245Y-85217460D01*
X145846245Y-85217460D01*
G37*
G36*
X145492691Y-84863907D02*
X145280559Y-84651775D01*
X146341219Y-83591115D01*
X146553351Y-83803247D01*
X145492691Y-84863907D01*
X145492691Y-84863907D01*
G37*
G36*
X145139138Y-84510353D02*
X144927006Y-84298221D01*
X145987666Y-83237561D01*
X146199798Y-83449693D01*
X145139138Y-84510353D01*
X145139138Y-84510353D01*
G37*
G36*
X144785584Y-84156800D02*
X144573452Y-83944668D01*
X145634112Y-82884008D01*
X145846244Y-83096140D01*
X144785584Y-84156800D01*
X144785584Y-84156800D01*
G37*
G36*
X144432031Y-83803247D02*
X144219899Y-83591115D01*
X145280559Y-82530455D01*
X145492691Y-82742587D01*
X144432031Y-83803247D01*
X144432031Y-83803247D01*
G37*
G36*
X144078478Y-83449693D02*
X143866346Y-83237561D01*
X144927006Y-82176901D01*
X145139138Y-82389033D01*
X144078478Y-83449693D01*
X144078478Y-83449693D01*
G37*
G36*
X143724924Y-83096140D02*
X143512792Y-82884008D01*
X144573452Y-81823348D01*
X144785584Y-82035480D01*
X143724924Y-83096140D01*
X143724924Y-83096140D01*
G37*
G36*
X143371371Y-82742586D02*
X143159239Y-82530454D01*
X144219899Y-81469794D01*
X144432031Y-81681926D01*
X143371371Y-82742586D01*
X143371371Y-82742586D01*
G37*
G36*
X143017818Y-82389033D02*
X142805686Y-82176901D01*
X143866346Y-81116241D01*
X144078478Y-81328373D01*
X143017818Y-82389033D01*
X143017818Y-82389033D01*
G37*
G36*
X141674314Y-82176901D02*
X141462182Y-82389033D01*
X140401522Y-81328373D01*
X140613654Y-81116241D01*
X141674314Y-82176901D01*
X141674314Y-82176901D01*
G37*
G36*
X141320761Y-82530454D02*
X141108629Y-82742586D01*
X140047969Y-81681926D01*
X140260101Y-81469794D01*
X141320761Y-82530454D01*
X141320761Y-82530454D01*
G37*
G36*
X140967208Y-82884008D02*
X140755076Y-83096140D01*
X139694416Y-82035480D01*
X139906548Y-81823348D01*
X140967208Y-82884008D01*
X140967208Y-82884008D01*
G37*
G36*
X140613654Y-83237561D02*
X140401522Y-83449693D01*
X139340862Y-82389033D01*
X139552994Y-82176901D01*
X140613654Y-83237561D01*
X140613654Y-83237561D01*
G37*
G36*
X140260101Y-83591115D02*
X140047969Y-83803247D01*
X138987309Y-82742587D01*
X139199441Y-82530455D01*
X140260101Y-83591115D01*
X140260101Y-83591115D01*
G37*
G36*
X139906548Y-83944668D02*
X139694416Y-84156800D01*
X138633756Y-83096140D01*
X138845888Y-82884008D01*
X139906548Y-83944668D01*
X139906548Y-83944668D01*
G37*
G36*
X139552994Y-84298221D02*
X139340862Y-84510353D01*
X138280202Y-83449693D01*
X138492334Y-83237561D01*
X139552994Y-84298221D01*
X139552994Y-84298221D01*
G37*
G36*
X139199441Y-84651775D02*
X138987309Y-84863907D01*
X137926649Y-83803247D01*
X138138781Y-83591115D01*
X139199441Y-84651775D01*
X139199441Y-84651775D01*
G37*
G36*
X138845887Y-85005328D02*
X138633755Y-85217460D01*
X137573095Y-84156800D01*
X137785227Y-83944668D01*
X138845887Y-85005328D01*
X138845887Y-85005328D01*
G37*
G36*
X138492334Y-85358882D02*
X138280202Y-85571014D01*
X137219542Y-84510354D01*
X137431674Y-84298222D01*
X138492334Y-85358882D01*
X138492334Y-85358882D01*
G37*
G36*
X138138781Y-85712435D02*
X137926649Y-85924567D01*
X136865989Y-84863907D01*
X137078121Y-84651775D01*
X138138781Y-85712435D01*
X138138781Y-85712435D01*
G37*
G36*
X137785227Y-86065988D02*
X137573095Y-86278120D01*
X136512435Y-85217460D01*
X136724567Y-85005328D01*
X137785227Y-86065988D01*
X137785227Y-86065988D01*
G37*
G36*
X137431674Y-86419542D02*
X137219542Y-86631674D01*
X136158882Y-85571014D01*
X136371014Y-85358882D01*
X137431674Y-86419542D01*
X137431674Y-86419542D01*
G37*
G36*
X137078120Y-86773095D02*
X136865988Y-86985227D01*
X135805328Y-85924567D01*
X136017460Y-85712435D01*
X137078120Y-86773095D01*
X137078120Y-86773095D01*
G37*
G36*
X136724567Y-87126649D02*
X136512435Y-87338781D01*
X135451775Y-86278121D01*
X135663907Y-86065989D01*
X136724567Y-87126649D01*
X136724567Y-87126649D01*
G37*
G36*
X136371014Y-87480202D02*
X136158882Y-87692334D01*
X135098222Y-86631674D01*
X135310354Y-86419542D01*
X136371014Y-87480202D01*
X136371014Y-87480202D01*
G37*
G36*
X136017460Y-87833755D02*
X135805328Y-88045887D01*
X134744668Y-86985227D01*
X134956800Y-86773095D01*
X136017460Y-87833755D01*
X136017460Y-87833755D01*
G37*
G36*
X135663907Y-88187309D02*
X135451775Y-88399441D01*
X134391115Y-87338781D01*
X134603247Y-87126649D01*
X135663907Y-88187309D01*
X135663907Y-88187309D01*
G37*
G36*
X135310353Y-88540862D02*
X135098221Y-88752994D01*
X134037561Y-87692334D01*
X134249693Y-87480202D01*
X135310353Y-88540862D01*
X135310353Y-88540862D01*
G37*
G36*
X134956800Y-88894416D02*
X134744668Y-89106548D01*
X133684008Y-88045888D01*
X133896140Y-87833756D01*
X134956800Y-88894416D01*
X134956800Y-88894416D01*
G37*
G36*
X134603247Y-89247969D02*
X134391115Y-89460101D01*
X133330455Y-88399441D01*
X133542587Y-88187309D01*
X134603247Y-89247969D01*
X134603247Y-89247969D01*
G37*
G36*
X134249693Y-89601522D02*
X134037561Y-89813654D01*
X132976901Y-88752994D01*
X133189033Y-88540862D01*
X134249693Y-89601522D01*
X134249693Y-89601522D01*
G37*
G36*
X133896140Y-89955076D02*
X133684008Y-90167208D01*
X132623348Y-89106548D01*
X132835480Y-88894416D01*
X133896140Y-89955076D01*
X133896140Y-89955076D01*
G37*
G36*
X133542586Y-90308629D02*
X133330454Y-90520761D01*
X132269794Y-89460101D01*
X132481926Y-89247969D01*
X133542586Y-90308629D01*
X133542586Y-90308629D01*
G37*
G36*
X133189033Y-90662182D02*
X132976901Y-90874314D01*
X131916241Y-89813654D01*
X132128373Y-89601522D01*
X133189033Y-90662182D01*
X133189033Y-90662182D01*
G37*
D11*
X208280000Y-99600000D03*
X208280000Y-103600000D03*
X203200000Y-99600000D03*
X203200000Y-103600000D03*
D12*
X144050000Y-68580000D03*
X148050000Y-68580000D03*
D13*
X162005000Y-58150000D03*
D14*
X163205000Y-58275000D03*
D15*
X163455000Y-65875000D03*
D16*
X163130000Y-67375000D03*
D17*
X151505000Y-66525000D03*
D13*
X160905000Y-58150000D03*
X159805000Y-58150000D03*
X158705000Y-58150000D03*
X157605000Y-58150000D03*
X156505000Y-58150000D03*
X155405000Y-58150000D03*
X154305000Y-58150000D03*
D18*
X151855000Y-58275000D03*
D19*
X151905000Y-68950000D03*
D20*
X208280000Y-92560140D03*
X208280000Y-95399860D03*
X203200000Y-92560140D03*
X203200000Y-95399860D03*
D21*
X147320000Y-62960000D03*
X147320000Y-58960000D03*
D22*
X149572000Y-124466000D03*
X151572000Y-124466000D03*
D23*
X151572000Y-122166000D03*
D22*
X150572000Y-124466000D03*
D23*
X131572000Y-122166000D03*
X132572000Y-122166000D03*
X133572000Y-122166000D03*
X134572000Y-122166000D03*
X135572000Y-122166000D03*
X136572000Y-122166000D03*
X137572000Y-122166000D03*
X138572000Y-122166000D03*
X139572000Y-122166000D03*
X140572000Y-122166000D03*
X141572000Y-122166000D03*
X146572000Y-122166000D03*
X147572000Y-122166000D03*
X148572000Y-122166000D03*
X149572000Y-122166000D03*
X150572000Y-122166000D03*
X144572000Y-122166000D03*
X145572000Y-122166000D03*
D22*
X133572000Y-124466000D03*
X134572000Y-124466000D03*
X135572000Y-124466000D03*
X136572000Y-124466000D03*
X137572000Y-124466000D03*
X138572000Y-124466000D03*
X139572000Y-124466000D03*
X140572000Y-124466000D03*
X141572000Y-124466000D03*
X131572000Y-124466000D03*
X144572000Y-124466000D03*
X145572000Y-124466000D03*
X146572000Y-124466000D03*
X147572000Y-124466000D03*
X148572000Y-124466000D03*
X132572000Y-124466000D03*
X152572000Y-124466000D03*
X153572000Y-124466000D03*
X154572000Y-124466000D03*
X155572000Y-124466000D03*
X156572000Y-124466000D03*
X157572000Y-124466000D03*
X158572000Y-124466000D03*
X159572000Y-124466000D03*
X160572000Y-124466000D03*
X161572000Y-124466000D03*
X162572000Y-124466000D03*
X163572000Y-124466000D03*
X164572000Y-124466000D03*
D23*
X152572000Y-122166000D03*
X153572000Y-122166000D03*
X154572000Y-122166000D03*
X155572000Y-122166000D03*
X156572000Y-122166000D03*
X157572000Y-122166000D03*
X158572000Y-122166000D03*
X159572000Y-122166000D03*
X160572000Y-122166000D03*
X161572000Y-122166000D03*
X162572000Y-122166000D03*
X163572000Y-122166000D03*
X164572000Y-122166000D03*
D24*
X130810000Y-106680000D03*
X127359319Y-103229319D03*
D25*
X124950000Y-59436000D03*
X134130000Y-59436000D03*
D12*
X123920000Y-77470000D03*
X119920000Y-77470000D03*
X127540000Y-78740000D03*
X131540000Y-78740000D03*
X145320000Y-107950000D03*
X149320000Y-107950000D03*
X153956000Y-106680000D03*
X157956000Y-106680000D03*
X151860000Y-102870000D03*
X147860000Y-102870000D03*
D10*
G36*
X133099720Y-84002362D02*
X131897638Y-82800280D01*
X133311852Y-81386066D01*
X134513934Y-82588148D01*
X133099720Y-84002362D01*
X133099720Y-84002362D01*
G37*
G36*
X135928148Y-81173934D02*
X134726066Y-79971852D01*
X136140280Y-78557638D01*
X137342362Y-79759720D01*
X135928148Y-81173934D01*
X135928148Y-81173934D01*
G37*
G36*
X126749720Y-90352362D02*
X125547638Y-89150280D01*
X126961852Y-87736066D01*
X128163934Y-88938148D01*
X126749720Y-90352362D01*
X126749720Y-90352362D01*
G37*
G36*
X129578148Y-87523934D02*
X128376066Y-86321852D01*
X129790280Y-84907638D01*
X130992362Y-86109720D01*
X129578148Y-87523934D01*
X129578148Y-87523934D01*
G37*
D11*
X190000000Y-95500000D03*
X190000000Y-99500000D03*
X190195000Y-103185000D03*
X190195000Y-107185000D03*
X120650000Y-97060000D03*
X120650000Y-101060000D03*
D12*
X131350000Y-113030000D03*
X135350000Y-113030000D03*
D11*
X140208000Y-58960000D03*
X140208000Y-62960000D03*
D12*
X191040000Y-78740000D03*
X195040000Y-78740000D03*
D26*
X208280000Y-58928000D03*
X83820000Y-112268000D03*
X208280000Y-109728000D03*
X83820000Y-58928000D03*
D27*
X203200000Y-78740000D03*
D28*
X203200000Y-81280000D03*
X203200000Y-83820000D03*
X203200000Y-86360000D03*
D29*
X198120000Y-60960000D03*
D30*
X200660000Y-60960000D03*
D27*
X194000000Y-98500000D03*
D28*
X194000000Y-101040000D03*
X194000000Y-103580000D03*
D31*
X158210000Y-95250000D03*
X154210000Y-95250000D03*
X140430000Y-74930000D03*
X136430000Y-74930000D03*
D21*
X119380000Y-81820000D03*
X119380000Y-85820000D03*
X154940000Y-88360000D03*
X154940000Y-84360000D03*
D31*
X128048000Y-65532000D03*
X132048000Y-65532000D03*
D21*
X128270000Y-97250000D03*
X128270000Y-93250000D03*
X124460000Y-81820000D03*
X124460000Y-85820000D03*
D31*
X148050000Y-77470000D03*
X144050000Y-77470000D03*
X155670000Y-99060000D03*
X151670000Y-99060000D03*
D21*
X122428000Y-66580000D03*
X122428000Y-70580000D03*
D31*
X147860000Y-81280000D03*
X151860000Y-81280000D03*
X136430000Y-105410000D03*
X140430000Y-105410000D03*
D21*
X123190000Y-93440000D03*
X123190000Y-89440000D03*
D31*
X138970000Y-111760000D03*
X142970000Y-111760000D03*
D29*
X163576000Y-101092000D03*
D30*
X166116000Y-101092000D03*
D29*
X131064000Y-72644000D03*
D30*
X128524000Y-72644000D03*
D32*
X157660400Y-119452300D03*
X191463800Y-103185000D03*
X145842000Y-112360700D03*
X141292500Y-99698800D03*
X142515600Y-82877400D03*
X141215000Y-76931100D03*
X153957500Y-112720900D03*
X153866100Y-116268500D03*
X150949700Y-112720900D03*
X140270700Y-116083900D03*
X149572000Y-119444500D03*
X158156100Y-113752400D03*
X158212300Y-116496700D03*
X131987000Y-118525600D03*
X153572000Y-119434800D03*
X128787800Y-66764500D03*
X125684500Y-81820000D03*
X136548200Y-93869400D03*
X142754100Y-91583300D03*
X140476400Y-87719900D03*
X148174000Y-118757200D03*
X151461200Y-117586500D03*
X149884200Y-93049900D03*
X151841200Y-94362900D03*
X152354900Y-119455200D03*
X145194700Y-93328400D03*
X134426800Y-89990800D03*
X138693300Y-95904700D03*
X146691400Y-99516900D03*
X147252500Y-106135200D03*
X164572000Y-110935200D03*
X156469900Y-110935200D03*
X144223100Y-84957700D03*
X162100800Y-114277700D03*
X156204800Y-113980100D03*
X143632200Y-85483000D03*
X137914900Y-83236700D03*
X137389500Y-83762700D03*
X146217100Y-86198000D03*
X136795300Y-84351000D03*
X141716600Y-80854400D03*
X155535400Y-91044000D03*
X153104900Y-96814400D03*
X148174100Y-117556400D03*
X139167800Y-87518600D03*
X146996900Y-92339900D03*
X148363500Y-118156800D03*
X150691900Y-118704700D03*
X150208300Y-119118900D03*
X156915300Y-97328500D03*
X156682000Y-101179400D03*
X154594800Y-101414700D03*
X154293600Y-118171800D03*
X147849800Y-114615000D03*
X145711000Y-92304200D03*
X145135200Y-91728400D03*
X147810300Y-113114000D03*
X141541800Y-112491300D03*
X141157000Y-117395700D03*
X143718700Y-93375200D03*
X143788500Y-114827700D03*
X139870200Y-91058000D03*
X136173300Y-118186800D03*
X134633500Y-119399300D03*
X142915600Y-88461800D03*
X138342600Y-86128000D03*
X134002300Y-117696600D03*
X142454000Y-98554200D03*
X147201400Y-108379800D03*
X147243700Y-110273900D03*
X154491700Y-113526100D03*
X154046600Y-117442200D03*
X144861500Y-117118000D03*
X138835800Y-88050700D03*
X146098700Y-96688100D03*
X148089700Y-109668000D03*
X148094400Y-104315000D03*
X151388700Y-116785400D03*
X150155600Y-96310900D03*
X145183200Y-95908600D03*
X145287800Y-118983900D03*
X140796100Y-115031700D03*
X142250100Y-97201200D03*
X142751700Y-96611300D03*
X142747400Y-115272700D03*
X138774100Y-118981000D03*
X139813700Y-96285000D03*
X139843300Y-93934100D03*
X136030200Y-119218800D03*
X150301000Y-96930200D03*
X134061900Y-118739100D03*
X153521000Y-114243700D03*
X152488900Y-95371200D03*
X158152600Y-100770800D03*
X145383500Y-85321400D03*
X147592100Y-105039000D03*
X147292900Y-98920800D03*
X162890400Y-106638300D03*
X131673500Y-111767800D03*
X132952200Y-97704300D03*
X126254700Y-80368900D03*
X132557000Y-87464800D03*
X151629100Y-119461800D03*
X157432700Y-80132800D03*
X158849000Y-85124000D03*
X130341700Y-93250000D03*
X128974800Y-89477600D03*
X156644200Y-116938900D03*
X156499300Y-102817800D03*
X152588400Y-94615400D03*
X154046400Y-102870000D03*
X156542700Y-114540800D03*
X155472600Y-119463100D03*
X146616400Y-101031000D03*
X154220800Y-99622600D03*
X141824700Y-104200500D03*
X152215600Y-97859700D03*
X157092000Y-117348000D03*
X138575100Y-114642900D03*
X133447000Y-114596000D03*
X138913100Y-104943000D03*
X133286300Y-98755000D03*
X133463500Y-65532000D03*
X134544800Y-99619400D03*
X137944200Y-116089100D03*
X133019400Y-115457900D03*
X152025400Y-78335500D03*
X161071200Y-82424600D03*
X160273300Y-94286400D03*
X159371400Y-97325900D03*
X142579400Y-81752600D03*
X171244100Y-83861500D03*
X152463700Y-87119800D03*
X150573300Y-68836500D03*
X153535000Y-88770800D03*
X158837300Y-59449400D03*
X152656700Y-87776400D03*
X156305000Y-59449400D03*
X154630100Y-97525700D03*
X154671100Y-100811500D03*
D33*
X123190000Y-89440000D02*
X124315300Y-89440000D01*
X143795600Y-100773800D02*
X144556000Y-101534100D01*
X208280000Y-95399900D02*
X203200000Y-95399900D01*
X195911200Y-95399900D02*
X194000000Y-97311100D01*
X203200000Y-95399900D02*
X195911200Y-95399900D01*
X194000000Y-98500000D02*
X194000000Y-97311100D01*
X124950000Y-59436000D02*
X124950000Y-60561300D01*
X149320000Y-107950000D02*
X149320000Y-106774700D01*
X192188900Y-95500000D02*
X194000000Y-97311100D01*
X190000000Y-95500000D02*
X192188900Y-95500000D01*
X191370300Y-103185000D02*
X191463800Y-103185000D01*
X195040000Y-78740000D02*
X203200000Y-78740000D01*
X153809100Y-56949700D02*
X159805000Y-56949700D01*
X153380600Y-57378200D02*
X153809100Y-56949700D01*
X153380600Y-58745600D02*
X153380600Y-57378200D01*
X152775800Y-59350400D02*
X153380600Y-58745600D01*
X148835700Y-59350400D02*
X152775800Y-59350400D01*
X148445300Y-58960000D02*
X148835700Y-59350400D01*
X159805000Y-58150000D02*
X159805000Y-56949700D01*
X158210000Y-95250000D02*
X158210000Y-96375300D01*
X154940000Y-88360000D02*
X156065300Y-88360000D01*
X158210000Y-95250000D02*
X158210000Y-94124700D01*
X120714300Y-89440000D02*
X123190000Y-89440000D01*
X118254700Y-86980400D02*
X120714300Y-89440000D01*
X118254700Y-81820000D02*
X118254700Y-86980400D01*
X119380000Y-81820000D02*
X118254700Y-81820000D01*
X148050000Y-77470000D02*
X148050000Y-78482700D01*
X147860000Y-81280000D02*
X147860000Y-80154700D01*
X147860000Y-78595300D02*
X147860000Y-80154700D01*
X147937400Y-78595300D02*
X148050000Y-78482700D01*
X147860000Y-78595300D02*
X147937400Y-78595300D01*
X155670000Y-98497300D02*
X155670000Y-97934700D01*
X163521300Y-98497300D02*
X166116000Y-101092000D01*
X155670000Y-98497300D02*
X163521300Y-98497300D01*
X129865400Y-71302600D02*
X128524000Y-72644000D01*
X137927900Y-71302600D02*
X129865400Y-71302600D01*
X140430000Y-73804700D02*
X137927900Y-71302600D01*
X140430000Y-74930000D02*
X140430000Y-73804700D01*
X136430000Y-105410000D02*
X136430000Y-106535300D01*
X149320000Y-107950000D02*
X149320000Y-109125300D01*
X190782700Y-103185000D02*
X191370300Y-103185000D01*
X190782700Y-103185000D02*
X190195000Y-103185000D01*
X190195000Y-103185000D02*
X189019700Y-103185000D01*
X128270000Y-97250000D02*
X127144700Y-97250000D01*
X147320000Y-58960000D02*
X147882700Y-58960000D01*
X147882700Y-58960000D02*
X148445300Y-58960000D01*
X128048000Y-65532000D02*
X128048000Y-66657300D01*
X155670000Y-99060000D02*
X155670000Y-98601200D01*
X155670000Y-98601200D02*
X155670000Y-98497300D01*
X157572000Y-119540700D02*
X157660400Y-119452300D01*
X157572000Y-122166000D02*
X157572000Y-119540700D01*
X142970000Y-111760000D02*
X142970000Y-110634700D01*
X142970000Y-111760000D02*
X144295300Y-111760000D01*
X143024400Y-82877400D02*
X142515600Y-82877400D01*
X143795600Y-82106200D02*
X143024400Y-82877400D01*
X186926700Y-101092000D02*
X189019700Y-103185000D01*
X166116000Y-101092000D02*
X186926700Y-101092000D01*
X149572000Y-122166000D02*
X149572000Y-119540700D01*
X149572000Y-119540700D02*
X149572000Y-119444500D01*
X161256300Y-119540700D02*
X158212300Y-116496700D01*
X161572000Y-119540700D02*
X161256300Y-119540700D01*
X161572000Y-122166000D02*
X161572000Y-119540700D01*
X142259400Y-106535300D02*
X144555900Y-104238800D01*
X136430000Y-106535300D02*
X142259400Y-106535300D01*
X144555900Y-101534200D02*
X144555900Y-104238800D01*
X144556000Y-101534100D02*
X144555900Y-101534200D01*
X147091800Y-106774700D02*
X149320000Y-106774700D01*
X144555900Y-104238800D02*
X147091800Y-106774700D01*
X153572000Y-122166000D02*
X153572000Y-119540700D01*
X153572000Y-119540700D02*
X153572000Y-119434800D01*
X162379900Y-113752400D02*
X158156100Y-113752400D01*
X164572000Y-115944500D02*
X162379900Y-113752400D01*
X164572000Y-122166000D02*
X164572000Y-115944500D01*
X156515600Y-88810300D02*
X156065300Y-88360000D01*
X156515700Y-88810300D02*
X156515600Y-88810300D01*
X156515700Y-92430400D02*
X156515700Y-88810300D01*
X158210000Y-94124700D02*
X156515700Y-92430400D01*
X154746100Y-99525100D02*
X155670000Y-98601200D01*
X154746100Y-99840300D02*
X154746100Y-99525100D01*
X154438500Y-100147900D02*
X154746100Y-99840300D01*
X154123300Y-100147900D02*
X154438500Y-100147900D01*
X152737000Y-101534200D02*
X154123300Y-100147900D01*
X147025400Y-101534200D02*
X152737000Y-101534200D01*
X146989400Y-101570200D02*
X147025400Y-101534200D01*
X146150800Y-101570200D02*
X146989400Y-101570200D01*
X146114800Y-101534200D02*
X146150800Y-101570200D01*
X144556000Y-101534200D02*
X146114800Y-101534200D01*
X144556000Y-101534100D02*
X144556000Y-101534200D01*
X140430000Y-76146100D02*
X141215000Y-76931100D01*
X140430000Y-74930000D02*
X140430000Y-76146100D01*
X142879200Y-78595300D02*
X147860000Y-78595300D01*
X141215000Y-76931100D02*
X142879200Y-78595300D01*
X128787800Y-66657300D02*
X128048000Y-66657300D01*
X128787800Y-66764500D02*
X128787800Y-66657300D01*
X128048000Y-65532000D02*
X127385400Y-65532000D01*
X122428000Y-66580000D02*
X123553300Y-66580000D01*
X124950000Y-65532000D02*
X124950000Y-60561300D01*
X127385400Y-65532000D02*
X124950000Y-65532000D01*
X124601300Y-65532000D02*
X123553300Y-66580000D01*
X124950000Y-65532000D02*
X124601300Y-65532000D01*
X119380000Y-81820000D02*
X124460000Y-81820000D01*
X124460000Y-81820000D02*
X125585300Y-81820000D01*
X125585300Y-81820000D02*
X125684500Y-81820000D01*
X146557300Y-60285400D02*
X147882700Y-58960000D01*
X140543300Y-60285400D02*
X146557300Y-60285400D01*
X134171400Y-66657300D02*
X140543300Y-60285400D01*
X128787800Y-66657300D02*
X134171400Y-66657300D01*
X127144700Y-91758800D02*
X127144700Y-97250000D01*
X126634100Y-91758800D02*
X124315300Y-89440000D01*
X127144700Y-91758800D02*
X126634100Y-91758800D01*
X132906200Y-89884400D02*
X133666700Y-90644800D01*
X132552700Y-91758800D02*
X132871500Y-91440000D01*
X127144700Y-91758800D02*
X132552700Y-91758800D01*
X132871500Y-91440000D02*
X133666700Y-90644800D01*
X135734600Y-95824100D02*
X136495000Y-95063700D01*
X135924600Y-94493000D02*
X136548200Y-93869400D01*
X132871500Y-91440000D02*
X135924600Y-94493000D01*
X136406400Y-94975200D02*
X136495000Y-95063700D01*
X136406400Y-94974900D02*
X136406400Y-94975200D01*
X135924600Y-94493000D02*
X136406400Y-94974900D01*
X144896000Y-112360700D02*
X145842000Y-112360700D01*
X144295300Y-111760000D02*
X144896000Y-112360700D01*
X150589500Y-112360700D02*
X150949700Y-112720900D01*
X145842000Y-112360700D02*
X150589500Y-112360700D01*
X155670000Y-97830900D02*
X155670000Y-97934700D01*
X157125600Y-96375300D02*
X155670000Y-97830900D01*
X158210000Y-96375300D02*
X157125600Y-96375300D01*
X147613300Y-109125300D02*
X149320000Y-109125300D01*
X146103900Y-110634700D02*
X147613300Y-109125300D01*
X142970000Y-110634700D02*
X146103900Y-110634700D01*
X154476600Y-116268500D02*
X153866100Y-116268500D01*
X157660400Y-119452300D02*
X154476600Y-116268500D01*
X150949700Y-112720900D02*
X153957500Y-112720900D01*
X139195500Y-117159100D02*
X140270700Y-116083900D01*
X133353500Y-117159100D02*
X139195500Y-117159100D01*
X131987000Y-118525600D02*
X133353500Y-117159100D01*
X142720600Y-99698800D02*
X141292500Y-99698800D01*
X143795600Y-100773800D02*
X142720600Y-99698800D01*
X137433500Y-91583300D02*
X142754100Y-91583300D01*
X134320400Y-88470200D02*
X137433500Y-91583300D01*
X135027500Y-87763000D02*
X135787900Y-88523300D01*
X140147400Y-87719900D02*
X140476400Y-87719900D01*
X139283500Y-88583800D02*
X140147400Y-87719900D01*
X138409100Y-88583800D02*
X139283500Y-88583800D01*
X138348600Y-88523300D02*
X138409100Y-88583800D01*
X135787900Y-88523300D02*
X138348600Y-88523300D01*
X147610800Y-118194000D02*
X148174000Y-118757200D01*
X147610800Y-117345800D02*
X147610800Y-118194000D01*
X147953600Y-117003000D02*
X147610800Y-117345800D01*
X150863400Y-117003000D02*
X147953600Y-117003000D01*
X151446900Y-117586500D02*
X150863400Y-117003000D01*
X151461200Y-117586500D02*
X151446900Y-117586500D01*
X150866700Y-93702700D02*
X150106300Y-92942200D01*
X149998600Y-93049900D02*
X149884200Y-93049900D01*
X150106300Y-92942200D02*
X149998600Y-93049900D01*
X152572000Y-122166000D02*
X152572000Y-119540700D01*
X151220300Y-93349200D02*
X151980800Y-94109600D01*
X152486500Y-119455200D02*
X152354900Y-119455200D01*
X152572000Y-119540700D02*
X152486500Y-119455200D01*
X151933000Y-94271100D02*
X151841200Y-94362900D01*
X151933000Y-94157400D02*
X151933000Y-94271100D01*
X151980800Y-94109600D02*
X151933000Y-94157400D01*
X145542300Y-92980800D02*
X145194700Y-93328400D01*
X149184500Y-92980800D02*
X145542300Y-92980800D01*
X151927400Y-90237900D02*
X149184500Y-92980800D01*
X133613300Y-89177300D02*
X134426800Y-89990800D01*
X138693300Y-95017400D02*
X138693300Y-95904700D01*
X133868000Y-90192100D02*
X138693300Y-95017400D01*
X133868000Y-90139100D02*
X133868000Y-90192100D01*
X133259700Y-89530800D02*
X133868000Y-90139100D01*
X162572000Y-122166000D02*
X162572000Y-119540700D01*
X146691400Y-99426900D02*
X146691400Y-99516900D01*
X145917000Y-98652500D02*
X146691400Y-99426900D01*
X149870300Y-106135200D02*
X147252500Y-106135200D01*
X155679400Y-111944300D02*
X149870300Y-106135200D01*
X155679400Y-114443600D02*
X155679400Y-111944300D01*
X157002500Y-115766700D02*
X155679400Y-114443600D01*
X158798000Y-115766700D02*
X157002500Y-115766700D01*
X162572000Y-119540700D02*
X158798000Y-115766700D01*
X140707500Y-84957700D02*
X139270200Y-83520400D01*
X144223100Y-84957700D02*
X140707500Y-84957700D01*
X164572000Y-110935200D02*
X156469900Y-110935200D01*
X157887300Y-114277700D02*
X162100800Y-114277700D01*
X157589700Y-113980100D02*
X157887300Y-114277700D01*
X156204800Y-113980100D02*
X157589700Y-113980100D01*
X140525600Y-85483000D02*
X143632200Y-85483000D01*
X138916600Y-83874000D02*
X140525600Y-85483000D01*
X137914900Y-83579400D02*
X137914900Y-83236700D01*
X138563000Y-84227500D02*
X137914900Y-83579400D01*
X137391100Y-83762700D02*
X137389500Y-83762700D01*
X138209500Y-84581100D02*
X137391100Y-83762700D01*
X138506300Y-85585000D02*
X137855900Y-84934600D01*
X138629400Y-85585000D02*
X138506300Y-85585000D01*
X139242400Y-86198000D02*
X138629400Y-85585000D01*
X146217100Y-86198000D02*
X139242400Y-86198000D01*
X136795300Y-84474600D02*
X136795300Y-84351000D01*
X136742100Y-84527800D02*
X136795300Y-84474600D01*
X137502400Y-85288200D02*
X136742100Y-84527800D01*
X154944800Y-96814400D02*
X153104900Y-96814400D01*
X155535400Y-96223800D02*
X154944800Y-96814400D01*
X155535400Y-91044000D02*
X155535400Y-96223800D01*
X141623100Y-80760900D02*
X141716600Y-80854400D01*
X139594500Y-80760900D02*
X141623100Y-80760900D01*
X136223500Y-84131900D02*
X139594500Y-80760900D01*
X136223500Y-84716400D02*
X136223500Y-84131900D01*
X137148800Y-85641700D02*
X136223500Y-84716400D01*
X136795300Y-85995300D02*
X137555600Y-86755600D01*
X150572000Y-122166000D02*
X150572000Y-119540700D01*
X150689500Y-119540700D02*
X150572000Y-119540700D01*
X151239700Y-118990500D02*
X150689500Y-119540700D01*
X151239700Y-118488700D02*
X151239700Y-118990500D01*
X150307400Y-117556400D02*
X151239700Y-118488700D01*
X148174100Y-117556400D02*
X150307400Y-117556400D01*
X138318600Y-87518600D02*
X139167800Y-87518600D01*
X137555600Y-86755600D02*
X138318600Y-87518600D01*
X148572000Y-122166000D02*
X148572000Y-119540700D01*
X150003000Y-118913600D02*
X150208300Y-119118900D01*
X149199100Y-118913600D02*
X150003000Y-118913600D01*
X148572000Y-119540700D02*
X149199100Y-118913600D01*
X148911400Y-118704700D02*
X148363500Y-118156800D01*
X150691900Y-118704700D02*
X148911400Y-118704700D01*
X150513100Y-88823700D02*
X146996900Y-92339900D01*
X158391700Y-97328500D02*
X156915300Y-97328500D01*
X159535400Y-96184800D02*
X158391700Y-97328500D01*
X159535400Y-90654800D02*
X159535400Y-96184800D01*
X155427300Y-86546700D02*
X159535400Y-90654800D01*
X152083100Y-86546700D02*
X155427300Y-86546700D01*
X150159600Y-88470200D02*
X152083100Y-86546700D01*
X146572000Y-117031100D02*
X146572000Y-122166000D01*
X147533600Y-116069500D02*
X146572000Y-117031100D01*
X151741900Y-116069500D02*
X147533600Y-116069500D01*
X153844200Y-118171800D02*
X151741900Y-116069500D01*
X154293600Y-118171800D02*
X153844200Y-118171800D01*
X156446700Y-101414700D02*
X154594800Y-101414700D01*
X156682000Y-101179400D02*
X156446700Y-101414700D01*
X144572000Y-122166000D02*
X144572000Y-119540700D01*
X146617200Y-114615000D02*
X147849800Y-114615000D01*
X144336200Y-116896000D02*
X146617200Y-114615000D01*
X144336200Y-119304900D02*
X144336200Y-116896000D01*
X144572000Y-119540700D02*
X144336200Y-119304900D01*
X145711000Y-92211600D02*
X145711000Y-92304200D01*
X149806000Y-88116600D02*
X145711000Y-92211600D01*
X145487100Y-91728400D02*
X145135200Y-91728400D01*
X149452500Y-87763000D02*
X145487100Y-91728400D01*
X140572000Y-117980700D02*
X141157000Y-117395700D01*
X140572000Y-122166000D02*
X140572000Y-117980700D01*
X141541800Y-112627400D02*
X141541800Y-112491300D01*
X141860500Y-112946100D02*
X141541800Y-112627400D01*
X147642400Y-112946100D02*
X141860500Y-112946100D01*
X147810300Y-113114000D02*
X147642400Y-112946100D01*
X143718700Y-92402000D02*
X143718700Y-93375200D01*
X145649600Y-90471100D02*
X143718700Y-92402000D01*
X146037300Y-90471100D02*
X145649600Y-90471100D01*
X149098900Y-87409500D02*
X146037300Y-90471100D01*
X143708100Y-114747300D02*
X143788500Y-114827700D01*
X142190400Y-114747300D02*
X143708100Y-114747300D01*
X140871100Y-116066600D02*
X142190400Y-114747300D01*
X140871100Y-116301600D02*
X140871100Y-116066600D01*
X139459400Y-117713300D02*
X140871100Y-116301600D01*
X139459400Y-119051800D02*
X139459400Y-117713300D01*
X138572000Y-119939200D02*
X139459400Y-119051800D01*
X138572000Y-122166000D02*
X138572000Y-119939200D01*
X141894000Y-89034200D02*
X139870200Y-91058000D01*
X146767100Y-89034200D02*
X141894000Y-89034200D01*
X148745400Y-87055900D02*
X146767100Y-89034200D01*
X136572000Y-118585500D02*
X136572000Y-122166000D01*
X136173300Y-118186800D02*
X136572000Y-118585500D01*
X146632400Y-88461800D02*
X142915600Y-88461800D01*
X148391800Y-86702400D02*
X146632400Y-88461800D01*
X134572000Y-119460800D02*
X134633500Y-119399300D01*
X134572000Y-122166000D02*
X134572000Y-119460800D01*
X148038300Y-86348800D02*
X147278000Y-87109100D01*
X138378000Y-86128000D02*
X138342600Y-86128000D01*
X139214500Y-86964500D02*
X138378000Y-86128000D01*
X147133300Y-86964500D02*
X139214500Y-86964500D01*
X147278000Y-87109100D02*
X147133300Y-86964500D01*
X132572000Y-119126900D02*
X134002300Y-117696600D01*
X132572000Y-122166000D02*
X132572000Y-119126900D01*
X146270500Y-98298900D02*
X145510100Y-97538400D01*
X142596200Y-98554200D02*
X142454000Y-98554200D01*
X142663000Y-98487400D02*
X142596200Y-98554200D01*
X144069400Y-98487400D02*
X142663000Y-98487400D01*
X144893100Y-97663700D02*
X144069400Y-98487400D01*
X145384800Y-97663700D02*
X144893100Y-97663700D01*
X145510100Y-97538400D02*
X145384800Y-97663700D01*
X154827700Y-119285000D02*
X154572000Y-119540700D01*
X154827700Y-117955500D02*
X154827700Y-119285000D01*
X154314400Y-117442200D02*
X154827700Y-117955500D01*
X154046600Y-117442200D02*
X154314400Y-117442200D01*
X154572000Y-122166000D02*
X154572000Y-119540700D01*
X146455900Y-109125300D02*
X147201400Y-108379800D01*
X142970200Y-109125300D02*
X146455900Y-109125300D01*
X141957100Y-108112200D02*
X142970200Y-109125300D01*
X136172700Y-108112200D02*
X141957100Y-108112200D01*
X134625900Y-106565400D02*
X136172700Y-108112200D01*
X134625900Y-101882500D02*
X134625900Y-106565400D01*
X138209500Y-98298900D02*
X134625900Y-101882500D01*
X154491700Y-112500200D02*
X154491700Y-113526100D01*
X152265400Y-110273900D02*
X154491700Y-112500200D01*
X147243700Y-110273900D02*
X152265400Y-110273900D01*
X156572000Y-122166000D02*
X156572000Y-119540700D01*
X137436500Y-88050700D02*
X138835800Y-88050700D01*
X136088200Y-86702400D02*
X137436500Y-88050700D01*
X146360300Y-115619200D02*
X144861500Y-117118000D01*
X151967000Y-115619200D02*
X146360300Y-115619200D01*
X153264700Y-116916900D02*
X151967000Y-115619200D01*
X154446800Y-116916900D02*
X153264700Y-116916900D01*
X156572000Y-119042100D02*
X154446800Y-116916900D01*
X156572000Y-119540700D02*
X156572000Y-119042100D01*
X158572000Y-122166000D02*
X158572000Y-119540700D01*
X134175600Y-101625700D02*
X137855900Y-97945400D01*
X134175600Y-106752000D02*
X134175600Y-101625700D01*
X135986100Y-108562500D02*
X134175600Y-106752000D01*
X138050000Y-108562500D02*
X135986100Y-108562500D01*
X140861000Y-111373500D02*
X138050000Y-108562500D01*
X140861000Y-112583500D02*
X140861000Y-111373500D01*
X141673900Y-113396400D02*
X140861000Y-112583500D01*
X147349800Y-113396400D02*
X141673900Y-113396400D01*
X147592700Y-113639300D02*
X147349800Y-113396400D01*
X153677100Y-113639300D02*
X147592700Y-113639300D01*
X154441000Y-114403200D02*
X153677100Y-113639300D01*
X154441000Y-115498900D02*
X154441000Y-114403200D01*
X156477500Y-117535400D02*
X154441000Y-115498900D01*
X156536500Y-117535400D02*
X156477500Y-117535400D01*
X158541800Y-119540700D02*
X156536500Y-117535400D01*
X158572000Y-119540700D02*
X158541800Y-119540700D01*
X147860000Y-102870000D02*
X147860000Y-104045300D01*
X147331200Y-97238300D02*
X146570900Y-96477900D01*
X160572000Y-122166000D02*
X160572000Y-119540700D01*
X153956000Y-106680000D02*
X153956000Y-105504700D01*
X152496600Y-104045300D02*
X153956000Y-105504700D01*
X147860000Y-104045300D02*
X152496600Y-104045300D01*
X147860000Y-104080600D02*
X147860000Y-104045300D01*
X148094400Y-104315000D02*
X147860000Y-104080600D01*
X146140200Y-96646600D02*
X146098700Y-96688100D01*
X146292400Y-96646600D02*
X146140200Y-96646600D01*
X146461100Y-96477900D02*
X146292400Y-96646600D01*
X146570800Y-96477900D02*
X146461100Y-96477900D01*
X146570900Y-96477900D02*
X146570800Y-96477900D01*
X152296400Y-109668000D02*
X148089700Y-109668000D01*
X155185300Y-112556900D02*
X152296400Y-109668000D01*
X155185300Y-114586400D02*
X155185300Y-112556900D01*
X157254600Y-116655700D02*
X155185300Y-114586400D01*
X157628400Y-116655700D02*
X157254600Y-116655700D01*
X160513400Y-119540700D02*
X157628400Y-116655700D01*
X160572000Y-119540700D02*
X160513400Y-119540700D01*
X151151800Y-116548500D02*
X151388700Y-116785400D01*
X147746100Y-116548500D02*
X151151800Y-116548500D01*
X147160400Y-117134200D02*
X147746100Y-116548500D01*
X147160400Y-119129100D02*
X147160400Y-117134200D01*
X147572000Y-119540700D02*
X147160400Y-119129100D01*
X148038300Y-96531200D02*
X148798600Y-97291500D01*
X147572000Y-122166000D02*
X147572000Y-119540700D01*
X149175000Y-97291500D02*
X150155600Y-96310900D01*
X148798600Y-97291500D02*
X149175000Y-97291500D01*
X145572000Y-119268100D02*
X145572000Y-122166000D01*
X145287800Y-118983900D02*
X145572000Y-119268100D01*
X148391800Y-96177600D02*
X147631500Y-95417300D01*
X146680300Y-95908600D02*
X145183200Y-95908600D01*
X147171600Y-95417300D02*
X146680300Y-95908600D01*
X147631500Y-95417300D02*
X147171600Y-95417300D01*
X141572000Y-122166000D02*
X141572000Y-119540700D01*
X147835000Y-94913700D02*
X148745400Y-95824100D01*
X147038300Y-94913700D02*
X147835000Y-94913700D01*
X146596000Y-95356000D02*
X147038300Y-94913700D01*
X144828500Y-95356000D02*
X146596000Y-95356000D01*
X142983300Y-97201200D02*
X144828500Y-95356000D01*
X142250100Y-97201200D02*
X142983300Y-97201200D01*
X141530800Y-114297000D02*
X140796100Y-115031700D01*
X144000800Y-114297000D02*
X141530800Y-114297000D01*
X144313800Y-114610000D02*
X144000800Y-114297000D01*
X144313800Y-115045400D02*
X144313800Y-114610000D01*
X143496800Y-115862400D02*
X144313800Y-115045400D01*
X142381500Y-115862400D02*
X143496800Y-115862400D01*
X141898300Y-116345600D02*
X142381500Y-115862400D01*
X141898300Y-119214400D02*
X141898300Y-116345600D01*
X141572000Y-119540700D02*
X141898300Y-119214400D01*
X149098900Y-95470500D02*
X148338500Y-94710000D01*
X142820600Y-96542400D02*
X142751700Y-96611300D01*
X142842600Y-96542400D02*
X142820600Y-96542400D01*
X144133500Y-95251500D02*
X142842600Y-96542400D01*
X144296100Y-95251500D02*
X144133500Y-95251500D01*
X144641900Y-94905700D02*
X144296100Y-95251500D01*
X144778300Y-94905700D02*
X144641900Y-94905700D01*
X144849300Y-94834700D02*
X144778300Y-94905700D01*
X146448200Y-94834700D02*
X144849300Y-94834700D01*
X146604500Y-94678400D02*
X146448200Y-94834700D01*
X146636700Y-94678400D02*
X146604500Y-94678400D01*
X146882300Y-94432800D02*
X146636700Y-94678400D01*
X147991100Y-94432800D02*
X146882300Y-94432800D01*
X148268400Y-94710100D02*
X147991100Y-94432800D01*
X148338400Y-94710100D02*
X148268400Y-94710100D01*
X148338500Y-94710000D02*
X148338400Y-94710100D01*
X142301900Y-115272700D02*
X142747400Y-115272700D01*
X141321400Y-116253200D02*
X142301900Y-115272700D01*
X141321400Y-116488200D02*
X141321400Y-116253200D01*
X140022200Y-117787400D02*
X141321400Y-116488200D01*
X140022200Y-119351300D02*
X140022200Y-117787400D01*
X139572000Y-119801500D02*
X140022200Y-119351300D01*
X139572000Y-122166000D02*
X139572000Y-119801500D01*
X137572000Y-122166000D02*
X137572000Y-119540700D01*
X138214400Y-119540700D02*
X138774100Y-118981000D01*
X137572000Y-119540700D02*
X138214400Y-119540700D01*
X148318000Y-93982500D02*
X149452500Y-95117000D01*
X146663500Y-93982500D02*
X148318000Y-93982500D01*
X146261600Y-94384400D02*
X146663500Y-93982500D01*
X141714300Y-94384400D02*
X146261600Y-94384400D01*
X139813700Y-96285000D02*
X141714300Y-94384400D01*
X135708300Y-119540700D02*
X136030200Y-119218800D01*
X135572000Y-119540700D02*
X135708300Y-119540700D01*
X135572000Y-122166000D02*
X135572000Y-119540700D01*
X146075000Y-93934100D02*
X139843300Y-93934100D01*
X146523900Y-93485200D02*
X146075000Y-93934100D01*
X148527800Y-93485200D02*
X146523900Y-93485200D01*
X149806000Y-94763400D02*
X148527800Y-93485200D01*
X150159600Y-94409800D02*
X150920000Y-95170100D01*
X150814700Y-96416500D02*
X150301000Y-96930200D01*
X150814700Y-95275400D02*
X150814700Y-96416500D01*
X150920000Y-95170100D02*
X150814700Y-95275400D01*
X133572000Y-119229000D02*
X134061900Y-118739100D01*
X133572000Y-122166000D02*
X133572000Y-119229000D01*
X151828000Y-95371200D02*
X152488900Y-95371200D01*
X150513100Y-94056300D02*
X151828000Y-95371200D01*
X131572000Y-122166000D02*
X131572000Y-119540700D01*
X153366900Y-114089600D02*
X153521000Y-114243700D01*
X146748900Y-114089600D02*
X153366900Y-114089600D01*
X146506000Y-113846700D02*
X146748900Y-114089600D01*
X140929600Y-113846700D02*
X146506000Y-113846700D01*
X138161900Y-116614400D02*
X140929600Y-113846700D01*
X133140000Y-116614400D02*
X138161900Y-116614400D01*
X131444800Y-118309600D02*
X133140000Y-116614400D01*
X131444800Y-119413500D02*
X131444800Y-118309600D01*
X131572000Y-119540700D02*
X131444800Y-119413500D01*
X145563400Y-83874000D02*
X146323800Y-83113600D01*
X189938000Y-99500000D02*
X188824700Y-99500000D01*
X189938000Y-99500000D02*
X190000000Y-99500000D01*
X191526400Y-99851100D02*
X194000000Y-99851100D01*
X191175300Y-99500000D02*
X191526400Y-99851100D01*
X194000000Y-101040000D02*
X194000000Y-99851100D01*
X190000000Y-99500000D02*
X191175300Y-99500000D01*
X146323800Y-83113700D02*
X146323800Y-83113600D01*
X146961100Y-83113700D02*
X146323800Y-83113700D01*
X148034600Y-84187200D02*
X146961100Y-83113700D01*
X149007700Y-84187200D02*
X148034600Y-84187200D01*
X149605300Y-84784800D02*
X149007700Y-84187200D01*
X149999400Y-84784800D02*
X149605300Y-84784800D01*
X150347300Y-85132700D02*
X149999400Y-84784800D01*
X151394900Y-85132700D02*
X150347300Y-85132700D01*
X151497300Y-85235100D02*
X151394900Y-85132700D01*
X152861200Y-85235100D02*
X151497300Y-85235100D01*
X153311500Y-85685400D02*
X152861200Y-85235100D01*
X175010100Y-85685400D02*
X153311500Y-85685400D01*
X188824700Y-99500000D02*
X175010100Y-85685400D01*
X193786400Y-104768900D02*
X194000000Y-104768900D01*
X191370300Y-107185000D02*
X193786400Y-104768900D01*
X194000000Y-103580000D02*
X194000000Y-104768900D01*
X190782700Y-107185000D02*
X191370300Y-107185000D01*
X190782700Y-107185000D02*
X190195000Y-107185000D01*
X145917000Y-84227500D02*
X145156700Y-84987800D01*
X164566800Y-107185000D02*
X158152600Y-100770800D01*
X189019700Y-107185000D02*
X164566800Y-107185000D01*
X190195000Y-107185000D02*
X189019700Y-107185000D01*
X145266400Y-85097600D02*
X145156700Y-84987800D01*
X145266400Y-85146600D02*
X145266400Y-85097600D01*
X145383500Y-85263700D02*
X145266400Y-85146600D01*
X145383500Y-85321400D02*
X145383500Y-85263700D01*
X146624100Y-97945400D02*
X147384400Y-98705700D01*
X208280000Y-103600000D02*
X207104700Y-103600000D01*
X149413800Y-105039000D02*
X147592100Y-105039000D01*
X152923800Y-108549000D02*
X149413800Y-105039000D01*
X202155700Y-108549000D02*
X152923800Y-108549000D01*
X207104700Y-103600000D02*
X202155700Y-108549000D01*
X147384400Y-98829300D02*
X147292900Y-98920800D01*
X147384400Y-98705700D02*
X147384400Y-98829300D01*
X131064000Y-74895600D02*
X131064000Y-72644000D01*
X136034200Y-79865800D02*
X131064000Y-74895600D01*
X157956000Y-106680000D02*
X159281300Y-106680000D01*
X159323000Y-106638300D02*
X162890400Y-106638300D01*
X159281300Y-106680000D02*
X159323000Y-106638300D01*
X135350000Y-113030000D02*
X135350000Y-111854700D01*
X135350000Y-111854700D02*
X135667400Y-111537300D01*
X130810000Y-106680000D02*
X135667400Y-111537300D01*
X135890000Y-111760000D02*
X138970000Y-111760000D01*
X135667400Y-111537300D02*
X135890000Y-111760000D01*
X121946800Y-93440000D02*
X123190000Y-93440000D01*
X119474700Y-95912100D02*
X121946800Y-93440000D01*
X119474700Y-101060000D02*
X119474700Y-95912100D01*
X120650000Y-101060000D02*
X119474700Y-101060000D01*
X123994600Y-103229300D02*
X121825300Y-101060000D01*
X127359300Y-103229300D02*
X123994600Y-103229300D01*
X120650000Y-101060000D02*
X121825300Y-101060000D01*
X144149200Y-82459700D02*
X144909700Y-81699200D01*
X136430000Y-74930000D02*
X136430000Y-76055300D01*
X143751800Y-80541400D02*
X144909700Y-81699200D01*
X143751500Y-80541400D02*
X143751800Y-80541400D01*
X143742600Y-80532500D02*
X143751500Y-80541400D01*
X143320900Y-80532500D02*
X143742600Y-80532500D01*
X141634300Y-78845900D02*
X143320900Y-80532500D01*
X141323200Y-78845900D02*
X141634300Y-78845900D01*
X140709500Y-78232200D02*
X141323200Y-78845900D01*
X139732200Y-78232200D02*
X140709500Y-78232200D01*
X137555300Y-76055300D02*
X139732200Y-78232200D01*
X136430000Y-76055300D02*
X137555300Y-76055300D01*
X154153400Y-94124700D02*
X154210000Y-94124700D01*
X151693700Y-91665000D02*
X154153400Y-94124700D01*
X151383500Y-91665000D02*
X151693700Y-91665000D01*
X150813400Y-92235100D02*
X151383500Y-91665000D01*
X151573800Y-92995600D02*
X150813400Y-92235100D01*
X154210000Y-95250000D02*
X154210000Y-94124700D01*
X131350000Y-113030000D02*
X131350000Y-111854700D01*
X131586600Y-111854700D02*
X131673500Y-111767800D01*
X131350000Y-111854700D02*
X131586600Y-111854700D01*
X135268600Y-97704300D02*
X132952200Y-97704300D01*
X136441700Y-96531200D02*
X135268600Y-97704300D01*
X123340700Y-98575400D02*
X121825300Y-97060000D01*
X131113300Y-98575400D02*
X123340700Y-98575400D01*
X131459000Y-98229700D02*
X131113300Y-98575400D01*
X135450300Y-98229700D02*
X131459000Y-98229700D01*
X136795300Y-96884700D02*
X135450300Y-98229700D01*
X120650000Y-97060000D02*
X121825300Y-97060000D01*
X133205800Y-82694200D02*
X134036900Y-83525300D01*
X134674000Y-88116600D02*
X133913700Y-87356200D01*
X129684200Y-86215800D02*
X130515300Y-87046900D01*
X134036900Y-86708900D02*
X133806300Y-86939500D01*
X134036900Y-83525300D02*
X134036900Y-86708900D01*
X133913700Y-87046900D02*
X133806300Y-86939500D01*
X133913700Y-87356200D02*
X133913700Y-87046900D01*
X130622700Y-86939500D02*
X130515300Y-87046900D01*
X133806300Y-86939500D02*
X130622700Y-86939500D01*
X145320000Y-107950000D02*
X143994700Y-107950000D01*
X135076200Y-103553600D02*
X139270200Y-99359600D01*
X135076200Y-106378800D02*
X135076200Y-103553600D01*
X135690700Y-106993300D02*
X135076200Y-106378800D01*
X143038000Y-106993300D02*
X135690700Y-106993300D01*
X143994700Y-107950000D02*
X143038000Y-106993300D01*
X132348000Y-79915300D02*
X131540000Y-79915300D01*
X134864800Y-82432100D02*
X132348000Y-79915300D01*
X134864800Y-85466800D02*
X134864800Y-82432100D01*
X134710100Y-85621500D02*
X134864800Y-85466800D01*
X134710100Y-86559800D02*
X134710100Y-85621500D01*
X134620800Y-86649100D02*
X134710100Y-86559800D01*
X135381100Y-87409500D02*
X134620800Y-86649100D01*
X131540000Y-78740000D02*
X131540000Y-79915300D01*
X132608000Y-87464800D02*
X133966900Y-88823700D01*
X132557000Y-87464800D02*
X132608000Y-87464800D01*
X124531100Y-78645300D02*
X126254700Y-80368900D01*
X119920000Y-78645300D02*
X124531100Y-78645300D01*
X119920000Y-77470000D02*
X119920000Y-78645300D01*
X132552600Y-90237900D02*
X131792300Y-89477600D01*
X151927400Y-92642100D02*
X152687700Y-93402400D01*
X139199300Y-100809500D02*
X138863300Y-100473500D01*
X139199400Y-100809500D02*
X139199300Y-100809500D01*
X139217000Y-100827000D02*
X139199400Y-100809500D01*
X139977300Y-100066700D02*
X139217000Y-100827000D01*
X139623700Y-99713100D02*
X138863300Y-100473500D01*
X139623700Y-99713100D02*
X140304400Y-99032400D01*
X153995300Y-62960000D02*
X147320000Y-62960000D01*
X157605000Y-59350300D02*
X153995300Y-62960000D01*
X157605000Y-58150000D02*
X157605000Y-59350300D01*
X151572000Y-122166000D02*
X151572000Y-119540700D01*
X147169400Y-64285300D02*
X147320000Y-64285300D01*
X144050000Y-67404700D02*
X147169400Y-64285300D01*
X147320000Y-62960000D02*
X147320000Y-64285300D01*
X126855800Y-89044200D02*
X127686900Y-89875300D01*
X140208000Y-62960000D02*
X147320000Y-62960000D01*
X203200000Y-86360000D02*
X203200000Y-85171100D01*
X144050000Y-67992300D02*
X144050000Y-67404700D01*
X144050000Y-67992300D02*
X144050000Y-68580000D01*
X144050000Y-68580000D02*
X144050000Y-69755300D01*
X144050000Y-77470000D02*
X142724700Y-77470000D01*
X155502700Y-84360000D02*
X154940000Y-84360000D01*
X155502700Y-84360000D02*
X156065300Y-84360000D01*
X126855800Y-89044200D02*
X126024700Y-88213100D01*
X119380000Y-85820000D02*
X124460000Y-85820000D01*
X124956900Y-87145300D02*
X126024700Y-88213100D01*
X124460000Y-87145300D02*
X124956900Y-87145300D01*
X124460000Y-85820000D02*
X124460000Y-87145300D01*
X124460000Y-85820000D02*
X125585300Y-85820000D01*
X144050000Y-77470000D02*
X145375300Y-77470000D01*
X139216900Y-100827100D02*
X139217000Y-100827000D01*
X139216900Y-103071600D02*
X139216900Y-100827100D01*
X140430000Y-104284700D02*
X139216900Y-103071600D01*
X151860000Y-81280000D02*
X151860000Y-80132800D01*
X158896100Y-85171100D02*
X203200000Y-85171100D01*
X158849000Y-85124000D02*
X158896100Y-85171100D01*
X151860000Y-80132800D02*
X157432700Y-80132800D01*
X156829300Y-85124000D02*
X156065300Y-84360000D01*
X158849000Y-85124000D02*
X156829300Y-85124000D01*
X128270000Y-93250000D02*
X128832700Y-93250000D01*
X131792300Y-89477600D02*
X128974800Y-89477600D01*
X128084600Y-89477600D02*
X127686900Y-89875300D01*
X128974800Y-89477600D02*
X128084600Y-89477600D01*
X159572000Y-122166000D02*
X159572000Y-119540700D01*
X151860000Y-78985600D02*
X151860000Y-80132800D01*
X149212000Y-76337600D02*
X151860000Y-78985600D01*
X146507700Y-76337600D02*
X149212000Y-76337600D01*
X145375300Y-77470000D02*
X146507700Y-76337600D01*
X151860000Y-102870000D02*
X153185300Y-102870000D01*
X163572000Y-122166000D02*
X163572000Y-119540700D01*
X151670000Y-99622600D02*
X151670000Y-100185300D01*
X155572000Y-122166000D02*
X155572000Y-119540700D01*
X140430000Y-104792600D02*
X140430000Y-104284700D01*
X151572000Y-119518900D02*
X151629100Y-119461800D01*
X151572000Y-119540700D02*
X151572000Y-119518900D01*
X151670000Y-99060000D02*
X151670000Y-99341300D01*
X151670000Y-99341300D02*
X151670000Y-99622600D01*
X158759300Y-114728000D02*
X163572000Y-119540700D01*
X156729900Y-114728000D02*
X158759300Y-114728000D01*
X156542700Y-114540800D02*
X156729900Y-114728000D01*
X155550200Y-119540700D02*
X155472600Y-119463100D01*
X155572000Y-119540700D02*
X155550200Y-119540700D01*
X152687700Y-94516100D02*
X152588400Y-94615400D01*
X152687700Y-93402400D02*
X152687700Y-94516100D01*
X159284700Y-119540700D02*
X157092000Y-117348000D01*
X159572000Y-119540700D02*
X159284700Y-119540700D01*
X152215600Y-98795700D02*
X152215600Y-97859700D01*
X151670000Y-99341300D02*
X152215600Y-98795700D01*
X151670000Y-99622600D02*
X154220800Y-99622600D01*
X144759900Y-101031000D02*
X146616400Y-101031000D01*
X144149200Y-100420300D02*
X144759900Y-101031000D01*
X150824300Y-101031000D02*
X151670000Y-100185300D01*
X146616400Y-101031000D02*
X150824300Y-101031000D01*
X153185300Y-102870000D02*
X154046400Y-102870000D01*
X154098600Y-102817800D02*
X156499300Y-102817800D01*
X154046400Y-102870000D02*
X154098600Y-102817800D01*
X122428000Y-70580000D02*
X123553300Y-70580000D01*
X142724700Y-77470000D02*
X142724700Y-70852400D01*
X143821800Y-69755300D02*
X144050000Y-69755300D01*
X142724700Y-70852400D02*
X143821800Y-69755300D01*
X124082100Y-70784600D02*
X123920000Y-70946700D01*
X142656900Y-70784600D02*
X124082100Y-70784600D01*
X142724700Y-70852400D02*
X142656900Y-70784600D01*
X123920000Y-77470000D02*
X123920000Y-70946700D01*
X123920000Y-70946700D02*
X123553300Y-70580000D01*
X127540000Y-83865300D02*
X127540000Y-78740000D01*
X125585300Y-85820000D02*
X127540000Y-83865300D01*
X125340000Y-77564700D02*
X125245300Y-77470000D01*
X127540000Y-77564700D02*
X125340000Y-77564700D01*
X127540000Y-78740000D02*
X127540000Y-77564700D01*
X123920000Y-77470000D02*
X125245300Y-77470000D01*
X132694000Y-77564700D02*
X127540000Y-77564700D01*
X133096100Y-77966800D02*
X132694000Y-77564700D01*
X133096100Y-78851700D02*
X133096100Y-77966800D01*
X135743700Y-81499300D02*
X133096100Y-78851700D01*
X137366400Y-81499300D02*
X135743700Y-81499300D01*
X138555200Y-80310500D02*
X137366400Y-81499300D01*
X142000000Y-80310500D02*
X138555200Y-80310500D01*
X143442100Y-81752600D02*
X142000000Y-80310500D01*
X134320400Y-94409800D02*
X133560000Y-95170200D01*
X128832700Y-93250000D02*
X130341700Y-93250000D01*
X132261900Y-95170200D02*
X133560000Y-95170200D01*
X130341700Y-93250000D02*
X132261900Y-95170200D01*
X133560000Y-95170400D02*
X133560000Y-95170200D01*
X135222200Y-96832600D02*
X133560000Y-95170400D01*
X135222500Y-96832600D02*
X135222200Y-96832600D01*
X135327900Y-96937900D02*
X135222500Y-96832600D01*
X157053300Y-117348000D02*
X156644200Y-116938900D01*
X157092000Y-117348000D02*
X157053300Y-117348000D01*
X138528200Y-114596000D02*
X138575100Y-114642900D01*
X133447000Y-114596000D02*
X138528200Y-114596000D01*
X141022100Y-104200500D02*
X141824700Y-104200500D01*
X140430000Y-104792600D02*
X141022100Y-104200500D01*
X140430000Y-105410000D02*
X140430000Y-105101300D01*
X140430000Y-105101300D02*
X140430000Y-104792600D01*
X139071400Y-105101300D02*
X138913100Y-104943000D01*
X140430000Y-105101300D02*
X139071400Y-105101300D01*
X135708000Y-96557800D02*
X135327900Y-96937900D01*
X135708000Y-96557800D02*
X136088200Y-96177600D01*
X136943700Y-95512200D02*
X139677100Y-98245500D01*
X136943500Y-95512200D02*
X136943700Y-95512200D01*
X136848600Y-95417200D02*
X136943500Y-95512200D01*
X136088200Y-96177600D02*
X136848600Y-95417200D01*
X138916600Y-99006000D02*
X139677100Y-98245500D01*
X142808400Y-99079500D02*
X144149200Y-100420300D01*
X140351500Y-99079500D02*
X142808400Y-99079500D01*
X140304400Y-99032400D02*
X140351500Y-99079500D01*
X140304400Y-98872900D02*
X140304400Y-99032400D01*
X139677100Y-98245500D02*
X140304400Y-98872900D01*
X133463500Y-65532000D02*
X132048000Y-65532000D01*
X133463500Y-61227800D02*
X134130000Y-60561300D01*
X133463500Y-65532000D02*
X133463500Y-61227800D01*
X135632100Y-98755000D02*
X133286300Y-98755000D01*
X137148800Y-97238300D02*
X135632100Y-98755000D01*
X134130000Y-59436000D02*
X134130000Y-59748100D01*
X134130000Y-59748100D02*
X134130000Y-60561300D01*
X138244600Y-59748100D02*
X139032700Y-58960000D01*
X134130000Y-59748100D02*
X138244600Y-59748100D01*
X140208000Y-58960000D02*
X139032700Y-58960000D01*
X144302100Y-56041200D02*
X141383300Y-58960000D01*
X191859900Y-56041200D02*
X144302100Y-56041200D01*
X196778700Y-60960000D02*
X191859900Y-56041200D01*
X198120000Y-60960000D02*
X196778700Y-60960000D01*
X140208000Y-58960000D02*
X141383300Y-58960000D01*
X135474800Y-99619400D02*
X134544800Y-99619400D01*
X137502400Y-97591800D02*
X135474800Y-99619400D01*
X189310200Y-78335500D02*
X189714700Y-78740000D01*
X152025400Y-78335500D02*
X189310200Y-78335500D01*
X191040000Y-78740000D02*
X189714700Y-78740000D01*
X137313000Y-115457900D02*
X137944200Y-116089100D01*
X133019400Y-115457900D02*
X137313000Y-115457900D01*
X144502700Y-82813300D02*
X145263100Y-82052900D01*
X203200000Y-81280000D02*
X203200000Y-82468900D01*
X145397200Y-82187100D02*
X145263100Y-82052900D01*
X146456400Y-82187100D02*
X145397200Y-82187100D01*
X146693900Y-82424600D02*
X146456400Y-82187100D01*
X161071200Y-82424600D02*
X146693900Y-82424600D01*
X160273300Y-96424000D02*
X159371400Y-97325900D01*
X160273300Y-94286400D02*
X160273300Y-96424000D01*
X161115500Y-82468900D02*
X203200000Y-82468900D01*
X161071200Y-82424600D02*
X161115500Y-82468900D01*
X142558600Y-81752600D02*
X142579400Y-81752600D01*
X141798300Y-82512900D02*
X142558600Y-81752600D01*
X141037900Y-81752600D02*
X141798300Y-82512900D01*
X203200000Y-83820000D02*
X201858700Y-83820000D01*
X201817200Y-83861500D02*
X171244100Y-83861500D01*
X201858700Y-83820000D02*
X201817200Y-83861500D01*
X207451200Y-96524100D02*
X204375300Y-99600000D01*
X209315100Y-96524100D02*
X207451200Y-96524100D01*
X209505700Y-96333500D02*
X209315100Y-96524100D01*
X209505700Y-94347900D02*
X209505700Y-96333500D01*
X209321700Y-94163900D02*
X209505700Y-94347900D01*
X203679700Y-94163900D02*
X209321700Y-94163900D01*
X203200000Y-93684200D02*
X203679700Y-94163900D01*
X203200000Y-92560100D02*
X203200000Y-93684200D01*
X203200000Y-99600000D02*
X204375300Y-99600000D01*
X208280000Y-92560100D02*
X208280000Y-93684200D01*
X208280000Y-99600000D02*
X209455300Y-99600000D01*
X209479000Y-93684200D02*
X208280000Y-93684200D01*
X209956100Y-94161300D02*
X209479000Y-93684200D01*
X209956100Y-99099200D02*
X209956100Y-94161300D01*
X209455300Y-99600000D02*
X209956100Y-99099200D01*
X151505000Y-66525000D02*
X151505000Y-65499700D01*
X163455000Y-65875000D02*
X163455000Y-64799700D01*
X163205000Y-64799700D02*
X163455000Y-64799700D01*
X163205000Y-64799700D02*
X163205000Y-58275000D01*
X163205000Y-58275000D02*
X163205000Y-57199700D01*
X151855000Y-58275000D02*
X152930300Y-58275000D01*
X152205000Y-64799700D02*
X163205000Y-64799700D01*
X151505000Y-65499700D02*
X152205000Y-64799700D01*
X162504700Y-56499400D02*
X163205000Y-57199700D01*
X153531300Y-56499400D02*
X162504700Y-56499400D01*
X152705300Y-57325400D02*
X153531300Y-56499400D01*
X152705300Y-57698600D02*
X152705300Y-57325400D01*
X152864400Y-57857700D02*
X152705300Y-57698600D01*
X152864400Y-57857800D02*
X152864400Y-57857700D01*
X152930300Y-57923700D02*
X152864400Y-57857800D01*
X152930300Y-58275000D02*
X152930300Y-57923700D01*
X149631800Y-68836500D02*
X149375300Y-68580000D01*
X150573300Y-68836500D02*
X149631800Y-68836500D01*
X148050000Y-68580000D02*
X148078200Y-68580000D01*
X148078200Y-68580000D02*
X149375300Y-68580000D01*
X156216200Y-64039100D02*
X160905000Y-59350300D01*
X152328700Y-64039100D02*
X156216200Y-64039100D01*
X148078200Y-68289600D02*
X152328700Y-64039100D01*
X148078200Y-68580000D02*
X148078200Y-68289600D01*
X160905000Y-58150000D02*
X160905000Y-59350300D01*
X152743100Y-87119800D02*
X152463700Y-87119800D01*
X153182000Y-87558700D02*
X152743100Y-87119800D01*
X153182000Y-87994100D02*
X153182000Y-87558700D01*
X152874400Y-88301700D02*
X153182000Y-87994100D01*
X152449400Y-88301700D02*
X152874400Y-88301700D01*
X151220300Y-89530800D02*
X152449400Y-88301700D01*
X158738200Y-59350300D02*
X158705000Y-59350300D01*
X158837300Y-59449400D02*
X158738200Y-59350300D01*
X158705000Y-58150000D02*
X158705000Y-59350300D01*
X152687400Y-88770800D02*
X153535000Y-88770800D01*
X151573800Y-89884400D02*
X152687400Y-88770800D01*
X156404100Y-59350300D02*
X156505000Y-59350300D01*
X156305000Y-59449400D02*
X156404100Y-59350300D01*
X156505000Y-58150000D02*
X156505000Y-59350300D01*
X150866700Y-89177300D02*
X151627100Y-88416900D01*
X152267600Y-87776400D02*
X152656700Y-87776400D01*
X151627100Y-88416900D02*
X152267600Y-87776400D01*
X203200000Y-103600000D02*
X202024700Y-103600000D01*
X146977600Y-97591800D02*
X147738000Y-98352100D01*
X155259300Y-100223300D02*
X154671100Y-100811500D01*
X158974000Y-100223300D02*
X155259300Y-100223300D01*
X163261100Y-104510400D02*
X158974000Y-100223300D01*
X191235600Y-104510400D02*
X163261100Y-104510400D01*
X193355400Y-102390600D02*
X191235600Y-104510400D01*
X200815300Y-102390600D02*
X193355400Y-102390600D01*
X202024700Y-103600000D02*
X200815300Y-102390600D01*
X152624600Y-97525700D02*
X154630100Y-97525700D01*
X152433300Y-97334400D02*
X152624600Y-97525700D01*
X150856800Y-97334400D02*
X152433300Y-97334400D01*
X150772900Y-97418300D02*
X150856800Y-97334400D01*
X150598600Y-97418300D02*
X150772900Y-97418300D01*
X149792700Y-98224200D02*
X150598600Y-97418300D01*
X147865900Y-98224200D02*
X149792700Y-98224200D01*
X147738000Y-98352100D02*
X147865900Y-98224200D01*
D34*
G36*
X212815000Y-116315000D02*
X165500000Y-116315000D01*
X165237862Y-116367143D01*
X165229096Y-116373000D01*
X165000000Y-116373000D01*
X164950590Y-116383006D01*
X164908965Y-116411447D01*
X164881685Y-116453841D01*
X164873000Y-116500000D01*
X164873000Y-116729096D01*
X164867143Y-116737862D01*
X164815000Y-117000000D01*
X164815000Y-119273750D01*
X164699000Y-119389750D01*
X164699000Y-122039000D01*
X164719000Y-122039000D01*
X164719000Y-122293000D01*
X164699000Y-122293000D01*
X164699000Y-122313000D01*
X164544440Y-122313000D01*
X164544440Y-119866000D01*
X164500162Y-119630683D01*
X164445000Y-119544959D01*
X164445000Y-119389750D01*
X164286250Y-119231000D01*
X164261546Y-119231000D01*
X164109401Y-119003299D01*
X160143802Y-115037700D01*
X161753709Y-115037700D01*
X161933979Y-115112555D01*
X162266163Y-115112845D01*
X162573172Y-114985992D01*
X162808266Y-114751307D01*
X162935655Y-114444521D01*
X162935945Y-114112337D01*
X162809092Y-113805328D01*
X162574407Y-113570234D01*
X162267621Y-113442845D01*
X161935437Y-113442555D01*
X161753571Y-113517700D01*
X158202102Y-113517700D01*
X158127101Y-113442699D01*
X157880539Y-113277952D01*
X157589700Y-113220100D01*
X156551891Y-113220100D01*
X156439400Y-113173389D01*
X156439400Y-111944300D01*
X156404758Y-111770144D01*
X156635263Y-111770345D01*
X156817129Y-111695200D01*
X164224909Y-111695200D01*
X164405179Y-111770055D01*
X164737363Y-111770345D01*
X165044372Y-111643492D01*
X165279466Y-111408807D01*
X165406855Y-111102021D01*
X165407145Y-110769837D01*
X165280292Y-110462828D01*
X165067669Y-110249834D01*
X205644543Y-110249834D01*
X206044853Y-111218658D01*
X206785443Y-111960542D01*
X207753567Y-112362542D01*
X208801834Y-112363457D01*
X209770658Y-111963147D01*
X210512542Y-111222557D01*
X210914542Y-110254433D01*
X210915457Y-109206166D01*
X210515147Y-108237342D01*
X209774557Y-107495458D01*
X208806433Y-107093458D01*
X207758166Y-107092543D01*
X206789342Y-107492853D01*
X206047458Y-108233443D01*
X205645458Y-109201567D01*
X205644543Y-110249834D01*
X165067669Y-110249834D01*
X165045607Y-110227734D01*
X164738821Y-110100345D01*
X164406637Y-110100055D01*
X164224771Y-110175200D01*
X156816991Y-110175200D01*
X156636721Y-110100345D01*
X156304537Y-110100055D01*
X155997528Y-110226908D01*
X155762434Y-110461593D01*
X155635045Y-110768379D01*
X155634995Y-110825093D01*
X154118902Y-109309000D01*
X202155700Y-109309000D01*
X202446539Y-109251148D01*
X202693101Y-109086401D01*
X206872784Y-104906718D01*
X206965910Y-105051441D01*
X207178110Y-105196431D01*
X207430000Y-105247440D01*
X209130000Y-105247440D01*
X209365317Y-105203162D01*
X209581441Y-105064090D01*
X209726431Y-104851890D01*
X209777440Y-104600000D01*
X209777440Y-102600000D01*
X209733162Y-102364683D01*
X209594090Y-102148559D01*
X209381890Y-102003569D01*
X209130000Y-101952560D01*
X207430000Y-101952560D01*
X207194683Y-101996838D01*
X206978559Y-102135910D01*
X206833569Y-102348110D01*
X206782560Y-102600000D01*
X206782560Y-102918767D01*
X206567299Y-103062599D01*
X201840898Y-107789000D01*
X191808028Y-107789000D01*
X191907701Y-107722401D01*
X194126331Y-105503771D01*
X194290839Y-105471048D01*
X194537401Y-105306301D01*
X194702148Y-105059739D01*
X194719557Y-104972219D01*
X194758234Y-104964526D01*
X195244415Y-104639670D01*
X195569271Y-104153489D01*
X195683345Y-103580000D01*
X195597932Y-103150600D01*
X200500498Y-103150600D01*
X201487299Y-104137401D01*
X201702560Y-104281233D01*
X201702560Y-104600000D01*
X201746838Y-104835317D01*
X201885910Y-105051441D01*
X202098110Y-105196431D01*
X202350000Y-105247440D01*
X204050000Y-105247440D01*
X204285317Y-105203162D01*
X204501441Y-105064090D01*
X204646431Y-104851890D01*
X204697440Y-104600000D01*
X204697440Y-102600000D01*
X204653162Y-102364683D01*
X204514090Y-102148559D01*
X204301890Y-102003569D01*
X204050000Y-101952560D01*
X202350000Y-101952560D01*
X202114683Y-101996838D01*
X201898559Y-102135910D01*
X201791743Y-102292241D01*
X201352701Y-101853199D01*
X201106139Y-101688452D01*
X200815300Y-101630600D01*
X195557838Y-101630600D01*
X195569271Y-101613489D01*
X195683345Y-101040000D01*
X195569271Y-100466511D01*
X195244415Y-99980330D01*
X195222220Y-99965500D01*
X195375698Y-99901927D01*
X195554327Y-99723299D01*
X195651000Y-99489910D01*
X195651000Y-98785750D01*
X195492250Y-98627000D01*
X194127000Y-98627000D01*
X194127000Y-98647000D01*
X193873000Y-98647000D01*
X193873000Y-98627000D01*
X192507750Y-98627000D01*
X192349000Y-98785750D01*
X192349000Y-99091100D01*
X191841202Y-99091100D01*
X191712701Y-98962599D01*
X191497440Y-98818767D01*
X191497440Y-98500000D01*
X191453162Y-98264683D01*
X191314090Y-98048559D01*
X191101890Y-97903569D01*
X190850000Y-97852560D01*
X189150000Y-97852560D01*
X188914683Y-97896838D01*
X188698559Y-98035910D01*
X188591743Y-98192241D01*
X187909592Y-97510090D01*
X192349000Y-97510090D01*
X192349000Y-98214250D01*
X192507750Y-98373000D01*
X193873000Y-98373000D01*
X193873000Y-97160150D01*
X194127000Y-97160150D01*
X194127000Y-98373000D01*
X195492250Y-98373000D01*
X195651000Y-98214250D01*
X195651000Y-97510090D01*
X195554327Y-97276701D01*
X195375698Y-97098073D01*
X195142309Y-97001400D01*
X194285750Y-97001400D01*
X194127000Y-97160150D01*
X193873000Y-97160150D01*
X193714250Y-97001400D01*
X192857691Y-97001400D01*
X192624302Y-97098073D01*
X192445673Y-97276701D01*
X192349000Y-97510090D01*
X187909592Y-97510090D01*
X186185252Y-95785750D01*
X188515000Y-95785750D01*
X188515000Y-96626309D01*
X188611673Y-96859698D01*
X188790301Y-97038327D01*
X189023690Y-97135000D01*
X189714250Y-97135000D01*
X189873000Y-96976250D01*
X189873000Y-95627000D01*
X190127000Y-95627000D01*
X190127000Y-96976250D01*
X190285750Y-97135000D01*
X190976310Y-97135000D01*
X191209699Y-97038327D01*
X191388327Y-96859698D01*
X191485000Y-96626309D01*
X191485000Y-95785750D01*
X191384860Y-95685610D01*
X201664570Y-95685610D01*
X201664570Y-96324999D01*
X201761243Y-96558388D01*
X201939871Y-96737017D01*
X202173260Y-96833690D01*
X202914250Y-96833690D01*
X203073000Y-96674940D01*
X203073000Y-95526860D01*
X203327000Y-95526860D01*
X203327000Y-96674940D01*
X203485750Y-96833690D01*
X204226740Y-96833690D01*
X204460129Y-96737017D01*
X204638757Y-96558388D01*
X204735430Y-96324999D01*
X204735430Y-95685610D01*
X204576680Y-95526860D01*
X203327000Y-95526860D01*
X203073000Y-95526860D01*
X201823320Y-95526860D01*
X201664570Y-95685610D01*
X191384860Y-95685610D01*
X191326250Y-95627000D01*
X190127000Y-95627000D01*
X189873000Y-95627000D01*
X188673750Y-95627000D01*
X188515000Y-95785750D01*
X186185252Y-95785750D01*
X184773193Y-94373691D01*
X188515000Y-94373691D01*
X188515000Y-95214250D01*
X188673750Y-95373000D01*
X189873000Y-95373000D01*
X189873000Y-94023750D01*
X190127000Y-94023750D01*
X190127000Y-95373000D01*
X191326250Y-95373000D01*
X191485000Y-95214250D01*
X191485000Y-94373691D01*
X191388327Y-94140302D01*
X191209699Y-93961673D01*
X190976310Y-93865000D01*
X190285750Y-93865000D01*
X190127000Y-94023750D01*
X189873000Y-94023750D01*
X189714250Y-93865000D01*
X189023690Y-93865000D01*
X188790301Y-93961673D01*
X188611673Y-94140302D01*
X188515000Y-94373691D01*
X184773193Y-94373691D01*
X182160812Y-91761310D01*
X201652130Y-91761310D01*
X201652130Y-93358970D01*
X201696408Y-93594287D01*
X201835480Y-93810411D01*
X202047680Y-93955401D01*
X202149259Y-93975971D01*
X201939871Y-94062703D01*
X201761243Y-94241332D01*
X201664570Y-94474721D01*
X201664570Y-95114110D01*
X201823320Y-95272860D01*
X203073000Y-95272860D01*
X203073000Y-95252860D01*
X203327000Y-95252860D01*
X203327000Y-95272860D01*
X204576680Y-95272860D01*
X204735430Y-95114110D01*
X204735430Y-94923900D01*
X206744570Y-94923900D01*
X206744570Y-95114110D01*
X206903320Y-95272860D01*
X208153000Y-95272860D01*
X208153000Y-95252860D01*
X208407000Y-95252860D01*
X208407000Y-95272860D01*
X208427000Y-95272860D01*
X208427000Y-95526860D01*
X208407000Y-95526860D01*
X208407000Y-95546860D01*
X208153000Y-95546860D01*
X208153000Y-95526860D01*
X206903320Y-95526860D01*
X206744570Y-95685610D01*
X206744570Y-96155927D01*
X204607216Y-98293281D01*
X204514090Y-98148559D01*
X204301890Y-98003569D01*
X204050000Y-97952560D01*
X202350000Y-97952560D01*
X202114683Y-97996838D01*
X201898559Y-98135910D01*
X201753569Y-98348110D01*
X201702560Y-98600000D01*
X201702560Y-100600000D01*
X201746838Y-100835317D01*
X201885910Y-101051441D01*
X202098110Y-101196431D01*
X202350000Y-101247440D01*
X204050000Y-101247440D01*
X204285317Y-101203162D01*
X204501441Y-101064090D01*
X204646431Y-100851890D01*
X204697440Y-100600000D01*
X204697440Y-100281233D01*
X204912701Y-100137401D01*
X207766003Y-97284100D01*
X209196100Y-97284100D01*
X209196100Y-97965946D01*
X209130000Y-97952560D01*
X207430000Y-97952560D01*
X207194683Y-97996838D01*
X206978559Y-98135910D01*
X206833569Y-98348110D01*
X206782560Y-98600000D01*
X206782560Y-100600000D01*
X206826838Y-100835317D01*
X206965910Y-101051441D01*
X207178110Y-101196431D01*
X207430000Y-101247440D01*
X209130000Y-101247440D01*
X209365317Y-101203162D01*
X209581441Y-101064090D01*
X209726431Y-100851890D01*
X209777440Y-100600000D01*
X209777440Y-100281233D01*
X209992701Y-100137401D01*
X210493501Y-99636601D01*
X210658248Y-99390039D01*
X210716100Y-99099200D01*
X210716100Y-94161300D01*
X210688739Y-94023750D01*
X210658248Y-93870460D01*
X210493501Y-93623899D01*
X210016401Y-93146799D01*
X209827870Y-93020827D01*
X209827870Y-91761310D01*
X209783592Y-91525993D01*
X209644520Y-91309869D01*
X209432320Y-91164879D01*
X209180430Y-91113870D01*
X207379570Y-91113870D01*
X207144253Y-91158148D01*
X206928129Y-91297220D01*
X206783139Y-91509420D01*
X206732130Y-91761310D01*
X206732130Y-93358970D01*
X206740584Y-93403900D01*
X204738771Y-93403900D01*
X204747870Y-93358970D01*
X204747870Y-91761310D01*
X204703592Y-91525993D01*
X204564520Y-91309869D01*
X204352320Y-91164879D01*
X204100430Y-91113870D01*
X202299570Y-91113870D01*
X202064253Y-91158148D01*
X201848129Y-91297220D01*
X201703139Y-91509420D01*
X201652130Y-91761310D01*
X182160812Y-91761310D01*
X176330602Y-85931100D01*
X201601968Y-85931100D01*
X201516655Y-86360000D01*
X201630729Y-86933489D01*
X201955585Y-87419670D01*
X202441766Y-87744526D01*
X203015255Y-87858600D01*
X203384745Y-87858600D01*
X203958234Y-87744526D01*
X204444415Y-87419670D01*
X204769271Y-86933489D01*
X204883345Y-86360000D01*
X204769271Y-85786511D01*
X204444415Y-85300330D01*
X204129634Y-85090000D01*
X204444415Y-84879670D01*
X204769271Y-84393489D01*
X204883345Y-83820000D01*
X204769271Y-83246511D01*
X204444415Y-82760330D01*
X204129634Y-82550000D01*
X204444415Y-82339670D01*
X204769271Y-81853489D01*
X204883345Y-81280000D01*
X204769271Y-80706511D01*
X204444415Y-80220330D01*
X204422220Y-80205500D01*
X204575698Y-80141927D01*
X204754327Y-79963299D01*
X204851000Y-79729910D01*
X204851000Y-79025750D01*
X204692250Y-78867000D01*
X203327000Y-78867000D01*
X203327000Y-78887000D01*
X203073000Y-78887000D01*
X203073000Y-78867000D01*
X201707750Y-78867000D01*
X201549000Y-79025750D01*
X201549000Y-79729910D01*
X201645673Y-79963299D01*
X201824302Y-80141927D01*
X201977780Y-80205500D01*
X201955585Y-80220330D01*
X201630729Y-80706511D01*
X201516655Y-81280000D01*
X201601968Y-81708900D01*
X161524977Y-81708900D01*
X161238021Y-81589745D01*
X160905837Y-81589455D01*
X160723971Y-81664600D01*
X153507440Y-81664600D01*
X153507440Y-80892800D01*
X157085609Y-80892800D01*
X157265879Y-80967655D01*
X157598063Y-80967945D01*
X157905072Y-80841092D01*
X158140166Y-80606407D01*
X158267555Y-80299621D01*
X158267845Y-79967437D01*
X158140992Y-79660428D01*
X157906307Y-79425334D01*
X157599521Y-79297945D01*
X157267337Y-79297655D01*
X157085471Y-79372800D01*
X152620000Y-79372800D01*
X152620000Y-79095500D01*
X188995398Y-79095500D01*
X189177299Y-79277401D01*
X189392560Y-79421234D01*
X189392560Y-79590000D01*
X189436838Y-79825317D01*
X189575910Y-80041441D01*
X189788110Y-80186431D01*
X190040000Y-80237440D01*
X192040000Y-80237440D01*
X192275317Y-80193162D01*
X192491441Y-80054090D01*
X192636431Y-79841890D01*
X192687440Y-79590000D01*
X192687440Y-79025750D01*
X193405000Y-79025750D01*
X193405000Y-79716310D01*
X193501673Y-79949699D01*
X193680302Y-80128327D01*
X193913691Y-80225000D01*
X194754250Y-80225000D01*
X194913000Y-80066250D01*
X194913000Y-78867000D01*
X195167000Y-78867000D01*
X195167000Y-80066250D01*
X195325750Y-80225000D01*
X196166309Y-80225000D01*
X196399698Y-80128327D01*
X196578327Y-79949699D01*
X196675000Y-79716310D01*
X196675000Y-79025750D01*
X196516250Y-78867000D01*
X195167000Y-78867000D01*
X194913000Y-78867000D01*
X193563750Y-78867000D01*
X193405000Y-79025750D01*
X192687440Y-79025750D01*
X192687440Y-77890000D01*
X192663674Y-77763690D01*
X193405000Y-77763690D01*
X193405000Y-78454250D01*
X193563750Y-78613000D01*
X194913000Y-78613000D01*
X194913000Y-77413750D01*
X195167000Y-77413750D01*
X195167000Y-78613000D01*
X196516250Y-78613000D01*
X196675000Y-78454250D01*
X196675000Y-77763690D01*
X196669367Y-77750090D01*
X201549000Y-77750090D01*
X201549000Y-78454250D01*
X201707750Y-78613000D01*
X203073000Y-78613000D01*
X203073000Y-77400150D01*
X203327000Y-77400150D01*
X203327000Y-78613000D01*
X204692250Y-78613000D01*
X204851000Y-78454250D01*
X204851000Y-77750090D01*
X204754327Y-77516701D01*
X204575698Y-77338073D01*
X204342309Y-77241400D01*
X203485750Y-77241400D01*
X203327000Y-77400150D01*
X203073000Y-77400150D01*
X202914250Y-77241400D01*
X202057691Y-77241400D01*
X201824302Y-77338073D01*
X201645673Y-77516701D01*
X201549000Y-77750090D01*
X196669367Y-77750090D01*
X196578327Y-77530301D01*
X196399698Y-77351673D01*
X196166309Y-77255000D01*
X195325750Y-77255000D01*
X195167000Y-77413750D01*
X194913000Y-77413750D01*
X194754250Y-77255000D01*
X193913691Y-77255000D01*
X193680302Y-77351673D01*
X193501673Y-77530301D01*
X193405000Y-77763690D01*
X192663674Y-77763690D01*
X192643162Y-77654683D01*
X192504090Y-77438559D01*
X192291890Y-77293569D01*
X192040000Y-77242560D01*
X190040000Y-77242560D01*
X189804683Y-77286838D01*
X189588559Y-77425910D01*
X189465272Y-77606346D01*
X189310200Y-77575500D01*
X152372491Y-77575500D01*
X152192221Y-77500645D01*
X151860037Y-77500355D01*
X151569574Y-77620372D01*
X149749401Y-75800199D01*
X149502839Y-75635452D01*
X149212000Y-75577600D01*
X146507700Y-75577600D01*
X146265114Y-75625854D01*
X146216860Y-75635452D01*
X145970299Y-75800199D01*
X145528909Y-76241589D01*
X145514090Y-76218559D01*
X145301890Y-76073569D01*
X145050000Y-76022560D01*
X143484700Y-76022560D01*
X143484700Y-71167202D01*
X144158106Y-70493796D01*
X144340839Y-70457448D01*
X144587401Y-70292701D01*
X144731233Y-70077440D01*
X145050000Y-70077440D01*
X145285317Y-70033162D01*
X145501441Y-69894090D01*
X145646431Y-69681890D01*
X145697440Y-69430000D01*
X145697440Y-67730000D01*
X145653162Y-67494683D01*
X145514090Y-67278559D01*
X145357759Y-67171743D01*
X147524974Y-65004528D01*
X147610839Y-64987448D01*
X147857401Y-64822701D01*
X148001233Y-64607440D01*
X148120000Y-64607440D01*
X148355317Y-64563162D01*
X148571441Y-64424090D01*
X148716431Y-64211890D01*
X148767440Y-63960000D01*
X148767440Y-63720000D01*
X151572998Y-63720000D01*
X148210438Y-67082560D01*
X147050000Y-67082560D01*
X146814683Y-67126838D01*
X146598559Y-67265910D01*
X146453569Y-67478110D01*
X146402560Y-67730000D01*
X146402560Y-69430000D01*
X146446838Y-69665317D01*
X146585910Y-69881441D01*
X146798110Y-70026431D01*
X147050000Y-70077440D01*
X149050000Y-70077440D01*
X149285317Y-70033162D01*
X149501441Y-69894090D01*
X149646431Y-69681890D01*
X149663723Y-69596500D01*
X150226209Y-69596500D01*
X150406479Y-69671355D01*
X150738663Y-69671645D01*
X150757560Y-69663837D01*
X150757560Y-69725000D01*
X150801838Y-69960317D01*
X150940910Y-70176441D01*
X151153110Y-70321431D01*
X151405000Y-70372440D01*
X152405000Y-70372440D01*
X152640317Y-70328162D01*
X152856441Y-70189090D01*
X153001431Y-69976890D01*
X153052440Y-69725000D01*
X153052440Y-68175000D01*
X153008162Y-67939683D01*
X152869090Y-67723559D01*
X152656890Y-67578569D01*
X152459297Y-67538555D01*
X152501431Y-67476890D01*
X152552440Y-67225000D01*
X152552440Y-65825000D01*
X152508162Y-65589683D01*
X152500980Y-65578522D01*
X152519803Y-65559700D01*
X162407560Y-65559700D01*
X162407560Y-66227560D01*
X162405000Y-66227560D01*
X162169683Y-66271838D01*
X161953559Y-66410910D01*
X161808569Y-66623110D01*
X161757560Y-66875000D01*
X161757560Y-67875000D01*
X161801838Y-68110317D01*
X161940910Y-68326441D01*
X162153110Y-68471431D01*
X162405000Y-68522440D01*
X163855000Y-68522440D01*
X164090317Y-68478162D01*
X164306441Y-68339090D01*
X164451431Y-68126890D01*
X164502440Y-67875000D01*
X164502440Y-66875000D01*
X164478056Y-66745411D01*
X164502440Y-66625000D01*
X164502440Y-65125000D01*
X164458162Y-64889683D01*
X164319090Y-64673559D01*
X164169590Y-64571410D01*
X164157148Y-64508861D01*
X163992401Y-64262299D01*
X163965000Y-64243990D01*
X163965000Y-59651742D01*
X164090317Y-59628162D01*
X164306441Y-59489090D01*
X164451431Y-59276890D01*
X164502440Y-59025000D01*
X164502440Y-57525000D01*
X164458162Y-57289683D01*
X164319090Y-57073559D01*
X164106890Y-56928569D01*
X163891121Y-56884875D01*
X163835211Y-56801200D01*
X191545098Y-56801200D01*
X196241299Y-61497401D01*
X196456560Y-61641233D01*
X196456560Y-61976000D01*
X196500838Y-62211317D01*
X196639910Y-62427441D01*
X196852110Y-62572431D01*
X197104000Y-62623440D01*
X199136000Y-62623440D01*
X199371317Y-62579162D01*
X199587441Y-62440090D01*
X199698840Y-62277052D01*
X199795182Y-62366385D01*
X200277056Y-62565975D01*
X200533000Y-62446836D01*
X200533000Y-61087000D01*
X200787000Y-61087000D01*
X200787000Y-62446836D01*
X201042944Y-62565975D01*
X201524818Y-62366385D01*
X201997188Y-61928379D01*
X202265983Y-61342946D01*
X202147367Y-61087000D01*
X200787000Y-61087000D01*
X200533000Y-61087000D01*
X200513000Y-61087000D01*
X200513000Y-60833000D01*
X200533000Y-60833000D01*
X200533000Y-59473164D01*
X200787000Y-59473164D01*
X200787000Y-60833000D01*
X202147367Y-60833000D01*
X202265983Y-60577054D01*
X201997188Y-59991621D01*
X201524818Y-59553615D01*
X201274258Y-59449834D01*
X205644543Y-59449834D01*
X206044853Y-60418658D01*
X206785443Y-61160542D01*
X207753567Y-61562542D01*
X208801834Y-61563457D01*
X209770658Y-61163147D01*
X210512542Y-60422557D01*
X210914542Y-59454433D01*
X210915457Y-58406166D01*
X210515147Y-57437342D01*
X209774557Y-56695458D01*
X208806433Y-56293458D01*
X207758166Y-56292543D01*
X206789342Y-56692853D01*
X206047458Y-57433443D01*
X205645458Y-58401567D01*
X205644543Y-59449834D01*
X201274258Y-59449834D01*
X201042944Y-59354025D01*
X200787000Y-59473164D01*
X200533000Y-59473164D01*
X200277056Y-59354025D01*
X199795182Y-59553615D01*
X199697602Y-59644097D01*
X199600090Y-59492559D01*
X199387890Y-59347569D01*
X199136000Y-59296560D01*
X197104000Y-59296560D01*
X196868683Y-59340838D01*
X196652559Y-59479910D01*
X196539248Y-59645746D01*
X192397301Y-55503799D01*
X192150739Y-55339052D01*
X191859900Y-55281200D01*
X144302100Y-55281200D01*
X144011261Y-55339052D01*
X143764699Y-55503799D01*
X141615216Y-57653282D01*
X141522090Y-57508559D01*
X141309890Y-57363569D01*
X141058000Y-57312560D01*
X139358000Y-57312560D01*
X139122683Y-57356838D01*
X138906559Y-57495910D01*
X138761569Y-57708110D01*
X138710560Y-57960000D01*
X138710560Y-58278767D01*
X138495299Y-58422599D01*
X137929798Y-58988100D01*
X135867440Y-58988100D01*
X135867440Y-58636000D01*
X135823162Y-58400683D01*
X135684090Y-58184559D01*
X135471890Y-58039569D01*
X135220000Y-57988560D01*
X133040000Y-57988560D01*
X132804683Y-58032838D01*
X132588559Y-58171910D01*
X132443569Y-58384110D01*
X132392560Y-58636000D01*
X132392560Y-60236000D01*
X132436838Y-60471317D01*
X132575910Y-60687441D01*
X132788110Y-60832431D01*
X132826061Y-60840116D01*
X132761352Y-60936961D01*
X132703500Y-61227800D01*
X132703500Y-64084560D01*
X131048000Y-64084560D01*
X130812683Y-64128838D01*
X130596559Y-64267910D01*
X130451569Y-64480110D01*
X130400560Y-64732000D01*
X130400560Y-66332000D01*
X130444838Y-66567317D01*
X130583910Y-66783441D01*
X130796110Y-66928431D01*
X131048000Y-66979440D01*
X133048000Y-66979440D01*
X133283317Y-66935162D01*
X133499441Y-66796090D01*
X133644431Y-66583890D01*
X133693752Y-66340333D01*
X133935872Y-66240292D01*
X134170966Y-66005607D01*
X134298355Y-65698821D01*
X134298645Y-65366637D01*
X134223500Y-65184771D01*
X134223500Y-61542602D01*
X134667401Y-61098701D01*
X134811234Y-60883440D01*
X135220000Y-60883440D01*
X135455317Y-60839162D01*
X135671441Y-60700090D01*
X135802622Y-60508100D01*
X138244600Y-60508100D01*
X138535439Y-60450248D01*
X138782001Y-60285501D01*
X138800784Y-60266718D01*
X138893910Y-60411441D01*
X139106110Y-60556431D01*
X139358000Y-60607440D01*
X141058000Y-60607440D01*
X141293317Y-60563162D01*
X141509441Y-60424090D01*
X141654431Y-60211890D01*
X141705440Y-59960000D01*
X141705440Y-59641233D01*
X141920701Y-59497401D01*
X142172352Y-59245750D01*
X145885000Y-59245750D01*
X145885000Y-60086309D01*
X145981673Y-60319698D01*
X146160301Y-60498327D01*
X146393690Y-60595000D01*
X147034250Y-60595000D01*
X147193000Y-60436250D01*
X147193000Y-59087000D01*
X147447000Y-59087000D01*
X147447000Y-60436250D01*
X147605750Y-60595000D01*
X148246310Y-60595000D01*
X148479699Y-60498327D01*
X148658327Y-60319698D01*
X148755000Y-60086309D01*
X148755000Y-59245750D01*
X148596250Y-59087000D01*
X147447000Y-59087000D01*
X147193000Y-59087000D01*
X146043750Y-59087000D01*
X145885000Y-59245750D01*
X142172352Y-59245750D01*
X143584411Y-57833691D01*
X145885000Y-57833691D01*
X145885000Y-58674250D01*
X146043750Y-58833000D01*
X147193000Y-58833000D01*
X147193000Y-57483750D01*
X147447000Y-57483750D01*
X147447000Y-58833000D01*
X148596250Y-58833000D01*
X148755000Y-58674250D01*
X148755000Y-57833691D01*
X148658327Y-57600302D01*
X148479699Y-57421673D01*
X148246310Y-57325000D01*
X147605750Y-57325000D01*
X147447000Y-57483750D01*
X147193000Y-57483750D01*
X147034250Y-57325000D01*
X146393690Y-57325000D01*
X146160301Y-57421673D01*
X145981673Y-57600302D01*
X145885000Y-57833691D01*
X143584411Y-57833691D01*
X144616902Y-56801200D01*
X152159078Y-56801200D01*
X152108056Y-56877560D01*
X151105000Y-56877560D01*
X150869683Y-56921838D01*
X150653559Y-57060910D01*
X150508569Y-57273110D01*
X150457560Y-57525000D01*
X150457560Y-59025000D01*
X150501838Y-59260317D01*
X150640910Y-59476441D01*
X150853110Y-59621431D01*
X151105000Y-59672440D01*
X152605000Y-59672440D01*
X152840317Y-59628162D01*
X153056441Y-59489090D01*
X153201431Y-59276890D01*
X153252440Y-59025000D01*
X153252440Y-58956233D01*
X153307560Y-58919403D01*
X153307560Y-59025000D01*
X153351838Y-59260317D01*
X153490910Y-59476441D01*
X153703110Y-59621431D01*
X153955000Y-59672440D01*
X154655000Y-59672440D01*
X154862342Y-59633426D01*
X155055000Y-59672440D01*
X155493687Y-59672440D01*
X155596708Y-59921772D01*
X155777559Y-60102939D01*
X153680498Y-62200000D01*
X148767440Y-62200000D01*
X148767440Y-61960000D01*
X148723162Y-61724683D01*
X148584090Y-61508559D01*
X148371890Y-61363569D01*
X148120000Y-61312560D01*
X146520000Y-61312560D01*
X146284683Y-61356838D01*
X146068559Y-61495910D01*
X145923569Y-61708110D01*
X145872560Y-61960000D01*
X145872560Y-62200000D01*
X141705440Y-62200000D01*
X141705440Y-61960000D01*
X141661162Y-61724683D01*
X141522090Y-61508559D01*
X141309890Y-61363569D01*
X141058000Y-61312560D01*
X139358000Y-61312560D01*
X139122683Y-61356838D01*
X138906559Y-61495910D01*
X138761569Y-61708110D01*
X138710560Y-61960000D01*
X138710560Y-63960000D01*
X138754838Y-64195317D01*
X138893910Y-64411441D01*
X139106110Y-64556431D01*
X139358000Y-64607440D01*
X141058000Y-64607440D01*
X141293317Y-64563162D01*
X141509441Y-64424090D01*
X141654431Y-64211890D01*
X141705440Y-63960000D01*
X141705440Y-63720000D01*
X145872560Y-63720000D01*
X145872560Y-63960000D01*
X145916838Y-64195317D01*
X146021669Y-64358229D01*
X143512599Y-66867299D01*
X143368767Y-67082560D01*
X143050000Y-67082560D01*
X142814683Y-67126838D01*
X142598559Y-67265910D01*
X142453569Y-67478110D01*
X142402560Y-67730000D01*
X142402560Y-69430000D01*
X142446838Y-69665317D01*
X142585910Y-69881441D01*
X142606671Y-69895627D01*
X142477698Y-70024600D01*
X124082100Y-70024600D01*
X124067970Y-70027411D01*
X123875440Y-69898767D01*
X123875440Y-69580000D01*
X123831162Y-69344683D01*
X123692090Y-69128559D01*
X123479890Y-68983569D01*
X123228000Y-68932560D01*
X121628000Y-68932560D01*
X121392683Y-68976838D01*
X121176559Y-69115910D01*
X121031569Y-69328110D01*
X120980560Y-69580000D01*
X120980560Y-71580000D01*
X121024838Y-71815317D01*
X121163910Y-72031441D01*
X121376110Y-72176431D01*
X121628000Y-72227440D01*
X123160000Y-72227440D01*
X123160000Y-75972560D01*
X122920000Y-75972560D01*
X122684683Y-76016838D01*
X122468559Y-76155910D01*
X122323569Y-76368110D01*
X122272560Y-76620000D01*
X122272560Y-77885300D01*
X121567440Y-77885300D01*
X121567440Y-76620000D01*
X121523162Y-76384683D01*
X121384090Y-76168559D01*
X121171890Y-76023569D01*
X120920000Y-75972560D01*
X118920000Y-75972560D01*
X118684683Y-76016838D01*
X118468559Y-76155910D01*
X118323569Y-76368110D01*
X118272560Y-76620000D01*
X118272560Y-78320000D01*
X118316838Y-78555317D01*
X118455910Y-78771441D01*
X118668110Y-78916431D01*
X118920000Y-78967440D01*
X119238767Y-78967440D01*
X119382599Y-79182701D01*
X119629161Y-79347448D01*
X119920000Y-79405300D01*
X124216298Y-79405300D01*
X124995997Y-80185000D01*
X124745750Y-80185000D01*
X124587000Y-80343750D01*
X124587000Y-81693000D01*
X125736250Y-81693000D01*
X125895000Y-81534250D01*
X125895000Y-81123664D01*
X126087879Y-81203755D01*
X126420063Y-81204045D01*
X126727072Y-81077192D01*
X126780000Y-81024356D01*
X126780000Y-83550498D01*
X125817216Y-84513282D01*
X125724090Y-84368559D01*
X125511890Y-84223569D01*
X125260000Y-84172560D01*
X123660000Y-84172560D01*
X123424683Y-84216838D01*
X123208559Y-84355910D01*
X123063569Y-84568110D01*
X123012560Y-84820000D01*
X123012560Y-85060000D01*
X120827440Y-85060000D01*
X120827440Y-84820000D01*
X120783162Y-84584683D01*
X120644090Y-84368559D01*
X120431890Y-84223569D01*
X120180000Y-84172560D01*
X118580000Y-84172560D01*
X118344683Y-84216838D01*
X118128559Y-84355910D01*
X117983569Y-84568110D01*
X117932560Y-84820000D01*
X117932560Y-86820000D01*
X117976838Y-87055317D01*
X118115910Y-87271441D01*
X118328110Y-87416431D01*
X118580000Y-87467440D01*
X120180000Y-87467440D01*
X120415317Y-87423162D01*
X120631441Y-87284090D01*
X120776431Y-87071890D01*
X120827440Y-86820000D01*
X120827440Y-86580000D01*
X123012560Y-86580000D01*
X123012560Y-86820000D01*
X123056838Y-87055317D01*
X123195910Y-87271441D01*
X123408110Y-87416431D01*
X123660000Y-87467440D01*
X123778767Y-87467440D01*
X123922599Y-87682701D01*
X124105633Y-87805000D01*
X123475750Y-87805000D01*
X123317000Y-87963750D01*
X123317000Y-89313000D01*
X124466250Y-89313000D01*
X124625000Y-89154250D01*
X124625000Y-88313691D01*
X124528327Y-88080302D01*
X124349699Y-87901673D01*
X124264639Y-87866440D01*
X124460000Y-87905300D01*
X124642098Y-87905300D01*
X125259549Y-88522751D01*
X125089829Y-88692471D01*
X124954744Y-88890174D01*
X124900260Y-89141336D01*
X124947784Y-89393907D01*
X125089829Y-89608089D01*
X126291911Y-90810171D01*
X126489614Y-90945256D01*
X126740776Y-90999740D01*
X126993347Y-90952216D01*
X127207529Y-90810171D01*
X127432920Y-90584780D01*
X127686900Y-90635300D01*
X127977739Y-90577448D01*
X128224301Y-90412701D01*
X128399402Y-90237600D01*
X128627709Y-90237600D01*
X128807979Y-90312455D01*
X129140163Y-90312745D01*
X129322029Y-90237600D01*
X131435974Y-90237600D01*
X131458432Y-90271463D01*
X132519092Y-91332123D01*
X132679329Y-91441608D01*
X132519092Y-91547877D01*
X131458432Y-92608537D01*
X131323347Y-92806240D01*
X131268863Y-93057402D01*
X131279283Y-93112781D01*
X131124532Y-92958030D01*
X131049992Y-92777628D01*
X130815307Y-92542534D01*
X130508521Y-92415145D01*
X130176337Y-92414855D01*
X129994471Y-92490000D01*
X129717440Y-92490000D01*
X129717440Y-92250000D01*
X129673162Y-92014683D01*
X129534090Y-91798559D01*
X129321890Y-91653569D01*
X129070000Y-91602560D01*
X127470000Y-91602560D01*
X127234683Y-91646838D01*
X127018559Y-91785910D01*
X126873569Y-91998110D01*
X126822560Y-92250000D01*
X126822560Y-94250000D01*
X126866838Y-94485317D01*
X127005910Y-94701441D01*
X127218110Y-94846431D01*
X127470000Y-94897440D01*
X129070000Y-94897440D01*
X129305317Y-94853162D01*
X129521441Y-94714090D01*
X129666431Y-94501890D01*
X129717440Y-94250000D01*
X129717440Y-94010000D01*
X129994609Y-94010000D01*
X130049827Y-94032929D01*
X131724499Y-95707601D01*
X131971061Y-95872348D01*
X132261900Y-95930200D01*
X133244998Y-95930200D01*
X134259098Y-96944300D01*
X133299291Y-96944300D01*
X133119021Y-96869445D01*
X132786837Y-96869155D01*
X132479828Y-96996008D01*
X132244734Y-97230693D01*
X132145489Y-97469700D01*
X131459000Y-97469700D01*
X131168161Y-97527552D01*
X130921599Y-97692299D01*
X130798498Y-97815400D01*
X129705000Y-97815400D01*
X129705000Y-97535750D01*
X129546250Y-97377000D01*
X128397000Y-97377000D01*
X128397000Y-97397000D01*
X128143000Y-97397000D01*
X128143000Y-97377000D01*
X126993750Y-97377000D01*
X126835000Y-97535750D01*
X126835000Y-97815400D01*
X123655502Y-97815400D01*
X122362701Y-96522599D01*
X122147440Y-96378767D01*
X122147440Y-96123691D01*
X126835000Y-96123691D01*
X126835000Y-96964250D01*
X126993750Y-97123000D01*
X128143000Y-97123000D01*
X128143000Y-95773750D01*
X128397000Y-95773750D01*
X128397000Y-97123000D01*
X129546250Y-97123000D01*
X129705000Y-96964250D01*
X129705000Y-96123691D01*
X129608327Y-95890302D01*
X129429699Y-95711673D01*
X129196310Y-95615000D01*
X128555750Y-95615000D01*
X128397000Y-95773750D01*
X128143000Y-95773750D01*
X127984250Y-95615000D01*
X127343690Y-95615000D01*
X127110301Y-95711673D01*
X126931673Y-95890302D01*
X126835000Y-96123691D01*
X122147440Y-96123691D01*
X122147440Y-96060000D01*
X122103162Y-95824683D01*
X121964090Y-95608559D01*
X121751890Y-95463569D01*
X121500000Y-95412560D01*
X121049042Y-95412560D01*
X121786750Y-94674852D01*
X121786838Y-94675317D01*
X121925910Y-94891441D01*
X122138110Y-95036431D01*
X122390000Y-95087440D01*
X123990000Y-95087440D01*
X124225317Y-95043162D01*
X124441441Y-94904090D01*
X124586431Y-94691890D01*
X124637440Y-94440000D01*
X124637440Y-92440000D01*
X124593162Y-92204683D01*
X124454090Y-91988559D01*
X124241890Y-91843569D01*
X123990000Y-91792560D01*
X122390000Y-91792560D01*
X122154683Y-91836838D01*
X121938559Y-91975910D01*
X121793569Y-92188110D01*
X121742560Y-92440000D01*
X121742560Y-92720626D01*
X121655960Y-92737852D01*
X121409399Y-92902599D01*
X118937299Y-95374699D01*
X118772552Y-95621261D01*
X118714700Y-95912100D01*
X118714700Y-101060000D01*
X118772552Y-101350839D01*
X118937299Y-101597401D01*
X119152560Y-101741233D01*
X119152560Y-102060000D01*
X119196838Y-102295317D01*
X119335910Y-102511441D01*
X119548110Y-102656431D01*
X119800000Y-102707440D01*
X121500000Y-102707440D01*
X121735317Y-102663162D01*
X121951441Y-102524090D01*
X122058257Y-102367759D01*
X123457199Y-103766701D01*
X123703760Y-103931448D01*
X123752014Y-103941046D01*
X123994600Y-103989300D01*
X126174764Y-103989300D01*
X126184488Y-104012834D01*
X126573755Y-104402780D01*
X127082617Y-104614078D01*
X127633604Y-104614559D01*
X128142834Y-104404150D01*
X128532780Y-104014883D01*
X128744078Y-103506021D01*
X128744559Y-102955034D01*
X128534150Y-102445804D01*
X128144883Y-102055858D01*
X127636021Y-101844560D01*
X127085034Y-101844079D01*
X126575804Y-102054488D01*
X126185858Y-102443755D01*
X126175251Y-102469300D01*
X124309402Y-102469300D01*
X122362701Y-100522599D01*
X122147440Y-100378767D01*
X122147440Y-100060000D01*
X122103162Y-99824683D01*
X121964090Y-99608559D01*
X121751890Y-99463569D01*
X121500000Y-99412560D01*
X120234700Y-99412560D01*
X120234700Y-98707440D01*
X121500000Y-98707440D01*
X121735317Y-98663162D01*
X121951441Y-98524090D01*
X122058257Y-98367759D01*
X122803299Y-99112801D01*
X123049860Y-99277548D01*
X123340700Y-99335400D01*
X131113300Y-99335400D01*
X131404139Y-99277548D01*
X131650701Y-99112801D01*
X131773802Y-98989700D01*
X132479804Y-98989700D01*
X132578008Y-99227372D01*
X132812693Y-99462466D01*
X133119479Y-99589855D01*
X133451663Y-99590145D01*
X133633529Y-99515000D01*
X133709891Y-99515000D01*
X133709655Y-99784763D01*
X133836508Y-100091772D01*
X134071193Y-100326866D01*
X134303266Y-100423232D01*
X133638199Y-101088299D01*
X133473452Y-101334861D01*
X133415600Y-101625700D01*
X133415600Y-106752000D01*
X133473452Y-107042839D01*
X133638199Y-107289401D01*
X135448699Y-109099901D01*
X135695261Y-109264648D01*
X135986100Y-109322500D01*
X137735198Y-109322500D01*
X138725258Y-110312560D01*
X137970000Y-110312560D01*
X137734683Y-110356838D01*
X137518559Y-110495910D01*
X137373569Y-110708110D01*
X137322560Y-110960000D01*
X137322560Y-111000000D01*
X136204892Y-111000000D01*
X136204849Y-110999971D01*
X136204801Y-110999899D01*
X136204797Y-110999897D01*
X136204795Y-110999893D01*
X132185007Y-106980187D01*
X132194759Y-106956702D01*
X132195240Y-106405715D01*
X131984831Y-105896485D01*
X131595564Y-105506539D01*
X131086702Y-105295241D01*
X130535715Y-105294760D01*
X130026485Y-105505169D01*
X129636539Y-105894436D01*
X129425241Y-106403298D01*
X129424760Y-106954285D01*
X129635169Y-107463515D01*
X130024436Y-107853461D01*
X130533298Y-108064759D01*
X131084285Y-108065240D01*
X131109879Y-108054665D01*
X134587846Y-111532560D01*
X134350000Y-111532560D01*
X134114683Y-111576838D01*
X133898559Y-111715910D01*
X133753569Y-111928110D01*
X133702560Y-112180000D01*
X133702560Y-113797993D01*
X133613821Y-113761145D01*
X133281637Y-113760855D01*
X132997440Y-113878282D01*
X132997440Y-112180000D01*
X132953162Y-111944683D01*
X132814090Y-111728559D01*
X132601890Y-111583569D01*
X132491623Y-111561239D01*
X132381792Y-111295428D01*
X132147107Y-111060334D01*
X131840321Y-110932945D01*
X131508137Y-110932655D01*
X131201128Y-111059508D01*
X131120056Y-111140439D01*
X131059161Y-111152552D01*
X130812599Y-111317299D01*
X130668767Y-111532560D01*
X130350000Y-111532560D01*
X130114683Y-111576838D01*
X129898559Y-111715910D01*
X129753569Y-111928110D01*
X129702560Y-112180000D01*
X129702560Y-113880000D01*
X129746838Y-114115317D01*
X129885910Y-114331441D01*
X130098110Y-114476431D01*
X130350000Y-114527440D01*
X132350000Y-114527440D01*
X132585317Y-114483162D01*
X132612113Y-114465919D01*
X132611889Y-114722808D01*
X132547028Y-114749608D01*
X132311934Y-114984293D01*
X132184545Y-115291079D01*
X132184255Y-115623263D01*
X132311108Y-115930272D01*
X132530026Y-116149572D01*
X131435000Y-117244598D01*
X131435000Y-116500000D01*
X131382857Y-116237862D01*
X131234368Y-116015632D01*
X131100166Y-115925961D01*
X131088553Y-115908965D01*
X131046159Y-115881685D01*
X131029097Y-115878475D01*
X131012138Y-115867143D01*
X130750000Y-115815000D01*
X78685000Y-115815000D01*
X78685000Y-112789834D01*
X81184543Y-112789834D01*
X81584853Y-113758658D01*
X82325443Y-114500542D01*
X83293567Y-114902542D01*
X84341834Y-114903457D01*
X85310658Y-114503147D01*
X86052542Y-113762557D01*
X86454542Y-112794433D01*
X86455457Y-111746166D01*
X86055147Y-110777342D01*
X85314557Y-110035458D01*
X84346433Y-109633458D01*
X83298166Y-109632543D01*
X82329342Y-110032853D01*
X81587458Y-110773443D01*
X81185458Y-111741567D01*
X81184543Y-112789834D01*
X78685000Y-112789834D01*
X78685000Y-89725750D01*
X121755000Y-89725750D01*
X121755000Y-90566309D01*
X121851673Y-90799698D01*
X122030301Y-90978327D01*
X122263690Y-91075000D01*
X122904250Y-91075000D01*
X123063000Y-90916250D01*
X123063000Y-89567000D01*
X123317000Y-89567000D01*
X123317000Y-90916250D01*
X123475750Y-91075000D01*
X124116310Y-91075000D01*
X124349699Y-90978327D01*
X124528327Y-90799698D01*
X124625000Y-90566309D01*
X124625000Y-89725750D01*
X124466250Y-89567000D01*
X123317000Y-89567000D01*
X123063000Y-89567000D01*
X121913750Y-89567000D01*
X121755000Y-89725750D01*
X78685000Y-89725750D01*
X78685000Y-88313691D01*
X121755000Y-88313691D01*
X121755000Y-89154250D01*
X121913750Y-89313000D01*
X123063000Y-89313000D01*
X123063000Y-87963750D01*
X122904250Y-87805000D01*
X122263690Y-87805000D01*
X122030301Y-87901673D01*
X121851673Y-88080302D01*
X121755000Y-88313691D01*
X78685000Y-88313691D01*
X78685000Y-82105750D01*
X117945000Y-82105750D01*
X117945000Y-82946309D01*
X118041673Y-83179698D01*
X118220301Y-83358327D01*
X118453690Y-83455000D01*
X119094250Y-83455000D01*
X119253000Y-83296250D01*
X119253000Y-81947000D01*
X119507000Y-81947000D01*
X119507000Y-83296250D01*
X119665750Y-83455000D01*
X120306310Y-83455000D01*
X120539699Y-83358327D01*
X120718327Y-83179698D01*
X120815000Y-82946309D01*
X120815000Y-82105750D01*
X123025000Y-82105750D01*
X123025000Y-82946309D01*
X123121673Y-83179698D01*
X123300301Y-83358327D01*
X123533690Y-83455000D01*
X124174250Y-83455000D01*
X124333000Y-83296250D01*
X124333000Y-81947000D01*
X124587000Y-81947000D01*
X124587000Y-83296250D01*
X124745750Y-83455000D01*
X125386310Y-83455000D01*
X125619699Y-83358327D01*
X125798327Y-83179698D01*
X125895000Y-82946309D01*
X125895000Y-82105750D01*
X125736250Y-81947000D01*
X124587000Y-81947000D01*
X124333000Y-81947000D01*
X123183750Y-81947000D01*
X123025000Y-82105750D01*
X120815000Y-82105750D01*
X120656250Y-81947000D01*
X119507000Y-81947000D01*
X119253000Y-81947000D01*
X118103750Y-81947000D01*
X117945000Y-82105750D01*
X78685000Y-82105750D01*
X78685000Y-80693691D01*
X117945000Y-80693691D01*
X117945000Y-81534250D01*
X118103750Y-81693000D01*
X119253000Y-81693000D01*
X119253000Y-80343750D01*
X119507000Y-80343750D01*
X119507000Y-81693000D01*
X120656250Y-81693000D01*
X120815000Y-81534250D01*
X120815000Y-80693691D01*
X123025000Y-80693691D01*
X123025000Y-81534250D01*
X123183750Y-81693000D01*
X124333000Y-81693000D01*
X124333000Y-80343750D01*
X124174250Y-80185000D01*
X123533690Y-80185000D01*
X123300301Y-80281673D01*
X123121673Y-80460302D01*
X123025000Y-80693691D01*
X120815000Y-80693691D01*
X120718327Y-80460302D01*
X120539699Y-80281673D01*
X120306310Y-80185000D01*
X119665750Y-80185000D01*
X119507000Y-80343750D01*
X119253000Y-80343750D01*
X119094250Y-80185000D01*
X118453690Y-80185000D01*
X118220301Y-80281673D01*
X118041673Y-80460302D01*
X117945000Y-80693691D01*
X78685000Y-80693691D01*
X78685000Y-66865750D01*
X120993000Y-66865750D01*
X120993000Y-67706309D01*
X121089673Y-67939698D01*
X121268301Y-68118327D01*
X121501690Y-68215000D01*
X122142250Y-68215000D01*
X122301000Y-68056250D01*
X122301000Y-66707000D01*
X122555000Y-66707000D01*
X122555000Y-68056250D01*
X122713750Y-68215000D01*
X123354310Y-68215000D01*
X123587699Y-68118327D01*
X123766327Y-67939698D01*
X123863000Y-67706309D01*
X123863000Y-66865750D01*
X123704250Y-66707000D01*
X122555000Y-66707000D01*
X122301000Y-66707000D01*
X121151750Y-66707000D01*
X120993000Y-66865750D01*
X78685000Y-66865750D01*
X78685000Y-65453691D01*
X120993000Y-65453691D01*
X120993000Y-66294250D01*
X121151750Y-66453000D01*
X122301000Y-66453000D01*
X122301000Y-65103750D01*
X122555000Y-65103750D01*
X122555000Y-66453000D01*
X123704250Y-66453000D01*
X123863000Y-66294250D01*
X123863000Y-65817750D01*
X126413000Y-65817750D01*
X126413000Y-66458310D01*
X126509673Y-66691699D01*
X126688302Y-66870327D01*
X126921691Y-66967000D01*
X127762250Y-66967000D01*
X127921000Y-66808250D01*
X127921000Y-65659000D01*
X128175000Y-65659000D01*
X128175000Y-66808250D01*
X128333750Y-66967000D01*
X129174309Y-66967000D01*
X129407698Y-66870327D01*
X129586327Y-66691699D01*
X129683000Y-66458310D01*
X129683000Y-65817750D01*
X129524250Y-65659000D01*
X128175000Y-65659000D01*
X127921000Y-65659000D01*
X126571750Y-65659000D01*
X126413000Y-65817750D01*
X123863000Y-65817750D01*
X123863000Y-65453691D01*
X123766327Y-65220302D01*
X123587699Y-65041673D01*
X123354310Y-64945000D01*
X122713750Y-64945000D01*
X122555000Y-65103750D01*
X122301000Y-65103750D01*
X122142250Y-64945000D01*
X121501690Y-64945000D01*
X121268301Y-65041673D01*
X121089673Y-65220302D01*
X120993000Y-65453691D01*
X78685000Y-65453691D01*
X78685000Y-64605690D01*
X126413000Y-64605690D01*
X126413000Y-65246250D01*
X126571750Y-65405000D01*
X127921000Y-65405000D01*
X127921000Y-64255750D01*
X128175000Y-64255750D01*
X128175000Y-65405000D01*
X129524250Y-65405000D01*
X129683000Y-65246250D01*
X129683000Y-64605690D01*
X129586327Y-64372301D01*
X129407698Y-64193673D01*
X129174309Y-64097000D01*
X128333750Y-64097000D01*
X128175000Y-64255750D01*
X127921000Y-64255750D01*
X127762250Y-64097000D01*
X126921691Y-64097000D01*
X126688302Y-64193673D01*
X126509673Y-64372301D01*
X126413000Y-64605690D01*
X78685000Y-64605690D01*
X78685000Y-59449834D01*
X81184543Y-59449834D01*
X81584853Y-60418658D01*
X82325443Y-61160542D01*
X83293567Y-61562542D01*
X84341834Y-61563457D01*
X85310658Y-61163147D01*
X86052542Y-60422557D01*
X86343542Y-59721750D01*
X123225000Y-59721750D01*
X123225000Y-60362310D01*
X123321673Y-60595699D01*
X123500302Y-60774327D01*
X123733691Y-60871000D01*
X124664250Y-60871000D01*
X124823000Y-60712250D01*
X124823000Y-59563000D01*
X125077000Y-59563000D01*
X125077000Y-60712250D01*
X125235750Y-60871000D01*
X126166309Y-60871000D01*
X126399698Y-60774327D01*
X126578327Y-60595699D01*
X126675000Y-60362310D01*
X126675000Y-59721750D01*
X126516250Y-59563000D01*
X125077000Y-59563000D01*
X124823000Y-59563000D01*
X123383750Y-59563000D01*
X123225000Y-59721750D01*
X86343542Y-59721750D01*
X86454542Y-59454433D01*
X86455366Y-58509690D01*
X123225000Y-58509690D01*
X123225000Y-59150250D01*
X123383750Y-59309000D01*
X124823000Y-59309000D01*
X124823000Y-58159750D01*
X125077000Y-58159750D01*
X125077000Y-59309000D01*
X126516250Y-59309000D01*
X126675000Y-59150250D01*
X126675000Y-58509690D01*
X126578327Y-58276301D01*
X126399698Y-58097673D01*
X126166309Y-58001000D01*
X125235750Y-58001000D01*
X125077000Y-58159750D01*
X124823000Y-58159750D01*
X124664250Y-58001000D01*
X123733691Y-58001000D01*
X123500302Y-58097673D01*
X123321673Y-58276301D01*
X123225000Y-58509690D01*
X86455366Y-58509690D01*
X86455457Y-58406166D01*
X86055147Y-57437342D01*
X85314557Y-56695458D01*
X84346433Y-56293458D01*
X83298166Y-56292543D01*
X82329342Y-56692853D01*
X81587458Y-57433443D01*
X81185458Y-58401567D01*
X81184543Y-59449834D01*
X78685000Y-59449834D01*
X78685000Y-54685000D01*
X212815000Y-54685000D01*
X212815000Y-116315000D01*
X212815000Y-116315000D01*
G37*
X212815000Y-116315000D02*
X165500000Y-116315000D01*
X165237862Y-116367143D01*
X165229096Y-116373000D01*
X165000000Y-116373000D01*
X164950590Y-116383006D01*
X164908965Y-116411447D01*
X164881685Y-116453841D01*
X164873000Y-116500000D01*
X164873000Y-116729096D01*
X164867143Y-116737862D01*
X164815000Y-117000000D01*
X164815000Y-119273750D01*
X164699000Y-119389750D01*
X164699000Y-122039000D01*
X164719000Y-122039000D01*
X164719000Y-122293000D01*
X164699000Y-122293000D01*
X164699000Y-122313000D01*
X164544440Y-122313000D01*
X164544440Y-119866000D01*
X164500162Y-119630683D01*
X164445000Y-119544959D01*
X164445000Y-119389750D01*
X164286250Y-119231000D01*
X164261546Y-119231000D01*
X164109401Y-119003299D01*
X160143802Y-115037700D01*
X161753709Y-115037700D01*
X161933979Y-115112555D01*
X162266163Y-115112845D01*
X162573172Y-114985992D01*
X162808266Y-114751307D01*
X162935655Y-114444521D01*
X162935945Y-114112337D01*
X162809092Y-113805328D01*
X162574407Y-113570234D01*
X162267621Y-113442845D01*
X161935437Y-113442555D01*
X161753571Y-113517700D01*
X158202102Y-113517700D01*
X158127101Y-113442699D01*
X157880539Y-113277952D01*
X157589700Y-113220100D01*
X156551891Y-113220100D01*
X156439400Y-113173389D01*
X156439400Y-111944300D01*
X156404758Y-111770144D01*
X156635263Y-111770345D01*
X156817129Y-111695200D01*
X164224909Y-111695200D01*
X164405179Y-111770055D01*
X164737363Y-111770345D01*
X165044372Y-111643492D01*
X165279466Y-111408807D01*
X165406855Y-111102021D01*
X165407145Y-110769837D01*
X165280292Y-110462828D01*
X165067669Y-110249834D01*
X205644543Y-110249834D01*
X206044853Y-111218658D01*
X206785443Y-111960542D01*
X207753567Y-112362542D01*
X208801834Y-112363457D01*
X209770658Y-111963147D01*
X210512542Y-111222557D01*
X210914542Y-110254433D01*
X210915457Y-109206166D01*
X210515147Y-108237342D01*
X209774557Y-107495458D01*
X208806433Y-107093458D01*
X207758166Y-107092543D01*
X206789342Y-107492853D01*
X206047458Y-108233443D01*
X205645458Y-109201567D01*
X205644543Y-110249834D01*
X165067669Y-110249834D01*
X165045607Y-110227734D01*
X164738821Y-110100345D01*
X164406637Y-110100055D01*
X164224771Y-110175200D01*
X156816991Y-110175200D01*
X156636721Y-110100345D01*
X156304537Y-110100055D01*
X155997528Y-110226908D01*
X155762434Y-110461593D01*
X155635045Y-110768379D01*
X155634995Y-110825093D01*
X154118902Y-109309000D01*
X202155700Y-109309000D01*
X202446539Y-109251148D01*
X202693101Y-109086401D01*
X206872784Y-104906718D01*
X206965910Y-105051441D01*
X207178110Y-105196431D01*
X207430000Y-105247440D01*
X209130000Y-105247440D01*
X209365317Y-105203162D01*
X209581441Y-105064090D01*
X209726431Y-104851890D01*
X209777440Y-104600000D01*
X209777440Y-102600000D01*
X209733162Y-102364683D01*
X209594090Y-102148559D01*
X209381890Y-102003569D01*
X209130000Y-101952560D01*
X207430000Y-101952560D01*
X207194683Y-101996838D01*
X206978559Y-102135910D01*
X206833569Y-102348110D01*
X206782560Y-102600000D01*
X206782560Y-102918767D01*
X206567299Y-103062599D01*
X201840898Y-107789000D01*
X191808028Y-107789000D01*
X191907701Y-107722401D01*
X194126331Y-105503771D01*
X194290839Y-105471048D01*
X194537401Y-105306301D01*
X194702148Y-105059739D01*
X194719557Y-104972219D01*
X194758234Y-104964526D01*
X195244415Y-104639670D01*
X195569271Y-104153489D01*
X195683345Y-103580000D01*
X195597932Y-103150600D01*
X200500498Y-103150600D01*
X201487299Y-104137401D01*
X201702560Y-104281233D01*
X201702560Y-104600000D01*
X201746838Y-104835317D01*
X201885910Y-105051441D01*
X202098110Y-105196431D01*
X202350000Y-105247440D01*
X204050000Y-105247440D01*
X204285317Y-105203162D01*
X204501441Y-105064090D01*
X204646431Y-104851890D01*
X204697440Y-104600000D01*
X204697440Y-102600000D01*
X204653162Y-102364683D01*
X204514090Y-102148559D01*
X204301890Y-102003569D01*
X204050000Y-101952560D01*
X202350000Y-101952560D01*
X202114683Y-101996838D01*
X201898559Y-102135910D01*
X201791743Y-102292241D01*
X201352701Y-101853199D01*
X201106139Y-101688452D01*
X200815300Y-101630600D01*
X195557838Y-101630600D01*
X195569271Y-101613489D01*
X195683345Y-101040000D01*
X195569271Y-100466511D01*
X195244415Y-99980330D01*
X195222220Y-99965500D01*
X195375698Y-99901927D01*
X195554327Y-99723299D01*
X195651000Y-99489910D01*
X195651000Y-98785750D01*
X195492250Y-98627000D01*
X194127000Y-98627000D01*
X194127000Y-98647000D01*
X193873000Y-98647000D01*
X193873000Y-98627000D01*
X192507750Y-98627000D01*
X192349000Y-98785750D01*
X192349000Y-99091100D01*
X191841202Y-99091100D01*
X191712701Y-98962599D01*
X191497440Y-98818767D01*
X191497440Y-98500000D01*
X191453162Y-98264683D01*
X191314090Y-98048559D01*
X191101890Y-97903569D01*
X190850000Y-97852560D01*
X189150000Y-97852560D01*
X188914683Y-97896838D01*
X188698559Y-98035910D01*
X188591743Y-98192241D01*
X187909592Y-97510090D01*
X192349000Y-97510090D01*
X192349000Y-98214250D01*
X192507750Y-98373000D01*
X193873000Y-98373000D01*
X193873000Y-97160150D01*
X194127000Y-97160150D01*
X194127000Y-98373000D01*
X195492250Y-98373000D01*
X195651000Y-98214250D01*
X195651000Y-97510090D01*
X195554327Y-97276701D01*
X195375698Y-97098073D01*
X195142309Y-97001400D01*
X194285750Y-97001400D01*
X194127000Y-97160150D01*
X193873000Y-97160150D01*
X193714250Y-97001400D01*
X192857691Y-97001400D01*
X192624302Y-97098073D01*
X192445673Y-97276701D01*
X192349000Y-97510090D01*
X187909592Y-97510090D01*
X186185252Y-95785750D01*
X188515000Y-95785750D01*
X188515000Y-96626309D01*
X188611673Y-96859698D01*
X188790301Y-97038327D01*
X189023690Y-97135000D01*
X189714250Y-97135000D01*
X189873000Y-96976250D01*
X189873000Y-95627000D01*
X190127000Y-95627000D01*
X190127000Y-96976250D01*
X190285750Y-97135000D01*
X190976310Y-97135000D01*
X191209699Y-97038327D01*
X191388327Y-96859698D01*
X191485000Y-96626309D01*
X191485000Y-95785750D01*
X191384860Y-95685610D01*
X201664570Y-95685610D01*
X201664570Y-96324999D01*
X201761243Y-96558388D01*
X201939871Y-96737017D01*
X202173260Y-96833690D01*
X202914250Y-96833690D01*
X203073000Y-96674940D01*
X203073000Y-95526860D01*
X203327000Y-95526860D01*
X203327000Y-96674940D01*
X203485750Y-96833690D01*
X204226740Y-96833690D01*
X204460129Y-96737017D01*
X204638757Y-96558388D01*
X204735430Y-96324999D01*
X204735430Y-95685610D01*
X204576680Y-95526860D01*
X203327000Y-95526860D01*
X203073000Y-95526860D01*
X201823320Y-95526860D01*
X201664570Y-95685610D01*
X191384860Y-95685610D01*
X191326250Y-95627000D01*
X190127000Y-95627000D01*
X189873000Y-95627000D01*
X188673750Y-95627000D01*
X188515000Y-95785750D01*
X186185252Y-95785750D01*
X184773193Y-94373691D01*
X188515000Y-94373691D01*
X188515000Y-95214250D01*
X188673750Y-95373000D01*
X189873000Y-95373000D01*
X189873000Y-94023750D01*
X190127000Y-94023750D01*
X190127000Y-95373000D01*
X191326250Y-95373000D01*
X191485000Y-95214250D01*
X191485000Y-94373691D01*
X191388327Y-94140302D01*
X191209699Y-93961673D01*
X190976310Y-93865000D01*
X190285750Y-93865000D01*
X190127000Y-94023750D01*
X189873000Y-94023750D01*
X189714250Y-93865000D01*
X189023690Y-93865000D01*
X188790301Y-93961673D01*
X188611673Y-94140302D01*
X188515000Y-94373691D01*
X184773193Y-94373691D01*
X182160812Y-91761310D01*
X201652130Y-91761310D01*
X201652130Y-93358970D01*
X201696408Y-93594287D01*
X201835480Y-93810411D01*
X202047680Y-93955401D01*
X202149259Y-93975971D01*
X201939871Y-94062703D01*
X201761243Y-94241332D01*
X201664570Y-94474721D01*
X201664570Y-95114110D01*
X201823320Y-95272860D01*
X203073000Y-95272860D01*
X203073000Y-95252860D01*
X203327000Y-95252860D01*
X203327000Y-95272860D01*
X204576680Y-95272860D01*
X204735430Y-95114110D01*
X204735430Y-94923900D01*
X206744570Y-94923900D01*
X206744570Y-95114110D01*
X206903320Y-95272860D01*
X208153000Y-95272860D01*
X208153000Y-95252860D01*
X208407000Y-95252860D01*
X208407000Y-95272860D01*
X208427000Y-95272860D01*
X208427000Y-95526860D01*
X208407000Y-95526860D01*
X208407000Y-95546860D01*
X208153000Y-95546860D01*
X208153000Y-95526860D01*
X206903320Y-95526860D01*
X206744570Y-95685610D01*
X206744570Y-96155927D01*
X204607216Y-98293281D01*
X204514090Y-98148559D01*
X204301890Y-98003569D01*
X204050000Y-97952560D01*
X202350000Y-97952560D01*
X202114683Y-97996838D01*
X201898559Y-98135910D01*
X201753569Y-98348110D01*
X201702560Y-98600000D01*
X201702560Y-100600000D01*
X201746838Y-100835317D01*
X201885910Y-101051441D01*
X202098110Y-101196431D01*
X202350000Y-101247440D01*
X204050000Y-101247440D01*
X204285317Y-101203162D01*
X204501441Y-101064090D01*
X204646431Y-100851890D01*
X204697440Y-100600000D01*
X204697440Y-100281233D01*
X204912701Y-100137401D01*
X207766003Y-97284100D01*
X209196100Y-97284100D01*
X209196100Y-97965946D01*
X209130000Y-97952560D01*
X207430000Y-97952560D01*
X207194683Y-97996838D01*
X206978559Y-98135910D01*
X206833569Y-98348110D01*
X206782560Y-98600000D01*
X206782560Y-100600000D01*
X206826838Y-100835317D01*
X206965910Y-101051441D01*
X207178110Y-101196431D01*
X207430000Y-101247440D01*
X209130000Y-101247440D01*
X209365317Y-101203162D01*
X209581441Y-101064090D01*
X209726431Y-100851890D01*
X209777440Y-100600000D01*
X209777440Y-100281233D01*
X209992701Y-100137401D01*
X210493501Y-99636601D01*
X210658248Y-99390039D01*
X210716100Y-99099200D01*
X210716100Y-94161300D01*
X210688739Y-94023750D01*
X210658248Y-93870460D01*
X210493501Y-93623899D01*
X210016401Y-93146799D01*
X209827870Y-93020827D01*
X209827870Y-91761310D01*
X209783592Y-91525993D01*
X209644520Y-91309869D01*
X209432320Y-91164879D01*
X209180430Y-91113870D01*
X207379570Y-91113870D01*
X207144253Y-91158148D01*
X206928129Y-91297220D01*
X206783139Y-91509420D01*
X206732130Y-91761310D01*
X206732130Y-93358970D01*
X206740584Y-93403900D01*
X204738771Y-93403900D01*
X204747870Y-93358970D01*
X204747870Y-91761310D01*
X204703592Y-91525993D01*
X204564520Y-91309869D01*
X204352320Y-91164879D01*
X204100430Y-91113870D01*
X202299570Y-91113870D01*
X202064253Y-91158148D01*
X201848129Y-91297220D01*
X201703139Y-91509420D01*
X201652130Y-91761310D01*
X182160812Y-91761310D01*
X176330602Y-85931100D01*
X201601968Y-85931100D01*
X201516655Y-86360000D01*
X201630729Y-86933489D01*
X201955585Y-87419670D01*
X202441766Y-87744526D01*
X203015255Y-87858600D01*
X203384745Y-87858600D01*
X203958234Y-87744526D01*
X204444415Y-87419670D01*
X204769271Y-86933489D01*
X204883345Y-86360000D01*
X204769271Y-85786511D01*
X204444415Y-85300330D01*
X204129634Y-85090000D01*
X204444415Y-84879670D01*
X204769271Y-84393489D01*
X204883345Y-83820000D01*
X204769271Y-83246511D01*
X204444415Y-82760330D01*
X204129634Y-82550000D01*
X204444415Y-82339670D01*
X204769271Y-81853489D01*
X204883345Y-81280000D01*
X204769271Y-80706511D01*
X204444415Y-80220330D01*
X204422220Y-80205500D01*
X204575698Y-80141927D01*
X204754327Y-79963299D01*
X204851000Y-79729910D01*
X204851000Y-79025750D01*
X204692250Y-78867000D01*
X203327000Y-78867000D01*
X203327000Y-78887000D01*
X203073000Y-78887000D01*
X203073000Y-78867000D01*
X201707750Y-78867000D01*
X201549000Y-79025750D01*
X201549000Y-79729910D01*
X201645673Y-79963299D01*
X201824302Y-80141927D01*
X201977780Y-80205500D01*
X201955585Y-80220330D01*
X201630729Y-80706511D01*
X201516655Y-81280000D01*
X201601968Y-81708900D01*
X161524977Y-81708900D01*
X161238021Y-81589745D01*
X160905837Y-81589455D01*
X160723971Y-81664600D01*
X153507440Y-81664600D01*
X153507440Y-80892800D01*
X157085609Y-80892800D01*
X157265879Y-80967655D01*
X157598063Y-80967945D01*
X157905072Y-80841092D01*
X158140166Y-80606407D01*
X158267555Y-80299621D01*
X158267845Y-79967437D01*
X158140992Y-79660428D01*
X157906307Y-79425334D01*
X157599521Y-79297945D01*
X157267337Y-79297655D01*
X157085471Y-79372800D01*
X152620000Y-79372800D01*
X152620000Y-79095500D01*
X188995398Y-79095500D01*
X189177299Y-79277401D01*
X189392560Y-79421234D01*
X189392560Y-79590000D01*
X189436838Y-79825317D01*
X189575910Y-80041441D01*
X189788110Y-80186431D01*
X190040000Y-80237440D01*
X192040000Y-80237440D01*
X192275317Y-80193162D01*
X192491441Y-80054090D01*
X192636431Y-79841890D01*
X192687440Y-79590000D01*
X192687440Y-79025750D01*
X193405000Y-79025750D01*
X193405000Y-79716310D01*
X193501673Y-79949699D01*
X193680302Y-80128327D01*
X193913691Y-80225000D01*
X194754250Y-80225000D01*
X194913000Y-80066250D01*
X194913000Y-78867000D01*
X195167000Y-78867000D01*
X195167000Y-80066250D01*
X195325750Y-80225000D01*
X196166309Y-80225000D01*
X196399698Y-80128327D01*
X196578327Y-79949699D01*
X196675000Y-79716310D01*
X196675000Y-79025750D01*
X196516250Y-78867000D01*
X195167000Y-78867000D01*
X194913000Y-78867000D01*
X193563750Y-78867000D01*
X193405000Y-79025750D01*
X192687440Y-79025750D01*
X192687440Y-77890000D01*
X192663674Y-77763690D01*
X193405000Y-77763690D01*
X193405000Y-78454250D01*
X193563750Y-78613000D01*
X194913000Y-78613000D01*
X194913000Y-77413750D01*
X195167000Y-77413750D01*
X195167000Y-78613000D01*
X196516250Y-78613000D01*
X196675000Y-78454250D01*
X196675000Y-77763690D01*
X196669367Y-77750090D01*
X201549000Y-77750090D01*
X201549000Y-78454250D01*
X201707750Y-78613000D01*
X203073000Y-78613000D01*
X203073000Y-77400150D01*
X203327000Y-77400150D01*
X203327000Y-78613000D01*
X204692250Y-78613000D01*
X204851000Y-78454250D01*
X204851000Y-77750090D01*
X204754327Y-77516701D01*
X204575698Y-77338073D01*
X204342309Y-77241400D01*
X203485750Y-77241400D01*
X203327000Y-77400150D01*
X203073000Y-77400150D01*
X202914250Y-77241400D01*
X202057691Y-77241400D01*
X201824302Y-77338073D01*
X201645673Y-77516701D01*
X201549000Y-77750090D01*
X196669367Y-77750090D01*
X196578327Y-77530301D01*
X196399698Y-77351673D01*
X196166309Y-77255000D01*
X195325750Y-77255000D01*
X195167000Y-77413750D01*
X194913000Y-77413750D01*
X194754250Y-77255000D01*
X193913691Y-77255000D01*
X193680302Y-77351673D01*
X193501673Y-77530301D01*
X193405000Y-77763690D01*
X192663674Y-77763690D01*
X192643162Y-77654683D01*
X192504090Y-77438559D01*
X192291890Y-77293569D01*
X192040000Y-77242560D01*
X190040000Y-77242560D01*
X189804683Y-77286838D01*
X189588559Y-77425910D01*
X189465272Y-77606346D01*
X189310200Y-77575500D01*
X152372491Y-77575500D01*
X152192221Y-77500645D01*
X151860037Y-77500355D01*
X151569574Y-77620372D01*
X149749401Y-75800199D01*
X149502839Y-75635452D01*
X149212000Y-75577600D01*
X146507700Y-75577600D01*
X146265114Y-75625854D01*
X146216860Y-75635452D01*
X145970299Y-75800199D01*
X145528909Y-76241589D01*
X145514090Y-76218559D01*
X145301890Y-76073569D01*
X145050000Y-76022560D01*
X143484700Y-76022560D01*
X143484700Y-71167202D01*
X144158106Y-70493796D01*
X144340839Y-70457448D01*
X144587401Y-70292701D01*
X144731233Y-70077440D01*
X145050000Y-70077440D01*
X145285317Y-70033162D01*
X145501441Y-69894090D01*
X145646431Y-69681890D01*
X145697440Y-69430000D01*
X145697440Y-67730000D01*
X145653162Y-67494683D01*
X145514090Y-67278559D01*
X145357759Y-67171743D01*
X147524974Y-65004528D01*
X147610839Y-64987448D01*
X147857401Y-64822701D01*
X148001233Y-64607440D01*
X148120000Y-64607440D01*
X148355317Y-64563162D01*
X148571441Y-64424090D01*
X148716431Y-64211890D01*
X148767440Y-63960000D01*
X148767440Y-63720000D01*
X151572998Y-63720000D01*
X148210438Y-67082560D01*
X147050000Y-67082560D01*
X146814683Y-67126838D01*
X146598559Y-67265910D01*
X146453569Y-67478110D01*
X146402560Y-67730000D01*
X146402560Y-69430000D01*
X146446838Y-69665317D01*
X146585910Y-69881441D01*
X146798110Y-70026431D01*
X147050000Y-70077440D01*
X149050000Y-70077440D01*
X149285317Y-70033162D01*
X149501441Y-69894090D01*
X149646431Y-69681890D01*
X149663723Y-69596500D01*
X150226209Y-69596500D01*
X150406479Y-69671355D01*
X150738663Y-69671645D01*
X150757560Y-69663837D01*
X150757560Y-69725000D01*
X150801838Y-69960317D01*
X150940910Y-70176441D01*
X151153110Y-70321431D01*
X151405000Y-70372440D01*
X152405000Y-70372440D01*
X152640317Y-70328162D01*
X152856441Y-70189090D01*
X153001431Y-69976890D01*
X153052440Y-69725000D01*
X153052440Y-68175000D01*
X153008162Y-67939683D01*
X152869090Y-67723559D01*
X152656890Y-67578569D01*
X152459297Y-67538555D01*
X152501431Y-67476890D01*
X152552440Y-67225000D01*
X152552440Y-65825000D01*
X152508162Y-65589683D01*
X152500980Y-65578522D01*
X152519803Y-65559700D01*
X162407560Y-65559700D01*
X162407560Y-66227560D01*
X162405000Y-66227560D01*
X162169683Y-66271838D01*
X161953559Y-66410910D01*
X161808569Y-66623110D01*
X161757560Y-66875000D01*
X161757560Y-67875000D01*
X161801838Y-68110317D01*
X161940910Y-68326441D01*
X162153110Y-68471431D01*
X162405000Y-68522440D01*
X163855000Y-68522440D01*
X164090317Y-68478162D01*
X164306441Y-68339090D01*
X164451431Y-68126890D01*
X164502440Y-67875000D01*
X164502440Y-66875000D01*
X164478056Y-66745411D01*
X164502440Y-66625000D01*
X164502440Y-65125000D01*
X164458162Y-64889683D01*
X164319090Y-64673559D01*
X164169590Y-64571410D01*
X164157148Y-64508861D01*
X163992401Y-64262299D01*
X163965000Y-64243990D01*
X163965000Y-59651742D01*
X164090317Y-59628162D01*
X164306441Y-59489090D01*
X164451431Y-59276890D01*
X164502440Y-59025000D01*
X164502440Y-57525000D01*
X164458162Y-57289683D01*
X164319090Y-57073559D01*
X164106890Y-56928569D01*
X163891121Y-56884875D01*
X163835211Y-56801200D01*
X191545098Y-56801200D01*
X196241299Y-61497401D01*
X196456560Y-61641233D01*
X196456560Y-61976000D01*
X196500838Y-62211317D01*
X196639910Y-62427441D01*
X196852110Y-62572431D01*
X197104000Y-62623440D01*
X199136000Y-62623440D01*
X199371317Y-62579162D01*
X199587441Y-62440090D01*
X199698840Y-62277052D01*
X199795182Y-62366385D01*
X200277056Y-62565975D01*
X200533000Y-62446836D01*
X200533000Y-61087000D01*
X200787000Y-61087000D01*
X200787000Y-62446836D01*
X201042944Y-62565975D01*
X201524818Y-62366385D01*
X201997188Y-61928379D01*
X202265983Y-61342946D01*
X202147367Y-61087000D01*
X200787000Y-61087000D01*
X200533000Y-61087000D01*
X200513000Y-61087000D01*
X200513000Y-60833000D01*
X200533000Y-60833000D01*
X200533000Y-59473164D01*
X200787000Y-59473164D01*
X200787000Y-60833000D01*
X202147367Y-60833000D01*
X202265983Y-60577054D01*
X201997188Y-59991621D01*
X201524818Y-59553615D01*
X201274258Y-59449834D01*
X205644543Y-59449834D01*
X206044853Y-60418658D01*
X206785443Y-61160542D01*
X207753567Y-61562542D01*
X208801834Y-61563457D01*
X209770658Y-61163147D01*
X210512542Y-60422557D01*
X210914542Y-59454433D01*
X210915457Y-58406166D01*
X210515147Y-57437342D01*
X209774557Y-56695458D01*
X208806433Y-56293458D01*
X207758166Y-56292543D01*
X206789342Y-56692853D01*
X206047458Y-57433443D01*
X205645458Y-58401567D01*
X205644543Y-59449834D01*
X201274258Y-59449834D01*
X201042944Y-59354025D01*
X200787000Y-59473164D01*
X200533000Y-59473164D01*
X200277056Y-59354025D01*
X199795182Y-59553615D01*
X199697602Y-59644097D01*
X199600090Y-59492559D01*
X199387890Y-59347569D01*
X199136000Y-59296560D01*
X197104000Y-59296560D01*
X196868683Y-59340838D01*
X196652559Y-59479910D01*
X196539248Y-59645746D01*
X192397301Y-55503799D01*
X192150739Y-55339052D01*
X191859900Y-55281200D01*
X144302100Y-55281200D01*
X144011261Y-55339052D01*
X143764699Y-55503799D01*
X141615216Y-57653282D01*
X141522090Y-57508559D01*
X141309890Y-57363569D01*
X141058000Y-57312560D01*
X139358000Y-57312560D01*
X139122683Y-57356838D01*
X138906559Y-57495910D01*
X138761569Y-57708110D01*
X138710560Y-57960000D01*
X138710560Y-58278767D01*
X138495299Y-58422599D01*
X137929798Y-58988100D01*
X135867440Y-58988100D01*
X135867440Y-58636000D01*
X135823162Y-58400683D01*
X135684090Y-58184559D01*
X135471890Y-58039569D01*
X135220000Y-57988560D01*
X133040000Y-57988560D01*
X132804683Y-58032838D01*
X132588559Y-58171910D01*
X132443569Y-58384110D01*
X132392560Y-58636000D01*
X132392560Y-60236000D01*
X132436838Y-60471317D01*
X132575910Y-60687441D01*
X132788110Y-60832431D01*
X132826061Y-60840116D01*
X132761352Y-60936961D01*
X132703500Y-61227800D01*
X132703500Y-64084560D01*
X131048000Y-64084560D01*
X130812683Y-64128838D01*
X130596559Y-64267910D01*
X130451569Y-64480110D01*
X130400560Y-64732000D01*
X130400560Y-66332000D01*
X130444838Y-66567317D01*
X130583910Y-66783441D01*
X130796110Y-66928431D01*
X131048000Y-66979440D01*
X133048000Y-66979440D01*
X133283317Y-66935162D01*
X133499441Y-66796090D01*
X133644431Y-66583890D01*
X133693752Y-66340333D01*
X133935872Y-66240292D01*
X134170966Y-66005607D01*
X134298355Y-65698821D01*
X134298645Y-65366637D01*
X134223500Y-65184771D01*
X134223500Y-61542602D01*
X134667401Y-61098701D01*
X134811234Y-60883440D01*
X135220000Y-60883440D01*
X135455317Y-60839162D01*
X135671441Y-60700090D01*
X135802622Y-60508100D01*
X138244600Y-60508100D01*
X138535439Y-60450248D01*
X138782001Y-60285501D01*
X138800784Y-60266718D01*
X138893910Y-60411441D01*
X139106110Y-60556431D01*
X139358000Y-60607440D01*
X141058000Y-60607440D01*
X141293317Y-60563162D01*
X141509441Y-60424090D01*
X141654431Y-60211890D01*
X141705440Y-59960000D01*
X141705440Y-59641233D01*
X141920701Y-59497401D01*
X142172352Y-59245750D01*
X145885000Y-59245750D01*
X145885000Y-60086309D01*
X145981673Y-60319698D01*
X146160301Y-60498327D01*
X146393690Y-60595000D01*
X147034250Y-60595000D01*
X147193000Y-60436250D01*
X147193000Y-59087000D01*
X147447000Y-59087000D01*
X147447000Y-60436250D01*
X147605750Y-60595000D01*
X148246310Y-60595000D01*
X148479699Y-60498327D01*
X148658327Y-60319698D01*
X148755000Y-60086309D01*
X148755000Y-59245750D01*
X148596250Y-59087000D01*
X147447000Y-59087000D01*
X147193000Y-59087000D01*
X146043750Y-59087000D01*
X145885000Y-59245750D01*
X142172352Y-59245750D01*
X143584411Y-57833691D01*
X145885000Y-57833691D01*
X145885000Y-58674250D01*
X146043750Y-58833000D01*
X147193000Y-58833000D01*
X147193000Y-57483750D01*
X147447000Y-57483750D01*
X147447000Y-58833000D01*
X148596250Y-58833000D01*
X148755000Y-58674250D01*
X148755000Y-57833691D01*
X148658327Y-57600302D01*
X148479699Y-57421673D01*
X148246310Y-57325000D01*
X147605750Y-57325000D01*
X147447000Y-57483750D01*
X147193000Y-57483750D01*
X147034250Y-57325000D01*
X146393690Y-57325000D01*
X146160301Y-57421673D01*
X145981673Y-57600302D01*
X145885000Y-57833691D01*
X143584411Y-57833691D01*
X144616902Y-56801200D01*
X152159078Y-56801200D01*
X152108056Y-56877560D01*
X151105000Y-56877560D01*
X150869683Y-56921838D01*
X150653559Y-57060910D01*
X150508569Y-57273110D01*
X150457560Y-57525000D01*
X150457560Y-59025000D01*
X150501838Y-59260317D01*
X150640910Y-59476441D01*
X150853110Y-59621431D01*
X151105000Y-59672440D01*
X152605000Y-59672440D01*
X152840317Y-59628162D01*
X153056441Y-59489090D01*
X153201431Y-59276890D01*
X153252440Y-59025000D01*
X153252440Y-58956233D01*
X153307560Y-58919403D01*
X153307560Y-59025000D01*
X153351838Y-59260317D01*
X153490910Y-59476441D01*
X153703110Y-59621431D01*
X153955000Y-59672440D01*
X154655000Y-59672440D01*
X154862342Y-59633426D01*
X155055000Y-59672440D01*
X155493687Y-59672440D01*
X155596708Y-59921772D01*
X155777559Y-60102939D01*
X153680498Y-62200000D01*
X148767440Y-62200000D01*
X148767440Y-61960000D01*
X148723162Y-61724683D01*
X148584090Y-61508559D01*
X148371890Y-61363569D01*
X148120000Y-61312560D01*
X146520000Y-61312560D01*
X146284683Y-61356838D01*
X146068559Y-61495910D01*
X145923569Y-61708110D01*
X145872560Y-61960000D01*
X145872560Y-62200000D01*
X141705440Y-62200000D01*
X141705440Y-61960000D01*
X141661162Y-61724683D01*
X141522090Y-61508559D01*
X141309890Y-61363569D01*
X141058000Y-61312560D01*
X139358000Y-61312560D01*
X139122683Y-61356838D01*
X138906559Y-61495910D01*
X138761569Y-61708110D01*
X138710560Y-61960000D01*
X138710560Y-63960000D01*
X138754838Y-64195317D01*
X138893910Y-64411441D01*
X139106110Y-64556431D01*
X139358000Y-64607440D01*
X141058000Y-64607440D01*
X141293317Y-64563162D01*
X141509441Y-64424090D01*
X141654431Y-64211890D01*
X141705440Y-63960000D01*
X141705440Y-63720000D01*
X145872560Y-63720000D01*
X145872560Y-63960000D01*
X145916838Y-64195317D01*
X146021669Y-64358229D01*
X143512599Y-66867299D01*
X143368767Y-67082560D01*
X143050000Y-67082560D01*
X142814683Y-67126838D01*
X142598559Y-67265910D01*
X142453569Y-67478110D01*
X142402560Y-67730000D01*
X142402560Y-69430000D01*
X142446838Y-69665317D01*
X142585910Y-69881441D01*
X142606671Y-69895627D01*
X142477698Y-70024600D01*
X124082100Y-70024600D01*
X124067970Y-70027411D01*
X123875440Y-69898767D01*
X123875440Y-69580000D01*
X123831162Y-69344683D01*
X123692090Y-69128559D01*
X123479890Y-68983569D01*
X123228000Y-68932560D01*
X121628000Y-68932560D01*
X121392683Y-68976838D01*
X121176559Y-69115910D01*
X121031569Y-69328110D01*
X120980560Y-69580000D01*
X120980560Y-71580000D01*
X121024838Y-71815317D01*
X121163910Y-72031441D01*
X121376110Y-72176431D01*
X121628000Y-72227440D01*
X123160000Y-72227440D01*
X123160000Y-75972560D01*
X122920000Y-75972560D01*
X122684683Y-76016838D01*
X122468559Y-76155910D01*
X122323569Y-76368110D01*
X122272560Y-76620000D01*
X122272560Y-77885300D01*
X121567440Y-77885300D01*
X121567440Y-76620000D01*
X121523162Y-76384683D01*
X121384090Y-76168559D01*
X121171890Y-76023569D01*
X120920000Y-75972560D01*
X118920000Y-75972560D01*
X118684683Y-76016838D01*
X118468559Y-76155910D01*
X118323569Y-76368110D01*
X118272560Y-76620000D01*
X118272560Y-78320000D01*
X118316838Y-78555317D01*
X118455910Y-78771441D01*
X118668110Y-78916431D01*
X118920000Y-78967440D01*
X119238767Y-78967440D01*
X119382599Y-79182701D01*
X119629161Y-79347448D01*
X119920000Y-79405300D01*
X124216298Y-79405300D01*
X124995997Y-80185000D01*
X124745750Y-80185000D01*
X124587000Y-80343750D01*
X124587000Y-81693000D01*
X125736250Y-81693000D01*
X125895000Y-81534250D01*
X125895000Y-81123664D01*
X126087879Y-81203755D01*
X126420063Y-81204045D01*
X126727072Y-81077192D01*
X126780000Y-81024356D01*
X126780000Y-83550498D01*
X125817216Y-84513282D01*
X125724090Y-84368559D01*
X125511890Y-84223569D01*
X125260000Y-84172560D01*
X123660000Y-84172560D01*
X123424683Y-84216838D01*
X123208559Y-84355910D01*
X123063569Y-84568110D01*
X123012560Y-84820000D01*
X123012560Y-85060000D01*
X120827440Y-85060000D01*
X120827440Y-84820000D01*
X120783162Y-84584683D01*
X120644090Y-84368559D01*
X120431890Y-84223569D01*
X120180000Y-84172560D01*
X118580000Y-84172560D01*
X118344683Y-84216838D01*
X118128559Y-84355910D01*
X117983569Y-84568110D01*
X117932560Y-84820000D01*
X117932560Y-86820000D01*
X117976838Y-87055317D01*
X118115910Y-87271441D01*
X118328110Y-87416431D01*
X118580000Y-87467440D01*
X120180000Y-87467440D01*
X120415317Y-87423162D01*
X120631441Y-87284090D01*
X120776431Y-87071890D01*
X120827440Y-86820000D01*
X120827440Y-86580000D01*
X123012560Y-86580000D01*
X123012560Y-86820000D01*
X123056838Y-87055317D01*
X123195910Y-87271441D01*
X123408110Y-87416431D01*
X123660000Y-87467440D01*
X123778767Y-87467440D01*
X123922599Y-87682701D01*
X124105633Y-87805000D01*
X123475750Y-87805000D01*
X123317000Y-87963750D01*
X123317000Y-89313000D01*
X124466250Y-89313000D01*
X124625000Y-89154250D01*
X124625000Y-88313691D01*
X124528327Y-88080302D01*
X124349699Y-87901673D01*
X124264639Y-87866440D01*
X124460000Y-87905300D01*
X124642098Y-87905300D01*
X125259549Y-88522751D01*
X125089829Y-88692471D01*
X124954744Y-88890174D01*
X124900260Y-89141336D01*
X124947784Y-89393907D01*
X125089829Y-89608089D01*
X126291911Y-90810171D01*
X126489614Y-90945256D01*
X126740776Y-90999740D01*
X126993347Y-90952216D01*
X127207529Y-90810171D01*
X127432920Y-90584780D01*
X127686900Y-90635300D01*
X127977739Y-90577448D01*
X128224301Y-90412701D01*
X128399402Y-90237600D01*
X128627709Y-90237600D01*
X128807979Y-90312455D01*
X129140163Y-90312745D01*
X129322029Y-90237600D01*
X131435974Y-90237600D01*
X131458432Y-90271463D01*
X132519092Y-91332123D01*
X132679329Y-91441608D01*
X132519092Y-91547877D01*
X131458432Y-92608537D01*
X131323347Y-92806240D01*
X131268863Y-93057402D01*
X131279283Y-93112781D01*
X131124532Y-92958030D01*
X131049992Y-92777628D01*
X130815307Y-92542534D01*
X130508521Y-92415145D01*
X130176337Y-92414855D01*
X129994471Y-92490000D01*
X129717440Y-92490000D01*
X129717440Y-92250000D01*
X129673162Y-92014683D01*
X129534090Y-91798559D01*
X129321890Y-91653569D01*
X129070000Y-91602560D01*
X127470000Y-91602560D01*
X127234683Y-91646838D01*
X127018559Y-91785910D01*
X126873569Y-91998110D01*
X126822560Y-92250000D01*
X126822560Y-94250000D01*
X126866838Y-94485317D01*
X127005910Y-94701441D01*
X127218110Y-94846431D01*
X127470000Y-94897440D01*
X129070000Y-94897440D01*
X129305317Y-94853162D01*
X129521441Y-94714090D01*
X129666431Y-94501890D01*
X129717440Y-94250000D01*
X129717440Y-94010000D01*
X129994609Y-94010000D01*
X130049827Y-94032929D01*
X131724499Y-95707601D01*
X131971061Y-95872348D01*
X132261900Y-95930200D01*
X133244998Y-95930200D01*
X134259098Y-96944300D01*
X133299291Y-96944300D01*
X133119021Y-96869445D01*
X132786837Y-96869155D01*
X132479828Y-96996008D01*
X132244734Y-97230693D01*
X132145489Y-97469700D01*
X131459000Y-97469700D01*
X131168161Y-97527552D01*
X130921599Y-97692299D01*
X130798498Y-97815400D01*
X129705000Y-97815400D01*
X129705000Y-97535750D01*
X129546250Y-97377000D01*
X128397000Y-97377000D01*
X128397000Y-97397000D01*
X128143000Y-97397000D01*
X128143000Y-97377000D01*
X126993750Y-97377000D01*
X126835000Y-97535750D01*
X126835000Y-97815400D01*
X123655502Y-97815400D01*
X122362701Y-96522599D01*
X122147440Y-96378767D01*
X122147440Y-96123691D01*
X126835000Y-96123691D01*
X126835000Y-96964250D01*
X126993750Y-97123000D01*
X128143000Y-97123000D01*
X128143000Y-95773750D01*
X128397000Y-95773750D01*
X128397000Y-97123000D01*
X129546250Y-97123000D01*
X129705000Y-96964250D01*
X129705000Y-96123691D01*
X129608327Y-95890302D01*
X129429699Y-95711673D01*
X129196310Y-95615000D01*
X128555750Y-95615000D01*
X128397000Y-95773750D01*
X128143000Y-95773750D01*
X127984250Y-95615000D01*
X127343690Y-95615000D01*
X127110301Y-95711673D01*
X126931673Y-95890302D01*
X126835000Y-96123691D01*
X122147440Y-96123691D01*
X122147440Y-96060000D01*
X122103162Y-95824683D01*
X121964090Y-95608559D01*
X121751890Y-95463569D01*
X121500000Y-95412560D01*
X121049042Y-95412560D01*
X121786750Y-94674852D01*
X121786838Y-94675317D01*
X121925910Y-94891441D01*
X122138110Y-95036431D01*
X122390000Y-95087440D01*
X123990000Y-95087440D01*
X124225317Y-95043162D01*
X124441441Y-94904090D01*
X124586431Y-94691890D01*
X124637440Y-94440000D01*
X124637440Y-92440000D01*
X124593162Y-92204683D01*
X124454090Y-91988559D01*
X124241890Y-91843569D01*
X123990000Y-91792560D01*
X122390000Y-91792560D01*
X122154683Y-91836838D01*
X121938559Y-91975910D01*
X121793569Y-92188110D01*
X121742560Y-92440000D01*
X121742560Y-92720626D01*
X121655960Y-92737852D01*
X121409399Y-92902599D01*
X118937299Y-95374699D01*
X118772552Y-95621261D01*
X118714700Y-95912100D01*
X118714700Y-101060000D01*
X118772552Y-101350839D01*
X118937299Y-101597401D01*
X119152560Y-101741233D01*
X119152560Y-102060000D01*
X119196838Y-102295317D01*
X119335910Y-102511441D01*
X119548110Y-102656431D01*
X119800000Y-102707440D01*
X121500000Y-102707440D01*
X121735317Y-102663162D01*
X121951441Y-102524090D01*
X122058257Y-102367759D01*
X123457199Y-103766701D01*
X123703760Y-103931448D01*
X123752014Y-103941046D01*
X123994600Y-103989300D01*
X126174764Y-103989300D01*
X126184488Y-104012834D01*
X126573755Y-104402780D01*
X127082617Y-104614078D01*
X127633604Y-104614559D01*
X128142834Y-104404150D01*
X128532780Y-104014883D01*
X128744078Y-103506021D01*
X128744559Y-102955034D01*
X128534150Y-102445804D01*
X128144883Y-102055858D01*
X127636021Y-101844560D01*
X127085034Y-101844079D01*
X126575804Y-102054488D01*
X126185858Y-102443755D01*
X126175251Y-102469300D01*
X124309402Y-102469300D01*
X122362701Y-100522599D01*
X122147440Y-100378767D01*
X122147440Y-100060000D01*
X122103162Y-99824683D01*
X121964090Y-99608559D01*
X121751890Y-99463569D01*
X121500000Y-99412560D01*
X120234700Y-99412560D01*
X120234700Y-98707440D01*
X121500000Y-98707440D01*
X121735317Y-98663162D01*
X121951441Y-98524090D01*
X122058257Y-98367759D01*
X122803299Y-99112801D01*
X123049860Y-99277548D01*
X123340700Y-99335400D01*
X131113300Y-99335400D01*
X131404139Y-99277548D01*
X131650701Y-99112801D01*
X131773802Y-98989700D01*
X132479804Y-98989700D01*
X132578008Y-99227372D01*
X132812693Y-99462466D01*
X133119479Y-99589855D01*
X133451663Y-99590145D01*
X133633529Y-99515000D01*
X133709891Y-99515000D01*
X133709655Y-99784763D01*
X133836508Y-100091772D01*
X134071193Y-100326866D01*
X134303266Y-100423232D01*
X133638199Y-101088299D01*
X133473452Y-101334861D01*
X133415600Y-101625700D01*
X133415600Y-106752000D01*
X133473452Y-107042839D01*
X133638199Y-107289401D01*
X135448699Y-109099901D01*
X135695261Y-109264648D01*
X135986100Y-109322500D01*
X137735198Y-109322500D01*
X138725258Y-110312560D01*
X137970000Y-110312560D01*
X137734683Y-110356838D01*
X137518559Y-110495910D01*
X137373569Y-110708110D01*
X137322560Y-110960000D01*
X137322560Y-111000000D01*
X136204892Y-111000000D01*
X136204849Y-110999971D01*
X136204801Y-110999899D01*
X136204797Y-110999897D01*
X136204795Y-110999893D01*
X132185007Y-106980187D01*
X132194759Y-106956702D01*
X132195240Y-106405715D01*
X131984831Y-105896485D01*
X131595564Y-105506539D01*
X131086702Y-105295241D01*
X130535715Y-105294760D01*
X130026485Y-105505169D01*
X129636539Y-105894436D01*
X129425241Y-106403298D01*
X129424760Y-106954285D01*
X129635169Y-107463515D01*
X130024436Y-107853461D01*
X130533298Y-108064759D01*
X131084285Y-108065240D01*
X131109879Y-108054665D01*
X134587846Y-111532560D01*
X134350000Y-111532560D01*
X134114683Y-111576838D01*
X133898559Y-111715910D01*
X133753569Y-111928110D01*
X133702560Y-112180000D01*
X133702560Y-113797993D01*
X133613821Y-113761145D01*
X133281637Y-113760855D01*
X132997440Y-113878282D01*
X132997440Y-112180000D01*
X132953162Y-111944683D01*
X132814090Y-111728559D01*
X132601890Y-111583569D01*
X132491623Y-111561239D01*
X132381792Y-111295428D01*
X132147107Y-111060334D01*
X131840321Y-110932945D01*
X131508137Y-110932655D01*
X131201128Y-111059508D01*
X131120056Y-111140439D01*
X131059161Y-111152552D01*
X130812599Y-111317299D01*
X130668767Y-111532560D01*
X130350000Y-111532560D01*
X130114683Y-111576838D01*
X129898559Y-111715910D01*
X129753569Y-111928110D01*
X129702560Y-112180000D01*
X129702560Y-113880000D01*
X129746838Y-114115317D01*
X129885910Y-114331441D01*
X130098110Y-114476431D01*
X130350000Y-114527440D01*
X132350000Y-114527440D01*
X132585317Y-114483162D01*
X132612113Y-114465919D01*
X132611889Y-114722808D01*
X132547028Y-114749608D01*
X132311934Y-114984293D01*
X132184545Y-115291079D01*
X132184255Y-115623263D01*
X132311108Y-115930272D01*
X132530026Y-116149572D01*
X131435000Y-117244598D01*
X131435000Y-116500000D01*
X131382857Y-116237862D01*
X131234368Y-116015632D01*
X131100166Y-115925961D01*
X131088553Y-115908965D01*
X131046159Y-115881685D01*
X131029097Y-115878475D01*
X131012138Y-115867143D01*
X130750000Y-115815000D01*
X78685000Y-115815000D01*
X78685000Y-112789834D01*
X81184543Y-112789834D01*
X81584853Y-113758658D01*
X82325443Y-114500542D01*
X83293567Y-114902542D01*
X84341834Y-114903457D01*
X85310658Y-114503147D01*
X86052542Y-113762557D01*
X86454542Y-112794433D01*
X86455457Y-111746166D01*
X86055147Y-110777342D01*
X85314557Y-110035458D01*
X84346433Y-109633458D01*
X83298166Y-109632543D01*
X82329342Y-110032853D01*
X81587458Y-110773443D01*
X81185458Y-111741567D01*
X81184543Y-112789834D01*
X78685000Y-112789834D01*
X78685000Y-89725750D01*
X121755000Y-89725750D01*
X121755000Y-90566309D01*
X121851673Y-90799698D01*
X122030301Y-90978327D01*
X122263690Y-91075000D01*
X122904250Y-91075000D01*
X123063000Y-90916250D01*
X123063000Y-89567000D01*
X123317000Y-89567000D01*
X123317000Y-90916250D01*
X123475750Y-91075000D01*
X124116310Y-91075000D01*
X124349699Y-90978327D01*
X124528327Y-90799698D01*
X124625000Y-90566309D01*
X124625000Y-89725750D01*
X124466250Y-89567000D01*
X123317000Y-89567000D01*
X123063000Y-89567000D01*
X121913750Y-89567000D01*
X121755000Y-89725750D01*
X78685000Y-89725750D01*
X78685000Y-88313691D01*
X121755000Y-88313691D01*
X121755000Y-89154250D01*
X121913750Y-89313000D01*
X123063000Y-89313000D01*
X123063000Y-87963750D01*
X122904250Y-87805000D01*
X122263690Y-87805000D01*
X122030301Y-87901673D01*
X121851673Y-88080302D01*
X121755000Y-88313691D01*
X78685000Y-88313691D01*
X78685000Y-82105750D01*
X117945000Y-82105750D01*
X117945000Y-82946309D01*
X118041673Y-83179698D01*
X118220301Y-83358327D01*
X118453690Y-83455000D01*
X119094250Y-83455000D01*
X119253000Y-83296250D01*
X119253000Y-81947000D01*
X119507000Y-81947000D01*
X119507000Y-83296250D01*
X119665750Y-83455000D01*
X120306310Y-83455000D01*
X120539699Y-83358327D01*
X120718327Y-83179698D01*
X120815000Y-82946309D01*
X120815000Y-82105750D01*
X123025000Y-82105750D01*
X123025000Y-82946309D01*
X123121673Y-83179698D01*
X123300301Y-83358327D01*
X123533690Y-83455000D01*
X124174250Y-83455000D01*
X124333000Y-83296250D01*
X124333000Y-81947000D01*
X124587000Y-81947000D01*
X124587000Y-83296250D01*
X124745750Y-83455000D01*
X125386310Y-83455000D01*
X125619699Y-83358327D01*
X125798327Y-83179698D01*
X125895000Y-82946309D01*
X125895000Y-82105750D01*
X125736250Y-81947000D01*
X124587000Y-81947000D01*
X124333000Y-81947000D01*
X123183750Y-81947000D01*
X123025000Y-82105750D01*
X120815000Y-82105750D01*
X120656250Y-81947000D01*
X119507000Y-81947000D01*
X119253000Y-81947000D01*
X118103750Y-81947000D01*
X117945000Y-82105750D01*
X78685000Y-82105750D01*
X78685000Y-80693691D01*
X117945000Y-80693691D01*
X117945000Y-81534250D01*
X118103750Y-81693000D01*
X119253000Y-81693000D01*
X119253000Y-80343750D01*
X119507000Y-80343750D01*
X119507000Y-81693000D01*
X120656250Y-81693000D01*
X120815000Y-81534250D01*
X120815000Y-80693691D01*
X123025000Y-80693691D01*
X123025000Y-81534250D01*
X123183750Y-81693000D01*
X124333000Y-81693000D01*
X124333000Y-80343750D01*
X124174250Y-80185000D01*
X123533690Y-80185000D01*
X123300301Y-80281673D01*
X123121673Y-80460302D01*
X123025000Y-80693691D01*
X120815000Y-80693691D01*
X120718327Y-80460302D01*
X120539699Y-80281673D01*
X120306310Y-80185000D01*
X119665750Y-80185000D01*
X119507000Y-80343750D01*
X119253000Y-80343750D01*
X119094250Y-80185000D01*
X118453690Y-80185000D01*
X118220301Y-80281673D01*
X118041673Y-80460302D01*
X117945000Y-80693691D01*
X78685000Y-80693691D01*
X78685000Y-66865750D01*
X120993000Y-66865750D01*
X120993000Y-67706309D01*
X121089673Y-67939698D01*
X121268301Y-68118327D01*
X121501690Y-68215000D01*
X122142250Y-68215000D01*
X122301000Y-68056250D01*
X122301000Y-66707000D01*
X122555000Y-66707000D01*
X122555000Y-68056250D01*
X122713750Y-68215000D01*
X123354310Y-68215000D01*
X123587699Y-68118327D01*
X123766327Y-67939698D01*
X123863000Y-67706309D01*
X123863000Y-66865750D01*
X123704250Y-66707000D01*
X122555000Y-66707000D01*
X122301000Y-66707000D01*
X121151750Y-66707000D01*
X120993000Y-66865750D01*
X78685000Y-66865750D01*
X78685000Y-65453691D01*
X120993000Y-65453691D01*
X120993000Y-66294250D01*
X121151750Y-66453000D01*
X122301000Y-66453000D01*
X122301000Y-65103750D01*
X122555000Y-65103750D01*
X122555000Y-66453000D01*
X123704250Y-66453000D01*
X123863000Y-66294250D01*
X123863000Y-65817750D01*
X126413000Y-65817750D01*
X126413000Y-66458310D01*
X126509673Y-66691699D01*
X126688302Y-66870327D01*
X126921691Y-66967000D01*
X127762250Y-66967000D01*
X127921000Y-66808250D01*
X127921000Y-65659000D01*
X128175000Y-65659000D01*
X128175000Y-66808250D01*
X128333750Y-66967000D01*
X129174309Y-66967000D01*
X129407698Y-66870327D01*
X129586327Y-66691699D01*
X129683000Y-66458310D01*
X129683000Y-65817750D01*
X129524250Y-65659000D01*
X128175000Y-65659000D01*
X127921000Y-65659000D01*
X126571750Y-65659000D01*
X126413000Y-65817750D01*
X123863000Y-65817750D01*
X123863000Y-65453691D01*
X123766327Y-65220302D01*
X123587699Y-65041673D01*
X123354310Y-64945000D01*
X122713750Y-64945000D01*
X122555000Y-65103750D01*
X122301000Y-65103750D01*
X122142250Y-64945000D01*
X121501690Y-64945000D01*
X121268301Y-65041673D01*
X121089673Y-65220302D01*
X120993000Y-65453691D01*
X78685000Y-65453691D01*
X78685000Y-64605690D01*
X126413000Y-64605690D01*
X126413000Y-65246250D01*
X126571750Y-65405000D01*
X127921000Y-65405000D01*
X127921000Y-64255750D01*
X128175000Y-64255750D01*
X128175000Y-65405000D01*
X129524250Y-65405000D01*
X129683000Y-65246250D01*
X129683000Y-64605690D01*
X129586327Y-64372301D01*
X129407698Y-64193673D01*
X129174309Y-64097000D01*
X128333750Y-64097000D01*
X128175000Y-64255750D01*
X127921000Y-64255750D01*
X127762250Y-64097000D01*
X126921691Y-64097000D01*
X126688302Y-64193673D01*
X126509673Y-64372301D01*
X126413000Y-64605690D01*
X78685000Y-64605690D01*
X78685000Y-59449834D01*
X81184543Y-59449834D01*
X81584853Y-60418658D01*
X82325443Y-61160542D01*
X83293567Y-61562542D01*
X84341834Y-61563457D01*
X85310658Y-61163147D01*
X86052542Y-60422557D01*
X86343542Y-59721750D01*
X123225000Y-59721750D01*
X123225000Y-60362310D01*
X123321673Y-60595699D01*
X123500302Y-60774327D01*
X123733691Y-60871000D01*
X124664250Y-60871000D01*
X124823000Y-60712250D01*
X124823000Y-59563000D01*
X125077000Y-59563000D01*
X125077000Y-60712250D01*
X125235750Y-60871000D01*
X126166309Y-60871000D01*
X126399698Y-60774327D01*
X126578327Y-60595699D01*
X126675000Y-60362310D01*
X126675000Y-59721750D01*
X126516250Y-59563000D01*
X125077000Y-59563000D01*
X124823000Y-59563000D01*
X123383750Y-59563000D01*
X123225000Y-59721750D01*
X86343542Y-59721750D01*
X86454542Y-59454433D01*
X86455366Y-58509690D01*
X123225000Y-58509690D01*
X123225000Y-59150250D01*
X123383750Y-59309000D01*
X124823000Y-59309000D01*
X124823000Y-58159750D01*
X125077000Y-58159750D01*
X125077000Y-59309000D01*
X126516250Y-59309000D01*
X126675000Y-59150250D01*
X126675000Y-58509690D01*
X126578327Y-58276301D01*
X126399698Y-58097673D01*
X126166309Y-58001000D01*
X125235750Y-58001000D01*
X125077000Y-58159750D01*
X124823000Y-58159750D01*
X124664250Y-58001000D01*
X123733691Y-58001000D01*
X123500302Y-58097673D01*
X123321673Y-58276301D01*
X123225000Y-58509690D01*
X86455366Y-58509690D01*
X86455457Y-58406166D01*
X86055147Y-57437342D01*
X85314557Y-56695458D01*
X84346433Y-56293458D01*
X83298166Y-56292543D01*
X82329342Y-56692853D01*
X81587458Y-57433443D01*
X81185458Y-58401567D01*
X81184543Y-59449834D01*
X78685000Y-59449834D01*
X78685000Y-54685000D01*
X212815000Y-54685000D01*
X212815000Y-116315000D01*
G36*
X149599560Y-122313000D02*
X149544440Y-122313000D01*
X149544440Y-122019000D01*
X149599560Y-122019000D01*
X149599560Y-122313000D01*
X149599560Y-122313000D01*
G37*
X149599560Y-122313000D02*
X149544440Y-122313000D01*
X149544440Y-122019000D01*
X149599560Y-122019000D01*
X149599560Y-122313000D01*
G36*
X153306799Y-118709201D02*
X153553360Y-118873948D01*
X153844200Y-118931800D01*
X153946509Y-118931800D01*
X154059274Y-118978624D01*
X154034599Y-119003299D01*
X153882454Y-119231000D01*
X153857750Y-119231000D01*
X153699000Y-119389750D01*
X153699000Y-119543229D01*
X153650569Y-119614110D01*
X153599560Y-119866000D01*
X153599560Y-122313000D01*
X153544440Y-122313000D01*
X153544440Y-119866000D01*
X153500162Y-119630683D01*
X153445000Y-119544959D01*
X153445000Y-119389750D01*
X153286250Y-119231000D01*
X153261546Y-119231000D01*
X153109401Y-119003299D01*
X153023901Y-118917799D01*
X152946946Y-118866380D01*
X152828507Y-118747734D01*
X152521721Y-118620345D01*
X152189537Y-118620055D01*
X151999700Y-118698494D01*
X151999700Y-118488700D01*
X151985129Y-118415448D01*
X151956564Y-118271840D01*
X152168666Y-118060107D01*
X152296055Y-117753321D01*
X152296103Y-117698505D01*
X153306799Y-118709201D01*
X153306799Y-118709201D01*
G37*
X153306799Y-118709201D02*
X153553360Y-118873948D01*
X153844200Y-118931800D01*
X153946509Y-118931800D01*
X154059274Y-118978624D01*
X154034599Y-119003299D01*
X153882454Y-119231000D01*
X153857750Y-119231000D01*
X153699000Y-119389750D01*
X153699000Y-119543229D01*
X153650569Y-119614110D01*
X153599560Y-119866000D01*
X153599560Y-122313000D01*
X153544440Y-122313000D01*
X153544440Y-119866000D01*
X153500162Y-119630683D01*
X153445000Y-119544959D01*
X153445000Y-119389750D01*
X153286250Y-119231000D01*
X153261546Y-119231000D01*
X153109401Y-119003299D01*
X153023901Y-118917799D01*
X152946946Y-118866380D01*
X152828507Y-118747734D01*
X152521721Y-118620345D01*
X152189537Y-118620055D01*
X151999700Y-118698494D01*
X151999700Y-118488700D01*
X151985129Y-118415448D01*
X151956564Y-118271840D01*
X152168666Y-118060107D01*
X152296055Y-117753321D01*
X152296103Y-117698505D01*
X153306799Y-118709201D01*
G36*
X157599560Y-122313000D02*
X157544440Y-122313000D01*
X157544440Y-122019000D01*
X157599560Y-122019000D01*
X157599560Y-122313000D01*
X157599560Y-122313000D01*
G37*
X157599560Y-122313000D02*
X157544440Y-122313000D01*
X157544440Y-122019000D01*
X157599560Y-122019000D01*
X157599560Y-122313000D01*
G36*
X161599560Y-122313000D02*
X161544440Y-122313000D01*
X161544440Y-122019000D01*
X161599560Y-122019000D01*
X161599560Y-122313000D01*
X161599560Y-122313000D01*
G37*
X161599560Y-122313000D02*
X161544440Y-122313000D01*
X161544440Y-122019000D01*
X161599560Y-122019000D01*
X161599560Y-122313000D01*
G36*
X142432799Y-109662701D02*
X142679361Y-109827448D01*
X142970200Y-109885300D01*
X146455900Y-109885300D01*
X146504991Y-109875535D01*
X146408845Y-110107079D01*
X146408555Y-110439263D01*
X146535408Y-110746272D01*
X146770093Y-110981366D01*
X147076879Y-111108755D01*
X147409063Y-111109045D01*
X147590929Y-111033900D01*
X151950598Y-111033900D01*
X153731700Y-112815002D01*
X153731700Y-112890161D01*
X153677100Y-112879300D01*
X148616796Y-112879300D01*
X148518592Y-112641628D01*
X148283907Y-112406534D01*
X148000336Y-112288785D01*
X147933239Y-112243952D01*
X147642400Y-112186100D01*
X144605000Y-112186100D01*
X144605000Y-112045750D01*
X144446250Y-111887000D01*
X143097000Y-111887000D01*
X143097000Y-111907000D01*
X142843000Y-111907000D01*
X142843000Y-111887000D01*
X142823000Y-111887000D01*
X142823000Y-111633000D01*
X142843000Y-111633000D01*
X142843000Y-110483750D01*
X143097000Y-110483750D01*
X143097000Y-111633000D01*
X144446250Y-111633000D01*
X144605000Y-111474250D01*
X144605000Y-110833690D01*
X144508327Y-110600301D01*
X144329698Y-110421673D01*
X144096309Y-110325000D01*
X143255750Y-110325000D01*
X143097000Y-110483750D01*
X142843000Y-110483750D01*
X142684250Y-110325000D01*
X141843691Y-110325000D01*
X141610302Y-110421673D01*
X141431673Y-110600301D01*
X141352864Y-110790562D01*
X139434502Y-108872200D01*
X141642298Y-108872200D01*
X142432799Y-109662701D01*
X142432799Y-109662701D01*
G37*
X142432799Y-109662701D02*
X142679361Y-109827448D01*
X142970200Y-109885300D01*
X146455900Y-109885300D01*
X146504991Y-109875535D01*
X146408845Y-110107079D01*
X146408555Y-110439263D01*
X146535408Y-110746272D01*
X146770093Y-110981366D01*
X147076879Y-111108755D01*
X147409063Y-111109045D01*
X147590929Y-111033900D01*
X151950598Y-111033900D01*
X153731700Y-112815002D01*
X153731700Y-112890161D01*
X153677100Y-112879300D01*
X148616796Y-112879300D01*
X148518592Y-112641628D01*
X148283907Y-112406534D01*
X148000336Y-112288785D01*
X147933239Y-112243952D01*
X147642400Y-112186100D01*
X144605000Y-112186100D01*
X144605000Y-112045750D01*
X144446250Y-111887000D01*
X143097000Y-111887000D01*
X143097000Y-111907000D01*
X142843000Y-111907000D01*
X142843000Y-111887000D01*
X142823000Y-111887000D01*
X142823000Y-111633000D01*
X142843000Y-111633000D01*
X142843000Y-110483750D01*
X143097000Y-110483750D01*
X143097000Y-111633000D01*
X144446250Y-111633000D01*
X144605000Y-111474250D01*
X144605000Y-110833690D01*
X144508327Y-110600301D01*
X144329698Y-110421673D01*
X144096309Y-110325000D01*
X143255750Y-110325000D01*
X143097000Y-110483750D01*
X142843000Y-110483750D01*
X142684250Y-110325000D01*
X141843691Y-110325000D01*
X141610302Y-110421673D01*
X141431673Y-110600301D01*
X141352864Y-110790562D01*
X139434502Y-108872200D01*
X141642298Y-108872200D01*
X142432799Y-109662701D01*
G36*
X149447000Y-107823000D02*
X149467000Y-107823000D01*
X149467000Y-108077000D01*
X149447000Y-108077000D01*
X149447000Y-108097000D01*
X149193000Y-108097000D01*
X149193000Y-108077000D01*
X149173000Y-108077000D01*
X149173000Y-107823000D01*
X149193000Y-107823000D01*
X149193000Y-107803000D01*
X149447000Y-107803000D01*
X149447000Y-107823000D01*
X149447000Y-107823000D01*
G37*
X149447000Y-107823000D02*
X149467000Y-107823000D01*
X149467000Y-108077000D01*
X149447000Y-108077000D01*
X149447000Y-108097000D01*
X149193000Y-108097000D01*
X149193000Y-108077000D01*
X149173000Y-108077000D01*
X149173000Y-107823000D01*
X149193000Y-107823000D01*
X149193000Y-107803000D01*
X149447000Y-107803000D01*
X149447000Y-107823000D01*
G36*
X142347877Y-101160908D02*
X143408537Y-102221568D01*
X143606240Y-102356653D01*
X143857402Y-102411137D01*
X144109973Y-102363613D01*
X144324155Y-102221568D01*
X144536287Y-102009436D01*
X144577230Y-101949515D01*
X144579597Y-101948534D01*
X144609692Y-101918439D01*
X144609692Y-101902004D01*
X144664300Y-101822083D01*
X144685174Y-101842957D01*
X144740909Y-101787222D01*
X144759900Y-101791000D01*
X146258934Y-101791000D01*
X146212560Y-102020000D01*
X146212560Y-103720000D01*
X146256838Y-103955317D01*
X146395910Y-104171441D01*
X146608110Y-104316431D01*
X146860000Y-104367440D01*
X147082932Y-104367440D01*
X146884634Y-104565393D01*
X146757245Y-104872179D01*
X146756955Y-105204363D01*
X146838878Y-105402633D01*
X146780128Y-105426908D01*
X146545034Y-105661593D01*
X146417645Y-105968379D01*
X146417355Y-106300563D01*
X146494783Y-106487954D01*
X146320000Y-106452560D01*
X144320000Y-106452560D01*
X144084683Y-106496838D01*
X143868559Y-106635910D01*
X143822631Y-106703129D01*
X143575401Y-106455899D01*
X143328839Y-106291152D01*
X143038000Y-106233300D01*
X142072722Y-106233300D01*
X142077440Y-106210000D01*
X142077440Y-104999542D01*
X142297072Y-104908792D01*
X142532166Y-104674107D01*
X142659555Y-104367321D01*
X142659845Y-104035137D01*
X142532992Y-103728128D01*
X142298307Y-103493034D01*
X141991521Y-103365645D01*
X141659337Y-103365355D01*
X141477471Y-103440500D01*
X141022100Y-103440500D01*
X140731261Y-103498352D01*
X140723584Y-103503482D01*
X139976900Y-102756798D01*
X139976900Y-102042623D01*
X140155845Y-102221568D01*
X140353548Y-102356653D01*
X140604710Y-102411137D01*
X140857281Y-102363613D01*
X141071463Y-102221568D01*
X142132123Y-101160908D01*
X142241608Y-101000671D01*
X142347877Y-101160908D01*
X142347877Y-101160908D01*
G37*
X142347877Y-101160908D02*
X143408537Y-102221568D01*
X143606240Y-102356653D01*
X143857402Y-102411137D01*
X144109973Y-102363613D01*
X144324155Y-102221568D01*
X144536287Y-102009436D01*
X144577230Y-101949515D01*
X144579597Y-101948534D01*
X144609692Y-101918439D01*
X144609692Y-101902004D01*
X144664300Y-101822083D01*
X144685174Y-101842957D01*
X144740909Y-101787222D01*
X144759900Y-101791000D01*
X146258934Y-101791000D01*
X146212560Y-102020000D01*
X146212560Y-103720000D01*
X146256838Y-103955317D01*
X146395910Y-104171441D01*
X146608110Y-104316431D01*
X146860000Y-104367440D01*
X147082932Y-104367440D01*
X146884634Y-104565393D01*
X146757245Y-104872179D01*
X146756955Y-105204363D01*
X146838878Y-105402633D01*
X146780128Y-105426908D01*
X146545034Y-105661593D01*
X146417645Y-105968379D01*
X146417355Y-106300563D01*
X146494783Y-106487954D01*
X146320000Y-106452560D01*
X144320000Y-106452560D01*
X144084683Y-106496838D01*
X143868559Y-106635910D01*
X143822631Y-106703129D01*
X143575401Y-106455899D01*
X143328839Y-106291152D01*
X143038000Y-106233300D01*
X142072722Y-106233300D01*
X142077440Y-106210000D01*
X142077440Y-104999542D01*
X142297072Y-104908792D01*
X142532166Y-104674107D01*
X142659555Y-104367321D01*
X142659845Y-104035137D01*
X142532992Y-103728128D01*
X142298307Y-103493034D01*
X141991521Y-103365645D01*
X141659337Y-103365355D01*
X141477471Y-103440500D01*
X141022100Y-103440500D01*
X140731261Y-103498352D01*
X140723584Y-103503482D01*
X139976900Y-102756798D01*
X139976900Y-102042623D01*
X140155845Y-102221568D01*
X140353548Y-102356653D01*
X140604710Y-102411137D01*
X140857281Y-102363613D01*
X141071463Y-102221568D01*
X142132123Y-101160908D01*
X142241608Y-101000671D01*
X142347877Y-101160908D01*
G36*
X138456900Y-103071600D02*
X138514752Y-103362439D01*
X138679499Y-103609001D01*
X139123282Y-104052784D01*
X139037305Y-104108108D01*
X138747737Y-104107855D01*
X138440728Y-104234708D01*
X138205634Y-104469393D01*
X138078245Y-104776179D01*
X138077955Y-105108363D01*
X138204808Y-105415372D01*
X138439493Y-105650466D01*
X138735658Y-105773445D01*
X138780561Y-105803448D01*
X138782560Y-105803846D01*
X138782560Y-106210000D01*
X138786944Y-106233300D01*
X138065000Y-106233300D01*
X138065000Y-105695750D01*
X137906250Y-105537000D01*
X136557000Y-105537000D01*
X136557000Y-105557000D01*
X136303000Y-105557000D01*
X136303000Y-105537000D01*
X136283000Y-105537000D01*
X136283000Y-105283000D01*
X136303000Y-105283000D01*
X136303000Y-104133750D01*
X136557000Y-104133750D01*
X136557000Y-105283000D01*
X137906250Y-105283000D01*
X138065000Y-105124250D01*
X138065000Y-104483690D01*
X137968327Y-104250301D01*
X137789698Y-104071673D01*
X137556309Y-103975000D01*
X136715750Y-103975000D01*
X136557000Y-104133750D01*
X136303000Y-104133750D01*
X136144250Y-103975000D01*
X135836200Y-103975000D01*
X135836200Y-103868402D01*
X138456900Y-101247702D01*
X138456900Y-103071600D01*
X138456900Y-103071600D01*
G37*
X138456900Y-103071600D02*
X138514752Y-103362439D01*
X138679499Y-103609001D01*
X139123282Y-104052784D01*
X139037305Y-104108108D01*
X138747737Y-104107855D01*
X138440728Y-104234708D01*
X138205634Y-104469393D01*
X138078245Y-104776179D01*
X138077955Y-105108363D01*
X138204808Y-105415372D01*
X138439493Y-105650466D01*
X138735658Y-105773445D01*
X138780561Y-105803448D01*
X138782560Y-105803846D01*
X138782560Y-106210000D01*
X138786944Y-106233300D01*
X138065000Y-106233300D01*
X138065000Y-105695750D01*
X137906250Y-105537000D01*
X136557000Y-105537000D01*
X136557000Y-105557000D01*
X136303000Y-105557000D01*
X136303000Y-105537000D01*
X136283000Y-105537000D01*
X136283000Y-105283000D01*
X136303000Y-105283000D01*
X136303000Y-104133750D01*
X136557000Y-104133750D01*
X136557000Y-105283000D01*
X137906250Y-105283000D01*
X138065000Y-105124250D01*
X138065000Y-104483690D01*
X137968327Y-104250301D01*
X137789698Y-104071673D01*
X137556309Y-103975000D01*
X136715750Y-103975000D01*
X136557000Y-104133750D01*
X136303000Y-104133750D01*
X136144250Y-103975000D01*
X135836200Y-103975000D01*
X135836200Y-103868402D01*
X138456900Y-101247702D01*
X138456900Y-103071600D01*
G36*
X188287299Y-100037401D02*
X188502560Y-100181233D01*
X188502560Y-100500000D01*
X188546838Y-100735317D01*
X188685910Y-100951441D01*
X188898110Y-101096431D01*
X189150000Y-101147440D01*
X190850000Y-101147440D01*
X191085317Y-101103162D01*
X191301441Y-100964090D01*
X191446431Y-100751890D01*
X191476934Y-100601261D01*
X191526400Y-100611100D01*
X192401968Y-100611100D01*
X192316655Y-101040000D01*
X192430729Y-101613489D01*
X192681862Y-101989336D01*
X191613200Y-103057998D01*
X191521252Y-103057998D01*
X191680000Y-102899250D01*
X191680000Y-102058691D01*
X191583327Y-101825302D01*
X191404699Y-101646673D01*
X191171310Y-101550000D01*
X190480750Y-101550000D01*
X190322000Y-101708750D01*
X190322000Y-103058000D01*
X190342000Y-103058000D01*
X190342000Y-103312000D01*
X190322000Y-103312000D01*
X190322000Y-103332000D01*
X190068000Y-103332000D01*
X190068000Y-103312000D01*
X188868750Y-103312000D01*
X188710000Y-103470750D01*
X188710000Y-103750400D01*
X163575902Y-103750400D01*
X162580942Y-102755440D01*
X164592000Y-102755440D01*
X164827317Y-102711162D01*
X165043441Y-102572090D01*
X165154840Y-102409052D01*
X165251182Y-102498385D01*
X165733056Y-102697975D01*
X165989000Y-102578836D01*
X165989000Y-101219000D01*
X166243000Y-101219000D01*
X166243000Y-102578836D01*
X166498944Y-102697975D01*
X166980818Y-102498385D01*
X167453188Y-102060379D01*
X167453963Y-102058691D01*
X188710000Y-102058691D01*
X188710000Y-102899250D01*
X188868750Y-103058000D01*
X190068000Y-103058000D01*
X190068000Y-101708750D01*
X189909250Y-101550000D01*
X189218690Y-101550000D01*
X188985301Y-101646673D01*
X188806673Y-101825302D01*
X188710000Y-102058691D01*
X167453963Y-102058691D01*
X167721983Y-101474946D01*
X167603367Y-101219000D01*
X166243000Y-101219000D01*
X165989000Y-101219000D01*
X165969000Y-101219000D01*
X165969000Y-100965000D01*
X165989000Y-100965000D01*
X165989000Y-99605164D01*
X166243000Y-99605164D01*
X166243000Y-100965000D01*
X167603367Y-100965000D01*
X167721983Y-100709054D01*
X167453188Y-100123621D01*
X166980818Y-99685615D01*
X166498944Y-99486025D01*
X166243000Y-99605164D01*
X165989000Y-99605164D01*
X165733056Y-99486025D01*
X165251182Y-99685615D01*
X165153602Y-99776097D01*
X165056090Y-99624559D01*
X164843890Y-99479569D01*
X164592000Y-99428560D01*
X162560000Y-99428560D01*
X162324683Y-99472838D01*
X162108559Y-99611910D01*
X161963569Y-99824110D01*
X161912560Y-100076000D01*
X161912560Y-102087058D01*
X159511401Y-99685899D01*
X159264839Y-99521152D01*
X158974000Y-99463300D01*
X157305000Y-99463300D01*
X157305000Y-99345750D01*
X157146250Y-99187000D01*
X155797000Y-99187000D01*
X155797000Y-99207000D01*
X155543000Y-99207000D01*
X155543000Y-99187000D01*
X155523000Y-99187000D01*
X155523000Y-98933000D01*
X155543000Y-98933000D01*
X155543000Y-97783750D01*
X155461087Y-97701837D01*
X155464955Y-97692521D01*
X155465243Y-97363132D01*
X155482201Y-97351801D01*
X156072801Y-96761201D01*
X156237548Y-96514639D01*
X156295400Y-96223800D01*
X156295400Y-94323690D01*
X156575000Y-94323690D01*
X156575000Y-94964250D01*
X156733750Y-95123000D01*
X158083000Y-95123000D01*
X158083000Y-93973750D01*
X157924250Y-93815000D01*
X157083691Y-93815000D01*
X156850302Y-93911673D01*
X156671673Y-94090301D01*
X156575000Y-94323690D01*
X156295400Y-94323690D01*
X156295400Y-91391091D01*
X156370255Y-91210821D01*
X156370545Y-90878637D01*
X156243692Y-90571628D01*
X156009007Y-90336534D01*
X155702221Y-90209145D01*
X155370037Y-90208855D01*
X155063028Y-90335708D01*
X154827934Y-90570393D01*
X154700545Y-90877179D01*
X154700255Y-91209363D01*
X154775400Y-91391229D01*
X154775400Y-93629203D01*
X154747401Y-93587299D01*
X154576828Y-93473326D01*
X152231101Y-91127599D01*
X152191735Y-91101296D01*
X153021568Y-90271463D01*
X153156653Y-90073760D01*
X153211137Y-89822598D01*
X153163613Y-89570027D01*
X153137598Y-89530800D01*
X153187909Y-89530800D01*
X153368179Y-89605655D01*
X153554502Y-89605818D01*
X153601673Y-89719698D01*
X153780301Y-89898327D01*
X154013690Y-89995000D01*
X154654250Y-89995000D01*
X154813000Y-89836250D01*
X154813000Y-88487000D01*
X154793000Y-88487000D01*
X154793000Y-88233000D01*
X154813000Y-88233000D01*
X154813000Y-88213000D01*
X155067000Y-88213000D01*
X155067000Y-88233000D01*
X155087000Y-88233000D01*
X155087000Y-88487000D01*
X155067000Y-88487000D01*
X155067000Y-89836250D01*
X155225750Y-89995000D01*
X155866310Y-89995000D01*
X156099699Y-89898327D01*
X156278327Y-89719698D01*
X156375000Y-89486309D01*
X156375000Y-88645750D01*
X156216252Y-88487002D01*
X156292800Y-88487002D01*
X158775400Y-90969602D01*
X158775400Y-93815000D01*
X158495750Y-93815000D01*
X158337000Y-93973750D01*
X158337000Y-95123000D01*
X158357000Y-95123000D01*
X158357000Y-95377000D01*
X158337000Y-95377000D01*
X158337000Y-95397000D01*
X158083000Y-95397000D01*
X158083000Y-95377000D01*
X156733750Y-95377000D01*
X156575000Y-95535750D01*
X156575000Y-96176310D01*
X156671673Y-96409699D01*
X156755334Y-96493360D01*
X156749937Y-96493355D01*
X156442928Y-96620208D01*
X156207834Y-96854893D01*
X156080445Y-97161679D01*
X156080155Y-97493863D01*
X156134339Y-97625000D01*
X155955750Y-97625000D01*
X155797000Y-97783750D01*
X155797000Y-98933000D01*
X157146250Y-98933000D01*
X157305000Y-98774250D01*
X157305000Y-98133690D01*
X157286282Y-98088500D01*
X158391700Y-98088500D01*
X158682539Y-98030648D01*
X158810037Y-97945457D01*
X158897793Y-98033366D01*
X159204579Y-98160755D01*
X159536763Y-98161045D01*
X159843772Y-98034192D01*
X160078866Y-97799507D01*
X160154329Y-97617773D01*
X160810701Y-96961401D01*
X160975448Y-96714840D01*
X161033300Y-96424000D01*
X161033300Y-94633491D01*
X161108155Y-94453221D01*
X161108445Y-94121037D01*
X160981592Y-93814028D01*
X160746907Y-93578934D01*
X160440121Y-93451545D01*
X160295400Y-93451419D01*
X160295400Y-90654800D01*
X160237548Y-90363961D01*
X160072801Y-90117399D01*
X156400802Y-86445400D01*
X174695298Y-86445400D01*
X188287299Y-100037401D01*
X188287299Y-100037401D01*
G37*
X188287299Y-100037401D02*
X188502560Y-100181233D01*
X188502560Y-100500000D01*
X188546838Y-100735317D01*
X188685910Y-100951441D01*
X188898110Y-101096431D01*
X189150000Y-101147440D01*
X190850000Y-101147440D01*
X191085317Y-101103162D01*
X191301441Y-100964090D01*
X191446431Y-100751890D01*
X191476934Y-100601261D01*
X191526400Y-100611100D01*
X192401968Y-100611100D01*
X192316655Y-101040000D01*
X192430729Y-101613489D01*
X192681862Y-101989336D01*
X191613200Y-103057998D01*
X191521252Y-103057998D01*
X191680000Y-102899250D01*
X191680000Y-102058691D01*
X191583327Y-101825302D01*
X191404699Y-101646673D01*
X191171310Y-101550000D01*
X190480750Y-101550000D01*
X190322000Y-101708750D01*
X190322000Y-103058000D01*
X190342000Y-103058000D01*
X190342000Y-103312000D01*
X190322000Y-103312000D01*
X190322000Y-103332000D01*
X190068000Y-103332000D01*
X190068000Y-103312000D01*
X188868750Y-103312000D01*
X188710000Y-103470750D01*
X188710000Y-103750400D01*
X163575902Y-103750400D01*
X162580942Y-102755440D01*
X164592000Y-102755440D01*
X164827317Y-102711162D01*
X165043441Y-102572090D01*
X165154840Y-102409052D01*
X165251182Y-102498385D01*
X165733056Y-102697975D01*
X165989000Y-102578836D01*
X165989000Y-101219000D01*
X166243000Y-101219000D01*
X166243000Y-102578836D01*
X166498944Y-102697975D01*
X166980818Y-102498385D01*
X167453188Y-102060379D01*
X167453963Y-102058691D01*
X188710000Y-102058691D01*
X188710000Y-102899250D01*
X188868750Y-103058000D01*
X190068000Y-103058000D01*
X190068000Y-101708750D01*
X189909250Y-101550000D01*
X189218690Y-101550000D01*
X188985301Y-101646673D01*
X188806673Y-101825302D01*
X188710000Y-102058691D01*
X167453963Y-102058691D01*
X167721983Y-101474946D01*
X167603367Y-101219000D01*
X166243000Y-101219000D01*
X165989000Y-101219000D01*
X165969000Y-101219000D01*
X165969000Y-100965000D01*
X165989000Y-100965000D01*
X165989000Y-99605164D01*
X166243000Y-99605164D01*
X166243000Y-100965000D01*
X167603367Y-100965000D01*
X167721983Y-100709054D01*
X167453188Y-100123621D01*
X166980818Y-99685615D01*
X166498944Y-99486025D01*
X166243000Y-99605164D01*
X165989000Y-99605164D01*
X165733056Y-99486025D01*
X165251182Y-99685615D01*
X165153602Y-99776097D01*
X165056090Y-99624559D01*
X164843890Y-99479569D01*
X164592000Y-99428560D01*
X162560000Y-99428560D01*
X162324683Y-99472838D01*
X162108559Y-99611910D01*
X161963569Y-99824110D01*
X161912560Y-100076000D01*
X161912560Y-102087058D01*
X159511401Y-99685899D01*
X159264839Y-99521152D01*
X158974000Y-99463300D01*
X157305000Y-99463300D01*
X157305000Y-99345750D01*
X157146250Y-99187000D01*
X155797000Y-99187000D01*
X155797000Y-99207000D01*
X155543000Y-99207000D01*
X155543000Y-99187000D01*
X155523000Y-99187000D01*
X155523000Y-98933000D01*
X155543000Y-98933000D01*
X155543000Y-97783750D01*
X155461087Y-97701837D01*
X155464955Y-97692521D01*
X155465243Y-97363132D01*
X155482201Y-97351801D01*
X156072801Y-96761201D01*
X156237548Y-96514639D01*
X156295400Y-96223800D01*
X156295400Y-94323690D01*
X156575000Y-94323690D01*
X156575000Y-94964250D01*
X156733750Y-95123000D01*
X158083000Y-95123000D01*
X158083000Y-93973750D01*
X157924250Y-93815000D01*
X157083691Y-93815000D01*
X156850302Y-93911673D01*
X156671673Y-94090301D01*
X156575000Y-94323690D01*
X156295400Y-94323690D01*
X156295400Y-91391091D01*
X156370255Y-91210821D01*
X156370545Y-90878637D01*
X156243692Y-90571628D01*
X156009007Y-90336534D01*
X155702221Y-90209145D01*
X155370037Y-90208855D01*
X155063028Y-90335708D01*
X154827934Y-90570393D01*
X154700545Y-90877179D01*
X154700255Y-91209363D01*
X154775400Y-91391229D01*
X154775400Y-93629203D01*
X154747401Y-93587299D01*
X154576828Y-93473326D01*
X152231101Y-91127599D01*
X152191735Y-91101296D01*
X153021568Y-90271463D01*
X153156653Y-90073760D01*
X153211137Y-89822598D01*
X153163613Y-89570027D01*
X153137598Y-89530800D01*
X153187909Y-89530800D01*
X153368179Y-89605655D01*
X153554502Y-89605818D01*
X153601673Y-89719698D01*
X153780301Y-89898327D01*
X154013690Y-89995000D01*
X154654250Y-89995000D01*
X154813000Y-89836250D01*
X154813000Y-88487000D01*
X154793000Y-88487000D01*
X154793000Y-88233000D01*
X154813000Y-88233000D01*
X154813000Y-88213000D01*
X155067000Y-88213000D01*
X155067000Y-88233000D01*
X155087000Y-88233000D01*
X155087000Y-88487000D01*
X155067000Y-88487000D01*
X155067000Y-89836250D01*
X155225750Y-89995000D01*
X155866310Y-89995000D01*
X156099699Y-89898327D01*
X156278327Y-89719698D01*
X156375000Y-89486309D01*
X156375000Y-88645750D01*
X156216252Y-88487002D01*
X156292800Y-88487002D01*
X158775400Y-90969602D01*
X158775400Y-93815000D01*
X158495750Y-93815000D01*
X158337000Y-93973750D01*
X158337000Y-95123000D01*
X158357000Y-95123000D01*
X158357000Y-95377000D01*
X158337000Y-95377000D01*
X158337000Y-95397000D01*
X158083000Y-95397000D01*
X158083000Y-95377000D01*
X156733750Y-95377000D01*
X156575000Y-95535750D01*
X156575000Y-96176310D01*
X156671673Y-96409699D01*
X156755334Y-96493360D01*
X156749937Y-96493355D01*
X156442928Y-96620208D01*
X156207834Y-96854893D01*
X156080445Y-97161679D01*
X156080155Y-97493863D01*
X156134339Y-97625000D01*
X155955750Y-97625000D01*
X155797000Y-97783750D01*
X155797000Y-98933000D01*
X157146250Y-98933000D01*
X157305000Y-98774250D01*
X157305000Y-98133690D01*
X157286282Y-98088500D01*
X158391700Y-98088500D01*
X158682539Y-98030648D01*
X158810037Y-97945457D01*
X158897793Y-98033366D01*
X159204579Y-98160755D01*
X159536763Y-98161045D01*
X159843772Y-98034192D01*
X160078866Y-97799507D01*
X160154329Y-97617773D01*
X160810701Y-96961401D01*
X160975448Y-96714840D01*
X161033300Y-96424000D01*
X161033300Y-94633491D01*
X161108155Y-94453221D01*
X161108445Y-94121037D01*
X160981592Y-93814028D01*
X160746907Y-93578934D01*
X160440121Y-93451545D01*
X160295400Y-93451419D01*
X160295400Y-90654800D01*
X160237548Y-90363961D01*
X160072801Y-90117399D01*
X156400802Y-86445400D01*
X174695298Y-86445400D01*
X188287299Y-100037401D01*
G36*
X142560009Y-82846842D02*
X142619930Y-82887785D01*
X142620911Y-82890152D01*
X142651006Y-82920247D01*
X142667441Y-82920247D01*
X142757712Y-82981927D01*
X142890960Y-83010832D01*
X142912938Y-83127635D01*
X142981578Y-83231134D01*
X142981578Y-83250819D01*
X143011673Y-83280914D01*
X143015698Y-83282581D01*
X143054983Y-83341817D01*
X143267115Y-83553949D01*
X143354217Y-83613463D01*
X143408537Y-83695370D01*
X143620669Y-83907502D01*
X143707767Y-83967014D01*
X143762090Y-84048924D01*
X143900634Y-84187468D01*
X143875871Y-84197700D01*
X141022302Y-84197700D01*
X140782836Y-83958234D01*
X140859331Y-83907502D01*
X141071463Y-83695370D01*
X141130975Y-83608272D01*
X141212885Y-83553949D01*
X141425017Y-83341817D01*
X141484531Y-83254715D01*
X141535824Y-83220698D01*
X141652225Y-83243844D01*
X141798300Y-83272900D01*
X141798325Y-83272895D01*
X141798350Y-83272900D01*
X141944471Y-83243825D01*
X142089139Y-83215048D01*
X142089160Y-83215034D01*
X142089185Y-83215029D01*
X142213331Y-83132066D01*
X142335701Y-83050301D01*
X142549585Y-82836418D01*
X142560009Y-82846842D01*
X142560009Y-82846842D01*
G37*
X142560009Y-82846842D02*
X142619930Y-82887785D01*
X142620911Y-82890152D01*
X142651006Y-82920247D01*
X142667441Y-82920247D01*
X142757712Y-82981927D01*
X142890960Y-83010832D01*
X142912938Y-83127635D01*
X142981578Y-83231134D01*
X142981578Y-83250819D01*
X143011673Y-83280914D01*
X143015698Y-83282581D01*
X143054983Y-83341817D01*
X143267115Y-83553949D01*
X143354217Y-83613463D01*
X143408537Y-83695370D01*
X143620669Y-83907502D01*
X143707767Y-83967014D01*
X143762090Y-84048924D01*
X143900634Y-84187468D01*
X143875871Y-84197700D01*
X141022302Y-84197700D01*
X140782836Y-83958234D01*
X140859331Y-83907502D01*
X141071463Y-83695370D01*
X141130975Y-83608272D01*
X141212885Y-83553949D01*
X141425017Y-83341817D01*
X141484531Y-83254715D01*
X141535824Y-83220698D01*
X141652225Y-83243844D01*
X141798300Y-83272900D01*
X141798325Y-83272895D01*
X141798350Y-83272900D01*
X141944471Y-83243825D01*
X142089139Y-83215048D01*
X142089160Y-83215034D01*
X142089185Y-83215029D01*
X142213331Y-83132066D01*
X142335701Y-83050301D01*
X142549585Y-82836418D01*
X142560009Y-82846842D01*
G36*
X141964700Y-73766674D02*
X141789698Y-73591673D01*
X141556309Y-73495000D01*
X140715750Y-73495000D01*
X140557000Y-73653750D01*
X140557000Y-74803000D01*
X140577000Y-74803000D01*
X140577000Y-75057000D01*
X140557000Y-75057000D01*
X140557000Y-76206250D01*
X140715750Y-76365000D01*
X141556309Y-76365000D01*
X141789698Y-76268327D01*
X141964700Y-76093326D01*
X141964700Y-77470000D01*
X142022552Y-77760839D01*
X142187299Y-78007401D01*
X142402560Y-78151233D01*
X142402560Y-78270000D01*
X142446838Y-78505317D01*
X142585910Y-78721441D01*
X142798110Y-78866431D01*
X143050000Y-78917440D01*
X145050000Y-78917440D01*
X145285317Y-78873162D01*
X145501441Y-78734090D01*
X145646431Y-78521890D01*
X145697440Y-78270000D01*
X145697440Y-78151233D01*
X145912701Y-78007401D01*
X146415000Y-77505102D01*
X146415000Y-77597002D01*
X146573748Y-77597002D01*
X146415000Y-77755750D01*
X146415000Y-78396310D01*
X146511673Y-78629699D01*
X146690302Y-78808327D01*
X146923691Y-78905000D01*
X147764250Y-78905000D01*
X147923000Y-78746250D01*
X147923000Y-77597000D01*
X147903000Y-77597000D01*
X147903000Y-77343000D01*
X147923000Y-77343000D01*
X147923000Y-77323000D01*
X148177000Y-77323000D01*
X148177000Y-77343000D01*
X148197000Y-77343000D01*
X148197000Y-77597000D01*
X148177000Y-77597000D01*
X148177000Y-78746250D01*
X148335750Y-78905000D01*
X149176309Y-78905000D01*
X149409698Y-78808327D01*
X149588327Y-78629699D01*
X149685000Y-78396310D01*
X149685000Y-77885402D01*
X151100000Y-79300402D01*
X151100000Y-79832560D01*
X150860000Y-79832560D01*
X150624683Y-79876838D01*
X150408559Y-80015910D01*
X150263569Y-80228110D01*
X150212560Y-80480000D01*
X150212560Y-81664600D01*
X149495000Y-81664600D01*
X149495000Y-81565750D01*
X149336250Y-81407000D01*
X147987000Y-81407000D01*
X147987000Y-81427000D01*
X147733000Y-81427000D01*
X147733000Y-81407000D01*
X146383750Y-81407000D01*
X146363650Y-81427100D01*
X145668209Y-81427100D01*
X145588968Y-81374110D01*
X145529019Y-81284398D01*
X145447101Y-81161799D01*
X145447087Y-81161790D01*
X145447078Y-81161776D01*
X144638923Y-80353690D01*
X146225000Y-80353690D01*
X146225000Y-80994250D01*
X146383750Y-81153000D01*
X147733000Y-81153000D01*
X147733000Y-80003750D01*
X147987000Y-80003750D01*
X147987000Y-81153000D01*
X149336250Y-81153000D01*
X149495000Y-80994250D01*
X149495000Y-80353690D01*
X149398327Y-80120301D01*
X149219698Y-79941673D01*
X148986309Y-79845000D01*
X148145750Y-79845000D01*
X147987000Y-80003750D01*
X147733000Y-80003750D01*
X147574250Y-79845000D01*
X146733691Y-79845000D01*
X146500302Y-79941673D01*
X146321673Y-80120301D01*
X146225000Y-80353690D01*
X144638923Y-80353690D01*
X144289178Y-80003976D01*
X144288277Y-80003374D01*
X144280001Y-79995099D01*
X144033439Y-79830352D01*
X143742600Y-79772500D01*
X143635702Y-79772500D01*
X142171701Y-78308499D01*
X141925139Y-78143752D01*
X141638921Y-78086819D01*
X141246901Y-77694799D01*
X141000339Y-77530052D01*
X140709500Y-77472200D01*
X140047003Y-77472200D01*
X138092701Y-75517899D01*
X138077440Y-75507702D01*
X138077440Y-75215750D01*
X138795000Y-75215750D01*
X138795000Y-75856310D01*
X138891673Y-76089699D01*
X139070302Y-76268327D01*
X139303691Y-76365000D01*
X140144250Y-76365000D01*
X140303000Y-76206250D01*
X140303000Y-75057000D01*
X138953750Y-75057000D01*
X138795000Y-75215750D01*
X138077440Y-75215750D01*
X138077440Y-74130000D01*
X138053674Y-74003690D01*
X138795000Y-74003690D01*
X138795000Y-74644250D01*
X138953750Y-74803000D01*
X140303000Y-74803000D01*
X140303000Y-73653750D01*
X140144250Y-73495000D01*
X139303691Y-73495000D01*
X139070302Y-73591673D01*
X138891673Y-73770301D01*
X138795000Y-74003690D01*
X138053674Y-74003690D01*
X138033162Y-73894683D01*
X137894090Y-73678559D01*
X137681890Y-73533569D01*
X137430000Y-73482560D01*
X135430000Y-73482560D01*
X135194683Y-73526838D01*
X134978559Y-73665910D01*
X134833569Y-73878110D01*
X134782560Y-74130000D01*
X134782560Y-75730000D01*
X134826838Y-75965317D01*
X134965910Y-76181441D01*
X135178110Y-76326431D01*
X135430000Y-76377440D01*
X135748767Y-76377440D01*
X135892599Y-76592701D01*
X136139161Y-76757448D01*
X136430000Y-76815300D01*
X137240498Y-76815300D01*
X139194799Y-78769602D01*
X139349789Y-78873162D01*
X139441361Y-78934348D01*
X139732200Y-78992200D01*
X140394698Y-78992200D01*
X140785799Y-79383301D01*
X141032361Y-79548048D01*
X141044688Y-79550500D01*
X138555200Y-79550500D01*
X138264361Y-79608352D01*
X138017799Y-79773099D01*
X137980738Y-79810160D01*
X137989740Y-79768664D01*
X137942216Y-79516093D01*
X137800171Y-79301911D01*
X136598089Y-78099829D01*
X136400386Y-77964744D01*
X136149224Y-77910260D01*
X135896653Y-77957784D01*
X135682471Y-78099829D01*
X135512751Y-78269549D01*
X131824000Y-74580798D01*
X131824000Y-74307440D01*
X132080000Y-74307440D01*
X132315317Y-74263162D01*
X132531441Y-74124090D01*
X132676431Y-73911890D01*
X132727440Y-73660000D01*
X132727440Y-71628000D01*
X132711747Y-71544600D01*
X141964700Y-71544600D01*
X141964700Y-73766674D01*
X141964700Y-73766674D01*
G37*
X141964700Y-73766674D02*
X141789698Y-73591673D01*
X141556309Y-73495000D01*
X140715750Y-73495000D01*
X140557000Y-73653750D01*
X140557000Y-74803000D01*
X140577000Y-74803000D01*
X140577000Y-75057000D01*
X140557000Y-75057000D01*
X140557000Y-76206250D01*
X140715750Y-76365000D01*
X141556309Y-76365000D01*
X141789698Y-76268327D01*
X141964700Y-76093326D01*
X141964700Y-77470000D01*
X142022552Y-77760839D01*
X142187299Y-78007401D01*
X142402560Y-78151233D01*
X142402560Y-78270000D01*
X142446838Y-78505317D01*
X142585910Y-78721441D01*
X142798110Y-78866431D01*
X143050000Y-78917440D01*
X145050000Y-78917440D01*
X145285317Y-78873162D01*
X145501441Y-78734090D01*
X145646431Y-78521890D01*
X145697440Y-78270000D01*
X145697440Y-78151233D01*
X145912701Y-78007401D01*
X146415000Y-77505102D01*
X146415000Y-77597002D01*
X146573748Y-77597002D01*
X146415000Y-77755750D01*
X146415000Y-78396310D01*
X146511673Y-78629699D01*
X146690302Y-78808327D01*
X146923691Y-78905000D01*
X147764250Y-78905000D01*
X147923000Y-78746250D01*
X147923000Y-77597000D01*
X147903000Y-77597000D01*
X147903000Y-77343000D01*
X147923000Y-77343000D01*
X147923000Y-77323000D01*
X148177000Y-77323000D01*
X148177000Y-77343000D01*
X148197000Y-77343000D01*
X148197000Y-77597000D01*
X148177000Y-77597000D01*
X148177000Y-78746250D01*
X148335750Y-78905000D01*
X149176309Y-78905000D01*
X149409698Y-78808327D01*
X149588327Y-78629699D01*
X149685000Y-78396310D01*
X149685000Y-77885402D01*
X151100000Y-79300402D01*
X151100000Y-79832560D01*
X150860000Y-79832560D01*
X150624683Y-79876838D01*
X150408559Y-80015910D01*
X150263569Y-80228110D01*
X150212560Y-80480000D01*
X150212560Y-81664600D01*
X149495000Y-81664600D01*
X149495000Y-81565750D01*
X149336250Y-81407000D01*
X147987000Y-81407000D01*
X147987000Y-81427000D01*
X147733000Y-81427000D01*
X147733000Y-81407000D01*
X146383750Y-81407000D01*
X146363650Y-81427100D01*
X145668209Y-81427100D01*
X145588968Y-81374110D01*
X145529019Y-81284398D01*
X145447101Y-81161799D01*
X145447087Y-81161790D01*
X145447078Y-81161776D01*
X144638923Y-80353690D01*
X146225000Y-80353690D01*
X146225000Y-80994250D01*
X146383750Y-81153000D01*
X147733000Y-81153000D01*
X147733000Y-80003750D01*
X147987000Y-80003750D01*
X147987000Y-81153000D01*
X149336250Y-81153000D01*
X149495000Y-80994250D01*
X149495000Y-80353690D01*
X149398327Y-80120301D01*
X149219698Y-79941673D01*
X148986309Y-79845000D01*
X148145750Y-79845000D01*
X147987000Y-80003750D01*
X147733000Y-80003750D01*
X147574250Y-79845000D01*
X146733691Y-79845000D01*
X146500302Y-79941673D01*
X146321673Y-80120301D01*
X146225000Y-80353690D01*
X144638923Y-80353690D01*
X144289178Y-80003976D01*
X144288277Y-80003374D01*
X144280001Y-79995099D01*
X144033439Y-79830352D01*
X143742600Y-79772500D01*
X143635702Y-79772500D01*
X142171701Y-78308499D01*
X141925139Y-78143752D01*
X141638921Y-78086819D01*
X141246901Y-77694799D01*
X141000339Y-77530052D01*
X140709500Y-77472200D01*
X140047003Y-77472200D01*
X138092701Y-75517899D01*
X138077440Y-75507702D01*
X138077440Y-75215750D01*
X138795000Y-75215750D01*
X138795000Y-75856310D01*
X138891673Y-76089699D01*
X139070302Y-76268327D01*
X139303691Y-76365000D01*
X140144250Y-76365000D01*
X140303000Y-76206250D01*
X140303000Y-75057000D01*
X138953750Y-75057000D01*
X138795000Y-75215750D01*
X138077440Y-75215750D01*
X138077440Y-74130000D01*
X138053674Y-74003690D01*
X138795000Y-74003690D01*
X138795000Y-74644250D01*
X138953750Y-74803000D01*
X140303000Y-74803000D01*
X140303000Y-73653750D01*
X140144250Y-73495000D01*
X139303691Y-73495000D01*
X139070302Y-73591673D01*
X138891673Y-73770301D01*
X138795000Y-74003690D01*
X138053674Y-74003690D01*
X138033162Y-73894683D01*
X137894090Y-73678559D01*
X137681890Y-73533569D01*
X137430000Y-73482560D01*
X135430000Y-73482560D01*
X135194683Y-73526838D01*
X134978559Y-73665910D01*
X134833569Y-73878110D01*
X134782560Y-74130000D01*
X134782560Y-75730000D01*
X134826838Y-75965317D01*
X134965910Y-76181441D01*
X135178110Y-76326431D01*
X135430000Y-76377440D01*
X135748767Y-76377440D01*
X135892599Y-76592701D01*
X136139161Y-76757448D01*
X136430000Y-76815300D01*
X137240498Y-76815300D01*
X139194799Y-78769602D01*
X139349789Y-78873162D01*
X139441361Y-78934348D01*
X139732200Y-78992200D01*
X140394698Y-78992200D01*
X140785799Y-79383301D01*
X141032361Y-79548048D01*
X141044688Y-79550500D01*
X138555200Y-79550500D01*
X138264361Y-79608352D01*
X138017799Y-79773099D01*
X137980738Y-79810160D01*
X137989740Y-79768664D01*
X137942216Y-79516093D01*
X137800171Y-79301911D01*
X136598089Y-78099829D01*
X136400386Y-77964744D01*
X136149224Y-77910260D01*
X135896653Y-77957784D01*
X135682471Y-78099829D01*
X135512751Y-78269549D01*
X131824000Y-74580798D01*
X131824000Y-74307440D01*
X132080000Y-74307440D01*
X132315317Y-74263162D01*
X132531441Y-74124090D01*
X132676431Y-73911890D01*
X132727440Y-73660000D01*
X132727440Y-71628000D01*
X132711747Y-71544600D01*
X141964700Y-71544600D01*
X141964700Y-73766674D01*
G36*
X127186812Y-71675621D02*
X126918017Y-72261054D01*
X127036633Y-72517000D01*
X128397000Y-72517000D01*
X128397000Y-72497000D01*
X128651000Y-72497000D01*
X128651000Y-72517000D01*
X128671000Y-72517000D01*
X128671000Y-72771000D01*
X128651000Y-72771000D01*
X128651000Y-74130836D01*
X128906944Y-74249975D01*
X129388818Y-74050385D01*
X129486398Y-73959903D01*
X129583910Y-74111441D01*
X129796110Y-74256431D01*
X130048000Y-74307440D01*
X130304000Y-74307440D01*
X130304000Y-74895600D01*
X130361852Y-75186439D01*
X130526599Y-75433001D01*
X131898298Y-76804700D01*
X125591286Y-76804700D01*
X125567440Y-76788767D01*
X125567440Y-76620000D01*
X125523162Y-76384683D01*
X125384090Y-76168559D01*
X125171890Y-76023569D01*
X124920000Y-75972560D01*
X124680000Y-75972560D01*
X124680000Y-73026946D01*
X126918017Y-73026946D01*
X127186812Y-73612379D01*
X127659182Y-74050385D01*
X128141056Y-74249975D01*
X128397000Y-74130836D01*
X128397000Y-72771000D01*
X127036633Y-72771000D01*
X126918017Y-73026946D01*
X124680000Y-73026946D01*
X124680000Y-71544600D01*
X127328112Y-71544600D01*
X127186812Y-71675621D01*
X127186812Y-71675621D01*
G37*
X127186812Y-71675621D02*
X126918017Y-72261054D01*
X127036633Y-72517000D01*
X128397000Y-72517000D01*
X128397000Y-72497000D01*
X128651000Y-72497000D01*
X128651000Y-72517000D01*
X128671000Y-72517000D01*
X128671000Y-72771000D01*
X128651000Y-72771000D01*
X128651000Y-74130836D01*
X128906944Y-74249975D01*
X129388818Y-74050385D01*
X129486398Y-73959903D01*
X129583910Y-74111441D01*
X129796110Y-74256431D01*
X130048000Y-74307440D01*
X130304000Y-74307440D01*
X130304000Y-74895600D01*
X130361852Y-75186439D01*
X130526599Y-75433001D01*
X131898298Y-76804700D01*
X125591286Y-76804700D01*
X125567440Y-76788767D01*
X125567440Y-76620000D01*
X125523162Y-76384683D01*
X125384090Y-76168559D01*
X125171890Y-76023569D01*
X124920000Y-75972560D01*
X124680000Y-75972560D01*
X124680000Y-73026946D01*
X126918017Y-73026946D01*
X127186812Y-73612379D01*
X127659182Y-74050385D01*
X128141056Y-74249975D01*
X128397000Y-74130836D01*
X128397000Y-72771000D01*
X127036633Y-72771000D01*
X126918017Y-73026946D01*
X124680000Y-73026946D01*
X124680000Y-71544600D01*
X127328112Y-71544600D01*
X127186812Y-71675621D01*
G36*
X159907560Y-58297000D02*
X159702440Y-58297000D01*
X159702440Y-58003000D01*
X159907560Y-58003000D01*
X159907560Y-58297000D01*
X159907560Y-58297000D01*
G37*
X159907560Y-58297000D02*
X159702440Y-58297000D01*
X159702440Y-58003000D01*
X159907560Y-58003000D01*
X159907560Y-58297000D01*
M02*
