M48
;DRILL file {KiCad 4.0.2+dfsg1-stable} date Sun 02 Jun 2019 14:52:47 CEST
;FORMAT={-:-/ absolute / metric / decimal}
FMAT,2
METRIC,TZ
T1C0.300
T2C0.800
T3C1.016
T4C3.000
%
G90
G05
M71
T1
X125.684Y-81.82
X126.255Y-80.369
X128.788Y-66.764
X128.975Y-89.478
X130.342Y-93.25
X131.673Y-111.768
X131.987Y-118.526
X132.557Y-87.465
X132.952Y-97.704
X133.019Y-115.458
X133.286Y-98.755
X133.447Y-114.596
X133.463Y-65.532
X134.002Y-117.697
X134.062Y-118.739
X134.427Y-89.991
X134.545Y-99.619
X134.633Y-119.399
X136.03Y-119.219
X136.173Y-118.187
X136.548Y-93.869
X136.795Y-84.351
X137.389Y-83.763
X137.915Y-83.237
X137.944Y-116.089
X138.343Y-86.128
X138.575Y-114.643
X138.693Y-95.905
X138.774Y-118.981
X138.836Y-88.051
X138.913Y-104.943
X139.168Y-87.519
X139.814Y-96.285
X139.843Y-93.934
X139.87Y-91.058
X140.271Y-116.084
X140.476Y-87.72
X140.796Y-115.032
X141.157Y-117.396
X141.215Y-76.931
X141.292Y-99.699
X141.542Y-112.491
X141.717Y-80.854
X141.825Y-104.2
X142.25Y-97.201
X142.454Y-98.554
X142.516Y-82.877
X142.579Y-81.753
X142.747Y-115.273
X142.752Y-96.611
X142.754Y-91.583
X142.916Y-88.462
X143.632Y-85.483
X143.719Y-93.375
X143.788Y-114.828
X144.223Y-84.958
X144.862Y-117.118
X145.135Y-91.728
X145.183Y-95.909
X145.195Y-93.328
X145.288Y-118.984
X145.383Y-85.321
X145.711Y-92.304
X145.842Y-112.361
X146.099Y-96.688
X146.217Y-86.198
X146.616Y-101.031
X146.691Y-99.517
X146.997Y-92.34
X147.201Y-108.38
X147.244Y-110.274
X147.252Y-106.135
X147.293Y-98.921
X147.592Y-105.039
X147.81Y-113.114
X147.85Y-114.615
X148.09Y-109.668
X148.094Y-104.315
X148.174Y-118.757
X148.174Y-117.556
X148.363Y-118.157
X149.572Y-119.444
X149.884Y-93.05
X150.156Y-96.311
X150.208Y-119.119
X150.301Y-96.93
X150.573Y-68.837
X150.692Y-118.705
X150.95Y-112.721
X151.389Y-116.785
X151.461Y-117.587
X151.629Y-119.462
X151.841Y-94.363
X152.025Y-78.335
X152.216Y-97.86
X152.355Y-119.455
X152.464Y-87.12
X152.489Y-95.371
X152.588Y-94.615
X152.657Y-87.776
X153.105Y-96.814
X153.521Y-114.244
X153.535Y-88.771
X153.572Y-119.435
X153.866Y-116.268
X153.957Y-112.721
X154.046Y-102.87
X154.047Y-117.442
X154.221Y-99.623
X154.294Y-118.172
X154.492Y-113.526
X154.595Y-101.415
X154.63Y-97.526
X154.671Y-100.811
X155.473Y-119.463
X155.535Y-91.044
X156.205Y-113.98
X156.305Y-59.449
X156.47Y-110.935
X156.499Y-102.818
X156.543Y-114.541
X156.644Y-116.939
X156.682Y-101.179
X156.915Y-97.328
X157.092Y-117.348
X157.433Y-80.133
X157.66Y-119.452
X158.153Y-100.771
X158.156Y-113.752
X158.212Y-116.497
X158.837Y-59.449
X158.849Y-85.124
X159.371Y-97.326
X160.273Y-94.286
X161.071Y-82.425
X162.101Y-114.278
X162.89Y-106.638
X164.572Y-110.935
X171.244Y-83.861
X191.464Y-103.185
T2
X127.359Y-103.229
X130.81Y-106.68
T3
X128.524Y-72.644
X131.064Y-72.644
X163.576Y-101.092
X166.116Y-101.092
X194.Y-98.5
X194.Y-101.04
X194.Y-103.58
X198.12Y-60.96
X200.66Y-60.96
X203.2Y-78.74
X203.2Y-81.28
X203.2Y-83.82
X203.2Y-86.36
T4
X83.82Y-58.928
X83.82Y-112.268
X208.28Y-58.928
X208.28Y-109.728
T0
M30
