G04 #@! TF.FileFunction,Paste,Top*
%FSLAX46Y46*%
G04 Gerber Fmt 4.6, Leading zero omitted, Abs format (unit mm)*
G04 Created by KiCad (PCBNEW 4.0.2+dfsg1-stable) date Sat 25 May 2019 20:19:09 CEST*
%MOMM*%
G01*
G04 APERTURE LIST*
%ADD10C,0.100000*%
%ADD11R,2.000000X1.600000*%
%ADD12R,1.600000X2.000000*%
%ADD13R,2.000000X1.700000*%
%ADD14R,1.700000X2.000000*%
%ADD15R,2.180000X1.600000*%
%ADD16R,1.800860X1.597660*%
%ADD17R,0.700000X1.750000*%
%ADD18R,1.300000X1.500000*%
%ADD19R,0.800000X1.500000*%
%ADD20R,1.450000X1.000000*%
%ADD21R,0.800000X1.400000*%
%ADD22R,1.500000X1.500000*%
%ADD23R,1.000000X1.550000*%
G04 APERTURE END LIST*
D10*
D11*
X138970000Y-111760000D03*
X142970000Y-111760000D03*
D12*
X123190000Y-93440000D03*
X123190000Y-89440000D03*
D11*
X136430000Y-105410000D03*
X140430000Y-105410000D03*
X147860000Y-81280000D03*
X151860000Y-81280000D03*
D12*
X122428000Y-66580000D03*
X122428000Y-70580000D03*
D11*
X155670000Y-99060000D03*
X151670000Y-99060000D03*
X148050000Y-77470000D03*
X144050000Y-77470000D03*
D12*
X124460000Y-81820000D03*
X124460000Y-85820000D03*
X128270000Y-97250000D03*
X128270000Y-93250000D03*
D11*
X128048000Y-65532000D03*
X132048000Y-65532000D03*
D12*
X154940000Y-88360000D03*
X154940000Y-84360000D03*
X119380000Y-81820000D03*
X119380000Y-85820000D03*
D11*
X140430000Y-74930000D03*
X136430000Y-74930000D03*
X158210000Y-95250000D03*
X154210000Y-95250000D03*
D13*
X191040000Y-78740000D03*
X195040000Y-78740000D03*
D14*
X140208000Y-58960000D03*
X140208000Y-62960000D03*
D13*
X131350000Y-113030000D03*
X135350000Y-113030000D03*
D14*
X120650000Y-97060000D03*
X120650000Y-101060000D03*
X190195000Y-103185000D03*
X190195000Y-107185000D03*
X190000000Y-95500000D03*
X190000000Y-99500000D03*
D10*
G36*
X126749720Y-90352362D02*
X125547638Y-89150280D01*
X126961852Y-87736066D01*
X128163934Y-88938148D01*
X126749720Y-90352362D01*
X126749720Y-90352362D01*
G37*
G36*
X129578148Y-87523934D02*
X128376066Y-86321852D01*
X129790280Y-84907638D01*
X130992362Y-86109720D01*
X129578148Y-87523934D01*
X129578148Y-87523934D01*
G37*
G36*
X133099720Y-84002362D02*
X131897638Y-82800280D01*
X133311852Y-81386066D01*
X134513934Y-82588148D01*
X133099720Y-84002362D01*
X133099720Y-84002362D01*
G37*
G36*
X135928148Y-81173934D02*
X134726066Y-79971852D01*
X136140280Y-78557638D01*
X137342362Y-79759720D01*
X135928148Y-81173934D01*
X135928148Y-81173934D01*
G37*
D13*
X151860000Y-102870000D03*
X147860000Y-102870000D03*
X153956000Y-106680000D03*
X157956000Y-106680000D03*
X145320000Y-107950000D03*
X149320000Y-107950000D03*
X127540000Y-78740000D03*
X131540000Y-78740000D03*
X123920000Y-77470000D03*
X119920000Y-77470000D03*
D15*
X124950000Y-59436000D03*
X134130000Y-59436000D03*
D12*
X147320000Y-62960000D03*
X147320000Y-58960000D03*
D16*
X203200000Y-92560140D03*
X203200000Y-95399860D03*
X208280000Y-92560140D03*
X208280000Y-95399860D03*
D17*
X162005000Y-58150000D03*
D18*
X163205000Y-58275000D03*
D19*
X163455000Y-65875000D03*
D20*
X163130000Y-67375000D03*
D21*
X151505000Y-66525000D03*
D17*
X160905000Y-58150000D03*
X159805000Y-58150000D03*
X158705000Y-58150000D03*
X157605000Y-58150000D03*
X156505000Y-58150000D03*
X155405000Y-58150000D03*
X154305000Y-58150000D03*
D22*
X151855000Y-58275000D03*
D23*
X151905000Y-68950000D03*
D13*
X144050000Y-68580000D03*
X148050000Y-68580000D03*
D14*
X203200000Y-99600000D03*
X203200000Y-103600000D03*
X208280000Y-99600000D03*
X208280000Y-103600000D03*
D10*
G36*
X132128373Y-93278478D02*
X131916241Y-93066346D01*
X132976901Y-92005686D01*
X133189033Y-92217818D01*
X132128373Y-93278478D01*
X132128373Y-93278478D01*
G37*
G36*
X132481926Y-93632031D02*
X132269794Y-93419899D01*
X133330454Y-92359239D01*
X133542586Y-92571371D01*
X132481926Y-93632031D01*
X132481926Y-93632031D01*
G37*
G36*
X132835480Y-93985584D02*
X132623348Y-93773452D01*
X133684008Y-92712792D01*
X133896140Y-92924924D01*
X132835480Y-93985584D01*
X132835480Y-93985584D01*
G37*
G36*
X133189033Y-94339138D02*
X132976901Y-94127006D01*
X134037561Y-93066346D01*
X134249693Y-93278478D01*
X133189033Y-94339138D01*
X133189033Y-94339138D01*
G37*
G36*
X133542587Y-94692691D02*
X133330455Y-94480559D01*
X134391115Y-93419899D01*
X134603247Y-93632031D01*
X133542587Y-94692691D01*
X133542587Y-94692691D01*
G37*
G36*
X133896140Y-95046244D02*
X133684008Y-94834112D01*
X134744668Y-93773452D01*
X134956800Y-93985584D01*
X133896140Y-95046244D01*
X133896140Y-95046244D01*
G37*
G36*
X134249693Y-95399798D02*
X134037561Y-95187666D01*
X135098221Y-94127006D01*
X135310353Y-94339138D01*
X134249693Y-95399798D01*
X134249693Y-95399798D01*
G37*
G36*
X134603247Y-95753351D02*
X134391115Y-95541219D01*
X135451775Y-94480559D01*
X135663907Y-94692691D01*
X134603247Y-95753351D01*
X134603247Y-95753351D01*
G37*
G36*
X134956800Y-96106905D02*
X134744668Y-95894773D01*
X135805328Y-94834113D01*
X136017460Y-95046245D01*
X134956800Y-96106905D01*
X134956800Y-96106905D01*
G37*
G36*
X135310354Y-96460458D02*
X135098222Y-96248326D01*
X136158882Y-95187666D01*
X136371014Y-95399798D01*
X135310354Y-96460458D01*
X135310354Y-96460458D01*
G37*
G36*
X135663907Y-96814011D02*
X135451775Y-96601879D01*
X136512435Y-95541219D01*
X136724567Y-95753351D01*
X135663907Y-96814011D01*
X135663907Y-96814011D01*
G37*
G36*
X136017460Y-97167565D02*
X135805328Y-96955433D01*
X136865988Y-95894773D01*
X137078120Y-96106905D01*
X136017460Y-97167565D01*
X136017460Y-97167565D01*
G37*
G36*
X136371014Y-97521118D02*
X136158882Y-97308986D01*
X137219542Y-96248326D01*
X137431674Y-96460458D01*
X136371014Y-97521118D01*
X136371014Y-97521118D01*
G37*
G36*
X136724567Y-97874672D02*
X136512435Y-97662540D01*
X137573095Y-96601880D01*
X137785227Y-96814012D01*
X136724567Y-97874672D01*
X136724567Y-97874672D01*
G37*
G36*
X137078121Y-98228225D02*
X136865989Y-98016093D01*
X137926649Y-96955433D01*
X138138781Y-97167565D01*
X137078121Y-98228225D01*
X137078121Y-98228225D01*
G37*
G36*
X137431674Y-98581778D02*
X137219542Y-98369646D01*
X138280202Y-97308986D01*
X138492334Y-97521118D01*
X137431674Y-98581778D01*
X137431674Y-98581778D01*
G37*
G36*
X137785227Y-98935332D02*
X137573095Y-98723200D01*
X138633755Y-97662540D01*
X138845887Y-97874672D01*
X137785227Y-98935332D01*
X137785227Y-98935332D01*
G37*
G36*
X138138781Y-99288885D02*
X137926649Y-99076753D01*
X138987309Y-98016093D01*
X139199441Y-98228225D01*
X138138781Y-99288885D01*
X138138781Y-99288885D01*
G37*
G36*
X138492334Y-99642439D02*
X138280202Y-99430307D01*
X139340862Y-98369647D01*
X139552994Y-98581779D01*
X138492334Y-99642439D01*
X138492334Y-99642439D01*
G37*
G36*
X138845888Y-99995992D02*
X138633756Y-99783860D01*
X139694416Y-98723200D01*
X139906548Y-98935332D01*
X138845888Y-99995992D01*
X138845888Y-99995992D01*
G37*
G36*
X139199441Y-100349545D02*
X138987309Y-100137413D01*
X140047969Y-99076753D01*
X140260101Y-99288885D01*
X139199441Y-100349545D01*
X139199441Y-100349545D01*
G37*
G36*
X139552994Y-100703099D02*
X139340862Y-100490967D01*
X140401522Y-99430307D01*
X140613654Y-99642439D01*
X139552994Y-100703099D01*
X139552994Y-100703099D01*
G37*
G36*
X139906548Y-101056652D02*
X139694416Y-100844520D01*
X140755076Y-99783860D01*
X140967208Y-99995992D01*
X139906548Y-101056652D01*
X139906548Y-101056652D01*
G37*
G36*
X140260101Y-101410206D02*
X140047969Y-101198074D01*
X141108629Y-100137414D01*
X141320761Y-100349546D01*
X140260101Y-101410206D01*
X140260101Y-101410206D01*
G37*
G36*
X140613654Y-101763759D02*
X140401522Y-101551627D01*
X141462182Y-100490967D01*
X141674314Y-100703099D01*
X140613654Y-101763759D01*
X140613654Y-101763759D01*
G37*
G36*
X144078478Y-101551627D02*
X143866346Y-101763759D01*
X142805686Y-100703099D01*
X143017818Y-100490967D01*
X144078478Y-101551627D01*
X144078478Y-101551627D01*
G37*
G36*
X144432031Y-101198074D02*
X144219899Y-101410206D01*
X143159239Y-100349546D01*
X143371371Y-100137414D01*
X144432031Y-101198074D01*
X144432031Y-101198074D01*
G37*
G36*
X144785584Y-100844520D02*
X144573452Y-101056652D01*
X143512792Y-99995992D01*
X143724924Y-99783860D01*
X144785584Y-100844520D01*
X144785584Y-100844520D01*
G37*
G36*
X145139138Y-100490967D02*
X144927006Y-100703099D01*
X143866346Y-99642439D01*
X144078478Y-99430307D01*
X145139138Y-100490967D01*
X145139138Y-100490967D01*
G37*
G36*
X145492691Y-100137413D02*
X145280559Y-100349545D01*
X144219899Y-99288885D01*
X144432031Y-99076753D01*
X145492691Y-100137413D01*
X145492691Y-100137413D01*
G37*
G36*
X145846244Y-99783860D02*
X145634112Y-99995992D01*
X144573452Y-98935332D01*
X144785584Y-98723200D01*
X145846244Y-99783860D01*
X145846244Y-99783860D01*
G37*
G36*
X146199798Y-99430307D02*
X145987666Y-99642439D01*
X144927006Y-98581779D01*
X145139138Y-98369647D01*
X146199798Y-99430307D01*
X146199798Y-99430307D01*
G37*
G36*
X146553351Y-99076753D02*
X146341219Y-99288885D01*
X145280559Y-98228225D01*
X145492691Y-98016093D01*
X146553351Y-99076753D01*
X146553351Y-99076753D01*
G37*
G36*
X146906905Y-98723200D02*
X146694773Y-98935332D01*
X145634113Y-97874672D01*
X145846245Y-97662540D01*
X146906905Y-98723200D01*
X146906905Y-98723200D01*
G37*
G36*
X147260458Y-98369646D02*
X147048326Y-98581778D01*
X145987666Y-97521118D01*
X146199798Y-97308986D01*
X147260458Y-98369646D01*
X147260458Y-98369646D01*
G37*
G36*
X147614011Y-98016093D02*
X147401879Y-98228225D01*
X146341219Y-97167565D01*
X146553351Y-96955433D01*
X147614011Y-98016093D01*
X147614011Y-98016093D01*
G37*
G36*
X147967565Y-97662540D02*
X147755433Y-97874672D01*
X146694773Y-96814012D01*
X146906905Y-96601880D01*
X147967565Y-97662540D01*
X147967565Y-97662540D01*
G37*
G36*
X148321118Y-97308986D02*
X148108986Y-97521118D01*
X147048326Y-96460458D01*
X147260458Y-96248326D01*
X148321118Y-97308986D01*
X148321118Y-97308986D01*
G37*
G36*
X148674672Y-96955433D02*
X148462540Y-97167565D01*
X147401880Y-96106905D01*
X147614012Y-95894773D01*
X148674672Y-96955433D01*
X148674672Y-96955433D01*
G37*
G36*
X149028225Y-96601879D02*
X148816093Y-96814011D01*
X147755433Y-95753351D01*
X147967565Y-95541219D01*
X149028225Y-96601879D01*
X149028225Y-96601879D01*
G37*
G36*
X149381778Y-96248326D02*
X149169646Y-96460458D01*
X148108986Y-95399798D01*
X148321118Y-95187666D01*
X149381778Y-96248326D01*
X149381778Y-96248326D01*
G37*
G36*
X149735332Y-95894773D02*
X149523200Y-96106905D01*
X148462540Y-95046245D01*
X148674672Y-94834113D01*
X149735332Y-95894773D01*
X149735332Y-95894773D01*
G37*
G36*
X150088885Y-95541219D02*
X149876753Y-95753351D01*
X148816093Y-94692691D01*
X149028225Y-94480559D01*
X150088885Y-95541219D01*
X150088885Y-95541219D01*
G37*
G36*
X150442439Y-95187666D02*
X150230307Y-95399798D01*
X149169647Y-94339138D01*
X149381779Y-94127006D01*
X150442439Y-95187666D01*
X150442439Y-95187666D01*
G37*
G36*
X150795992Y-94834112D02*
X150583860Y-95046244D01*
X149523200Y-93985584D01*
X149735332Y-93773452D01*
X150795992Y-94834112D01*
X150795992Y-94834112D01*
G37*
G36*
X151149545Y-94480559D02*
X150937413Y-94692691D01*
X149876753Y-93632031D01*
X150088885Y-93419899D01*
X151149545Y-94480559D01*
X151149545Y-94480559D01*
G37*
G36*
X151503099Y-94127006D02*
X151290967Y-94339138D01*
X150230307Y-93278478D01*
X150442439Y-93066346D01*
X151503099Y-94127006D01*
X151503099Y-94127006D01*
G37*
G36*
X151856652Y-93773452D02*
X151644520Y-93985584D01*
X150583860Y-92924924D01*
X150795992Y-92712792D01*
X151856652Y-93773452D01*
X151856652Y-93773452D01*
G37*
G36*
X152210206Y-93419899D02*
X151998074Y-93632031D01*
X150937414Y-92571371D01*
X151149546Y-92359239D01*
X152210206Y-93419899D01*
X152210206Y-93419899D01*
G37*
G36*
X152563759Y-93066346D02*
X152351627Y-93278478D01*
X151290967Y-92217818D01*
X151503099Y-92005686D01*
X152563759Y-93066346D01*
X152563759Y-93066346D01*
G37*
G36*
X151503099Y-90874314D02*
X151290967Y-90662182D01*
X152351627Y-89601522D01*
X152563759Y-89813654D01*
X151503099Y-90874314D01*
X151503099Y-90874314D01*
G37*
G36*
X151149546Y-90520761D02*
X150937414Y-90308629D01*
X151998074Y-89247969D01*
X152210206Y-89460101D01*
X151149546Y-90520761D01*
X151149546Y-90520761D01*
G37*
G36*
X150795992Y-90167208D02*
X150583860Y-89955076D01*
X151644520Y-88894416D01*
X151856652Y-89106548D01*
X150795992Y-90167208D01*
X150795992Y-90167208D01*
G37*
G36*
X150442439Y-89813654D02*
X150230307Y-89601522D01*
X151290967Y-88540862D01*
X151503099Y-88752994D01*
X150442439Y-89813654D01*
X150442439Y-89813654D01*
G37*
G36*
X150088885Y-89460101D02*
X149876753Y-89247969D01*
X150937413Y-88187309D01*
X151149545Y-88399441D01*
X150088885Y-89460101D01*
X150088885Y-89460101D01*
G37*
G36*
X149735332Y-89106548D02*
X149523200Y-88894416D01*
X150583860Y-87833756D01*
X150795992Y-88045888D01*
X149735332Y-89106548D01*
X149735332Y-89106548D01*
G37*
G36*
X149381779Y-88752994D02*
X149169647Y-88540862D01*
X150230307Y-87480202D01*
X150442439Y-87692334D01*
X149381779Y-88752994D01*
X149381779Y-88752994D01*
G37*
G36*
X149028225Y-88399441D02*
X148816093Y-88187309D01*
X149876753Y-87126649D01*
X150088885Y-87338781D01*
X149028225Y-88399441D01*
X149028225Y-88399441D01*
G37*
G36*
X148674672Y-88045887D02*
X148462540Y-87833755D01*
X149523200Y-86773095D01*
X149735332Y-86985227D01*
X148674672Y-88045887D01*
X148674672Y-88045887D01*
G37*
G36*
X148321118Y-87692334D02*
X148108986Y-87480202D01*
X149169646Y-86419542D01*
X149381778Y-86631674D01*
X148321118Y-87692334D01*
X148321118Y-87692334D01*
G37*
G36*
X147967565Y-87338781D02*
X147755433Y-87126649D01*
X148816093Y-86065989D01*
X149028225Y-86278121D01*
X147967565Y-87338781D01*
X147967565Y-87338781D01*
G37*
G36*
X147614012Y-86985227D02*
X147401880Y-86773095D01*
X148462540Y-85712435D01*
X148674672Y-85924567D01*
X147614012Y-86985227D01*
X147614012Y-86985227D01*
G37*
G36*
X147260458Y-86631674D02*
X147048326Y-86419542D01*
X148108986Y-85358882D01*
X148321118Y-85571014D01*
X147260458Y-86631674D01*
X147260458Y-86631674D01*
G37*
G36*
X146906905Y-86278120D02*
X146694773Y-86065988D01*
X147755433Y-85005328D01*
X147967565Y-85217460D01*
X146906905Y-86278120D01*
X146906905Y-86278120D01*
G37*
G36*
X146553351Y-85924567D02*
X146341219Y-85712435D01*
X147401879Y-84651775D01*
X147614011Y-84863907D01*
X146553351Y-85924567D01*
X146553351Y-85924567D01*
G37*
G36*
X146199798Y-85571014D02*
X145987666Y-85358882D01*
X147048326Y-84298222D01*
X147260458Y-84510354D01*
X146199798Y-85571014D01*
X146199798Y-85571014D01*
G37*
G36*
X145846245Y-85217460D02*
X145634113Y-85005328D01*
X146694773Y-83944668D01*
X146906905Y-84156800D01*
X145846245Y-85217460D01*
X145846245Y-85217460D01*
G37*
G36*
X145492691Y-84863907D02*
X145280559Y-84651775D01*
X146341219Y-83591115D01*
X146553351Y-83803247D01*
X145492691Y-84863907D01*
X145492691Y-84863907D01*
G37*
G36*
X145139138Y-84510353D02*
X144927006Y-84298221D01*
X145987666Y-83237561D01*
X146199798Y-83449693D01*
X145139138Y-84510353D01*
X145139138Y-84510353D01*
G37*
G36*
X144785584Y-84156800D02*
X144573452Y-83944668D01*
X145634112Y-82884008D01*
X145846244Y-83096140D01*
X144785584Y-84156800D01*
X144785584Y-84156800D01*
G37*
G36*
X144432031Y-83803247D02*
X144219899Y-83591115D01*
X145280559Y-82530455D01*
X145492691Y-82742587D01*
X144432031Y-83803247D01*
X144432031Y-83803247D01*
G37*
G36*
X144078478Y-83449693D02*
X143866346Y-83237561D01*
X144927006Y-82176901D01*
X145139138Y-82389033D01*
X144078478Y-83449693D01*
X144078478Y-83449693D01*
G37*
G36*
X143724924Y-83096140D02*
X143512792Y-82884008D01*
X144573452Y-81823348D01*
X144785584Y-82035480D01*
X143724924Y-83096140D01*
X143724924Y-83096140D01*
G37*
G36*
X143371371Y-82742586D02*
X143159239Y-82530454D01*
X144219899Y-81469794D01*
X144432031Y-81681926D01*
X143371371Y-82742586D01*
X143371371Y-82742586D01*
G37*
G36*
X143017818Y-82389033D02*
X142805686Y-82176901D01*
X143866346Y-81116241D01*
X144078478Y-81328373D01*
X143017818Y-82389033D01*
X143017818Y-82389033D01*
G37*
G36*
X141674314Y-82176901D02*
X141462182Y-82389033D01*
X140401522Y-81328373D01*
X140613654Y-81116241D01*
X141674314Y-82176901D01*
X141674314Y-82176901D01*
G37*
G36*
X141320761Y-82530454D02*
X141108629Y-82742586D01*
X140047969Y-81681926D01*
X140260101Y-81469794D01*
X141320761Y-82530454D01*
X141320761Y-82530454D01*
G37*
G36*
X140967208Y-82884008D02*
X140755076Y-83096140D01*
X139694416Y-82035480D01*
X139906548Y-81823348D01*
X140967208Y-82884008D01*
X140967208Y-82884008D01*
G37*
G36*
X140613654Y-83237561D02*
X140401522Y-83449693D01*
X139340862Y-82389033D01*
X139552994Y-82176901D01*
X140613654Y-83237561D01*
X140613654Y-83237561D01*
G37*
G36*
X140260101Y-83591115D02*
X140047969Y-83803247D01*
X138987309Y-82742587D01*
X139199441Y-82530455D01*
X140260101Y-83591115D01*
X140260101Y-83591115D01*
G37*
G36*
X139906548Y-83944668D02*
X139694416Y-84156800D01*
X138633756Y-83096140D01*
X138845888Y-82884008D01*
X139906548Y-83944668D01*
X139906548Y-83944668D01*
G37*
G36*
X139552994Y-84298221D02*
X139340862Y-84510353D01*
X138280202Y-83449693D01*
X138492334Y-83237561D01*
X139552994Y-84298221D01*
X139552994Y-84298221D01*
G37*
G36*
X139199441Y-84651775D02*
X138987309Y-84863907D01*
X137926649Y-83803247D01*
X138138781Y-83591115D01*
X139199441Y-84651775D01*
X139199441Y-84651775D01*
G37*
G36*
X138845887Y-85005328D02*
X138633755Y-85217460D01*
X137573095Y-84156800D01*
X137785227Y-83944668D01*
X138845887Y-85005328D01*
X138845887Y-85005328D01*
G37*
G36*
X138492334Y-85358882D02*
X138280202Y-85571014D01*
X137219542Y-84510354D01*
X137431674Y-84298222D01*
X138492334Y-85358882D01*
X138492334Y-85358882D01*
G37*
G36*
X138138781Y-85712435D02*
X137926649Y-85924567D01*
X136865989Y-84863907D01*
X137078121Y-84651775D01*
X138138781Y-85712435D01*
X138138781Y-85712435D01*
G37*
G36*
X137785227Y-86065988D02*
X137573095Y-86278120D01*
X136512435Y-85217460D01*
X136724567Y-85005328D01*
X137785227Y-86065988D01*
X137785227Y-86065988D01*
G37*
G36*
X137431674Y-86419542D02*
X137219542Y-86631674D01*
X136158882Y-85571014D01*
X136371014Y-85358882D01*
X137431674Y-86419542D01*
X137431674Y-86419542D01*
G37*
G36*
X137078120Y-86773095D02*
X136865988Y-86985227D01*
X135805328Y-85924567D01*
X136017460Y-85712435D01*
X137078120Y-86773095D01*
X137078120Y-86773095D01*
G37*
G36*
X136724567Y-87126649D02*
X136512435Y-87338781D01*
X135451775Y-86278121D01*
X135663907Y-86065989D01*
X136724567Y-87126649D01*
X136724567Y-87126649D01*
G37*
G36*
X136371014Y-87480202D02*
X136158882Y-87692334D01*
X135098222Y-86631674D01*
X135310354Y-86419542D01*
X136371014Y-87480202D01*
X136371014Y-87480202D01*
G37*
G36*
X136017460Y-87833755D02*
X135805328Y-88045887D01*
X134744668Y-86985227D01*
X134956800Y-86773095D01*
X136017460Y-87833755D01*
X136017460Y-87833755D01*
G37*
G36*
X135663907Y-88187309D02*
X135451775Y-88399441D01*
X134391115Y-87338781D01*
X134603247Y-87126649D01*
X135663907Y-88187309D01*
X135663907Y-88187309D01*
G37*
G36*
X135310353Y-88540862D02*
X135098221Y-88752994D01*
X134037561Y-87692334D01*
X134249693Y-87480202D01*
X135310353Y-88540862D01*
X135310353Y-88540862D01*
G37*
G36*
X134956800Y-88894416D02*
X134744668Y-89106548D01*
X133684008Y-88045888D01*
X133896140Y-87833756D01*
X134956800Y-88894416D01*
X134956800Y-88894416D01*
G37*
G36*
X134603247Y-89247969D02*
X134391115Y-89460101D01*
X133330455Y-88399441D01*
X133542587Y-88187309D01*
X134603247Y-89247969D01*
X134603247Y-89247969D01*
G37*
G36*
X134249693Y-89601522D02*
X134037561Y-89813654D01*
X132976901Y-88752994D01*
X133189033Y-88540862D01*
X134249693Y-89601522D01*
X134249693Y-89601522D01*
G37*
G36*
X133896140Y-89955076D02*
X133684008Y-90167208D01*
X132623348Y-89106548D01*
X132835480Y-88894416D01*
X133896140Y-89955076D01*
X133896140Y-89955076D01*
G37*
G36*
X133542586Y-90308629D02*
X133330454Y-90520761D01*
X132269794Y-89460101D01*
X132481926Y-89247969D01*
X133542586Y-90308629D01*
X133542586Y-90308629D01*
G37*
G36*
X133189033Y-90662182D02*
X132976901Y-90874314D01*
X131916241Y-89813654D01*
X132128373Y-89601522D01*
X133189033Y-90662182D01*
X133189033Y-90662182D01*
G37*
M02*
