M48
;DRILL file {KiCad 4.0.2+dfsg1-stable} date gio 27 giu 2019 16:47:14 CEST
;FORMAT={-:-/ absolute / inch / decimal}
FMAT,2
INCH,TZ
T1C0.012
T2C0.031
T3C0.040
T4C0.118
%
G90
G05
M72
T1
X4.778Y-3.0609
X5.1365Y-3.4397
X5.1556Y-3.4689
X5.1985Y-4.3568
X5.2043Y-4.7033
X5.2183Y-3.7114
X5.219Y-4.6701
X5.2346Y-3.7356
X5.2512Y-4.6756
X5.2535Y-3.7567
X5.2552Y-2.5578
X5.2722Y-3.8025
X5.2722Y-3.9723
X5.3145Y-3.6404
X5.315Y-3.5781
X5.3171Y-4.5406
X5.3191Y-3.6157
X5.3644Y-3.492
X5.4092Y-4.6638
X5.4241Y-4.4463
X5.4243Y-3.7451
X5.4309Y-4.6298
X5.4321Y-3.5316
X5.4405Y-4.4954
X5.4414Y-3.7931
X5.4449Y-4.6853
X5.4449Y-4.5778
X5.4491Y-3.3963
X5.4635Y-3.5305
X5.4648Y-4.5588
X5.4747Y-3.6368
X5.4835Y-3.7243
X5.4905Y-4.4945
X5.517Y-3.4502
X5.5201Y-4.6816
X5.528Y-3.0305
X5.5342Y-3.4295
X5.5539Y-4.4172
X5.5549Y-4.3638
X5.573Y-3.715
X5.5897Y-3.5985
X5.5935Y-3.4705
X5.599Y-3.7048
X5.6042Y-3.9837
X5.6078Y-3.4301
X5.6142Y-3.3971
X5.6204Y-2.8669
X5.6378Y-4.2
X5.6476Y-3.9077
X5.6487Y-3.8753
X5.6591Y-3.4179
X5.6761Y-4.5155
X5.6858Y-3.6936
X5.6882Y-3.7302
X5.6895Y-4.5362
X5.6935Y-4.4727
X5.699Y-4.3333
X5.7058Y-4.7026
X5.7079Y-3.3588
X5.7449Y-3.7524
X5.746Y-3.3817
X5.7473Y-3.9629
X5.7562Y-4.5991
X5.7615Y-3.2429
X5.7636Y-3.9339
X5.766Y-4.3837
X5.7681Y-3.4301
X5.8006Y-3.4931
X5.8308Y-4.6358
X5.831Y-3.6287
X5.8674Y-4.6364
X5.8816Y-3.1929
X5.8842Y-3.05
X5.8887Y-4.7031
X5.896Y-4.3005
X5.9155Y-3.9
X5.9198Y-4.0435
X5.9322Y-4.6609
X5.9479Y-3.9526
X5.9674Y-4.6921
X5.9827Y-3.4856
X5.9918Y-2.3407
X5.997Y-4.1221
X6.0033Y-3.411
X6.0043Y-4.641
X6.0046Y-2.4091
X6.0104Y-3.4947
X6.0263Y-2.7101
X6.0438Y-4.7016
X6.0444Y-2.5512
X6.0745Y-4.6452
X6.0785Y-2.3401
X6.1217Y-4.7031
X6.1289Y-4.6788
X6.1594Y-4.6244
X6.2163Y-4.7023
X6.2195Y-4.5099
X6.2199Y-4.5974
X6.2527Y-2.3405
X6.2674Y-4.5285
X6.2803Y-4.0923
X6.3256Y-4.5921
X6.4047Y-2.2439
X6.4106Y-4.2211
X7.5308Y-4.1639
T2
X5.0141Y-4.0641
X5.15Y-4.2
T3
X5.06Y-2.86
X5.16Y-2.86
X6.44Y-3.98
X6.54Y-3.98
X7.6378Y-3.878
X7.6378Y-3.978
X7.6378Y-4.078
X7.8Y-2.4
X7.9Y-2.4
X8.Y-3.1
X8.Y-3.2
X8.Y-3.3
X8.Y-3.4
T4
X3.3Y-2.32
X3.3Y-4.42
X8.2Y-2.32
X8.2Y-4.32
T0
M30
