G04 #@! TF.FileFunction,Copper,L2,Bot,Signal*
%FSLAX46Y46*%
G04 Gerber Fmt 4.6, Leading zero omitted, Abs format (unit mm)*
G04 Created by KiCad (PCBNEW 4.0.2+dfsg1-stable) date Sat 25 May 2019 20:19:09 CEST*
%MOMM*%
G01*
G04 APERTURE LIST*
%ADD10C,0.100000*%
%ADD11R,2.032000X2.032000*%
%ADD12O,2.032000X2.032000*%
%ADD13R,2.032000X1.727200*%
%ADD14O,2.032000X1.727200*%
%ADD15C,4.000000*%
%ADD16C,1.500000*%
%ADD17C,0.650000*%
%ADD18O,0.650000X0.650000*%
%ADD19R,0.650000X4.600000*%
%ADD20C,0.400000*%
%ADD21C,0.250000*%
%ADD22C,0.254000*%
G04 APERTURE END LIST*
D10*
D11*
X131064000Y-72644000D03*
D12*
X128524000Y-72644000D03*
D11*
X163576000Y-101092000D03*
D12*
X166116000Y-101092000D03*
D13*
X194000000Y-98500000D03*
D14*
X194000000Y-101040000D03*
X194000000Y-103580000D03*
D11*
X198120000Y-60960000D03*
D12*
X200660000Y-60960000D03*
D13*
X203200000Y-78740000D03*
D14*
X203200000Y-81280000D03*
X203200000Y-83820000D03*
X203200000Y-86360000D03*
D15*
X83820000Y-58928000D03*
X208280000Y-109728000D03*
X83820000Y-112268000D03*
X208280000Y-58928000D03*
D16*
X130810000Y-106680000D03*
X127359319Y-103229319D03*
D17*
X131572000Y-124466000D03*
D18*
X151572000Y-124466000D03*
D19*
X151572000Y-122166000D03*
X131572000Y-122166000D03*
X132572000Y-122166000D03*
X133572000Y-122166000D03*
X134572000Y-122166000D03*
X135572000Y-122166000D03*
X136572000Y-122166000D03*
X137572000Y-122166000D03*
X138572000Y-122166000D03*
X139572000Y-122166000D03*
X140572000Y-122166000D03*
X141572000Y-122166000D03*
X146572000Y-122166000D03*
X147572000Y-122166000D03*
X148572000Y-122166000D03*
X149572000Y-122166000D03*
X150572000Y-122166000D03*
X144572000Y-122166000D03*
X145572000Y-122166000D03*
D18*
X134572000Y-124466000D03*
X135572000Y-124466000D03*
X136572000Y-124466000D03*
X137572000Y-124466000D03*
X138572000Y-124466000D03*
X139572000Y-124466000D03*
X140572000Y-124466000D03*
X146572000Y-124466000D03*
X147572000Y-124466000D03*
X133572000Y-124466000D03*
X145572000Y-124466000D03*
X148572000Y-124466000D03*
X141572000Y-124466000D03*
X144572000Y-124466000D03*
X149572000Y-124466000D03*
X150572000Y-124466000D03*
X132572000Y-124466000D03*
D19*
X152572000Y-122166000D03*
X153572000Y-122166000D03*
X154572000Y-122166000D03*
X155572000Y-122166000D03*
X156572000Y-122166000D03*
X157572000Y-122166000D03*
X158572000Y-122166000D03*
X159572000Y-122166000D03*
X160572000Y-122166000D03*
X161572000Y-122166000D03*
X162572000Y-122166000D03*
X163572000Y-122166000D03*
X164572000Y-122166000D03*
D18*
X152572000Y-124466000D03*
X153572000Y-124466000D03*
X154572000Y-124466000D03*
X155572000Y-124466000D03*
X156572000Y-124466000D03*
X157572000Y-124466000D03*
X158572000Y-124466000D03*
X159572000Y-124466000D03*
X160572000Y-124466000D03*
X161572000Y-124466000D03*
X162572000Y-124466000D03*
X163572000Y-124466000D03*
X164572000Y-124466000D03*
D20*
X157660400Y-119452300D03*
X191463800Y-103185000D03*
X145842000Y-112360700D03*
X141292500Y-99698800D03*
X142515600Y-82877400D03*
X141215000Y-76931100D03*
X153957500Y-112720900D03*
X153866100Y-116268500D03*
X150949700Y-112720900D03*
X140270700Y-116083900D03*
X149572000Y-119444500D03*
X158156100Y-113752400D03*
X158212300Y-116496700D03*
X131987000Y-118525600D03*
X153572000Y-119434800D03*
X128787800Y-66764500D03*
X125684500Y-81820000D03*
X136548200Y-93869400D03*
X142754100Y-91583300D03*
X140476400Y-87719900D03*
X148174000Y-118757200D03*
X151461200Y-117586500D03*
X149884200Y-93049900D03*
X151841200Y-94362900D03*
X152354900Y-119455200D03*
X145194700Y-93328400D03*
X134426800Y-89990800D03*
X138693300Y-95904700D03*
X146691400Y-99516900D03*
X147252500Y-106135200D03*
X164572000Y-110935200D03*
X156469900Y-110935200D03*
X144223100Y-84957700D03*
X162100800Y-114277700D03*
X156204800Y-113980100D03*
X143632200Y-85483000D03*
X137914900Y-83236700D03*
X137389500Y-83762700D03*
X146217100Y-86198000D03*
X136795300Y-84351000D03*
X141716600Y-80854400D03*
X155535400Y-91044000D03*
X153104900Y-96814400D03*
X148174100Y-117556400D03*
X139167800Y-87518600D03*
X146996900Y-92339900D03*
X148363500Y-118156800D03*
X150691900Y-118704700D03*
X150208300Y-119118900D03*
X156915300Y-97328500D03*
X156682000Y-101179400D03*
X154594800Y-101414700D03*
X154293600Y-118171800D03*
X147849800Y-114615000D03*
X145711000Y-92304200D03*
X145135200Y-91728400D03*
X147810300Y-113114000D03*
X141541800Y-112491300D03*
X141157000Y-117395700D03*
X143718700Y-93375200D03*
X143788500Y-114827700D03*
X139870200Y-91058000D03*
X136173300Y-118186800D03*
X134633500Y-119399300D03*
X142915600Y-88461800D03*
X138342600Y-86128000D03*
X134002300Y-117696600D03*
X142454000Y-98554200D03*
X147201400Y-108379800D03*
X147243700Y-110273900D03*
X154491700Y-113526100D03*
X154046600Y-117442200D03*
X144861500Y-117118000D03*
X138835800Y-88050700D03*
X146098700Y-96688100D03*
X148089700Y-109668000D03*
X148094400Y-104315000D03*
X151388700Y-116785400D03*
X150155600Y-96310900D03*
X145183200Y-95908600D03*
X145287800Y-118983900D03*
X140796100Y-115031700D03*
X142250100Y-97201200D03*
X142751700Y-96611300D03*
X142747400Y-115272700D03*
X138774100Y-118981000D03*
X139813700Y-96285000D03*
X139843300Y-93934100D03*
X136030200Y-119218800D03*
X150301000Y-96930200D03*
X134061900Y-118739100D03*
X153521000Y-114243700D03*
X152488900Y-95371200D03*
X158152600Y-100770800D03*
X145383500Y-85321400D03*
X147592100Y-105039000D03*
X147292900Y-98920800D03*
X162890400Y-106638300D03*
X131673500Y-111767800D03*
X132952200Y-97704300D03*
X126254700Y-80368900D03*
X132557000Y-87464800D03*
X151629100Y-119461800D03*
X157432700Y-80132800D03*
X158849000Y-85124000D03*
X130341700Y-93250000D03*
X128974800Y-89477600D03*
X156644200Y-116938900D03*
X156499300Y-102817800D03*
X152588400Y-94615400D03*
X154046400Y-102870000D03*
X156542700Y-114540800D03*
X155472600Y-119463100D03*
X146616400Y-101031000D03*
X154220800Y-99622600D03*
X141824700Y-104200500D03*
X152215600Y-97859700D03*
X157092000Y-117348000D03*
X138575100Y-114642900D03*
X133447000Y-114596000D03*
X138913100Y-104943000D03*
X133286300Y-98755000D03*
X133463500Y-65532000D03*
X134544800Y-99619400D03*
X137944200Y-116089100D03*
X133019400Y-115457900D03*
X152025400Y-78335500D03*
X161071200Y-82424600D03*
X160273300Y-94286400D03*
X159371400Y-97325900D03*
X142579400Y-81752600D03*
X171244100Y-83861500D03*
X152463700Y-87119800D03*
X150573300Y-68836500D03*
X153535000Y-88770800D03*
X158837300Y-59449400D03*
X152656700Y-87776400D03*
X156305000Y-59449400D03*
X154630100Y-97525700D03*
X154671100Y-100811500D03*
D21*
X157572000Y-122166000D02*
X157572000Y-119540700D01*
X157660400Y-119452300D02*
X157572000Y-119540700D01*
X191463800Y-101705000D02*
X191463800Y-103185000D01*
X193479900Y-99688900D02*
X191463800Y-101705000D01*
X194000000Y-99688900D02*
X193479900Y-99688900D01*
X200660000Y-75011100D02*
X200660000Y-60960000D01*
X203200000Y-77551100D02*
X200660000Y-75011100D01*
X203200000Y-78740000D02*
X203200000Y-77551100D01*
X194000000Y-99012300D02*
X194000000Y-99688900D01*
X194000000Y-99012300D02*
X194000000Y-98500000D01*
X202679900Y-79928900D02*
X203200000Y-79928900D01*
X194000000Y-88608800D02*
X202679900Y-79928900D01*
X194000000Y-98500000D02*
X194000000Y-88608800D01*
X203200000Y-78740000D02*
X203200000Y-79928900D01*
X145572000Y-122166000D02*
X145572000Y-119540700D01*
X149572000Y-122166000D02*
X149572000Y-119540700D01*
X149572000Y-119444500D02*
X149572000Y-119540700D01*
X131572000Y-122166000D02*
X131572000Y-119540700D01*
X153572000Y-119434800D02*
X153572000Y-122166000D01*
X158207100Y-118905600D02*
X158207100Y-116496700D01*
X157660400Y-119452300D02*
X158207100Y-118905600D01*
X158212300Y-116496700D02*
X158207100Y-116496700D01*
X158156100Y-116445700D02*
X158156100Y-113752400D01*
X158207100Y-116496700D02*
X158156100Y-116445700D01*
X149572000Y-119012300D02*
X149572000Y-119444500D01*
X150863400Y-117720900D02*
X149572000Y-119012300D01*
X150863400Y-112807200D02*
X150863400Y-117720900D01*
X150949700Y-112720900D02*
X150863400Y-112807200D01*
X141157600Y-76988500D02*
X141215000Y-76931100D01*
X141157600Y-81519400D02*
X141157600Y-76988500D01*
X142515600Y-82877400D02*
X141157600Y-81519400D01*
X128524000Y-67028300D02*
X128787800Y-66764500D01*
X128524000Y-72644000D02*
X128524000Y-67028300D01*
X128524000Y-72644000D02*
X128524000Y-73985300D01*
X125684500Y-76824800D02*
X125684500Y-81820000D01*
X128524000Y-73985300D02*
X125684500Y-76824800D01*
X139572000Y-122166000D02*
X139572000Y-119540700D01*
X135572000Y-122166000D02*
X135572000Y-119540700D01*
X131987000Y-119125700D02*
X131987000Y-118525600D01*
X131572000Y-119540700D02*
X131987000Y-119125700D01*
X145842000Y-114623900D02*
X145842000Y-112360700D01*
X146351700Y-115133600D02*
X145842000Y-114623900D01*
X146351700Y-118761000D02*
X146351700Y-115133600D01*
X145572000Y-119540700D02*
X146351700Y-118761000D01*
X153866100Y-116276100D02*
X153866100Y-116268500D01*
X153521300Y-116620900D02*
X153866100Y-116276100D01*
X153521300Y-119384100D02*
X153521300Y-116620900D01*
X153572000Y-119434800D02*
X153521300Y-119384100D01*
X153957500Y-113919800D02*
X153957500Y-112720900D01*
X154048000Y-114010300D02*
X153957500Y-113919800D01*
X154048000Y-116094200D02*
X154048000Y-114010300D01*
X153873700Y-116268500D02*
X154048000Y-116094200D01*
X153866100Y-116268500D02*
X153873700Y-116268500D01*
X136548200Y-114687100D02*
X136548200Y-93869400D01*
X135796400Y-115438900D02*
X136548200Y-114687100D01*
X135796400Y-117750800D02*
X135796400Y-115438900D01*
X135504800Y-118042400D02*
X135796400Y-117750800D01*
X135504800Y-119473500D02*
X135504800Y-118042400D01*
X135572000Y-119540700D02*
X135504800Y-119473500D01*
X140270700Y-116795900D02*
X140270700Y-116083900D01*
X139572000Y-117494600D02*
X140270700Y-116795900D01*
X139572000Y-119540700D02*
X139572000Y-117494600D01*
X140398700Y-111287500D02*
X140398700Y-99698800D01*
X140008000Y-111678200D02*
X140398700Y-111287500D01*
X140008000Y-115821200D02*
X140008000Y-111678200D01*
X140270700Y-116083900D02*
X140008000Y-115821200D01*
X136548200Y-93628800D02*
X136548200Y-93869400D01*
X139703300Y-90473700D02*
X136548200Y-93628800D01*
X140028900Y-90473700D02*
X139703300Y-90473700D01*
X140398700Y-90843500D02*
X140028900Y-90473700D01*
X140398700Y-99698800D02*
X140398700Y-90843500D01*
X141292500Y-99698800D02*
X140398700Y-99698800D01*
X144364900Y-93194100D02*
X142754100Y-91583300D01*
X144364900Y-114853300D02*
X144364900Y-93194100D01*
X145397100Y-115885500D02*
X144364900Y-114853300D01*
X145397100Y-117354800D02*
X145397100Y-115885500D01*
X144572000Y-118179900D02*
X145397100Y-117354800D01*
X144572000Y-122166000D02*
X144572000Y-118179900D01*
X150572000Y-122166000D02*
X150572000Y-119540700D01*
X150689500Y-119540700D02*
X150572000Y-119540700D01*
X151461200Y-118769000D02*
X150689500Y-119540700D01*
X151461200Y-117586500D02*
X151461200Y-118769000D01*
X148506100Y-118757200D02*
X148174000Y-118757200D01*
X149733700Y-117529600D02*
X148506100Y-118757200D01*
X149733700Y-111618100D02*
X149733700Y-117529600D01*
X150420900Y-110930900D02*
X149733700Y-111618100D01*
X150420900Y-98041600D02*
X150420900Y-110930900D01*
X148455000Y-96075700D02*
X150420900Y-98041600D01*
X148455000Y-94806000D02*
X148455000Y-96075700D01*
X148004700Y-94355700D02*
X148455000Y-94806000D01*
X148004700Y-92581000D02*
X148004700Y-94355700D01*
X145433300Y-90009600D02*
X148004700Y-92581000D01*
X142766100Y-90009600D02*
X145433300Y-90009600D01*
X140476400Y-87719900D02*
X142766100Y-90009600D01*
X148572000Y-122166000D02*
X148572000Y-119540700D01*
X150712400Y-93878100D02*
X149884200Y-93049900D01*
X150712400Y-96307200D02*
X150712400Y-93878100D01*
X150886000Y-96480800D02*
X150712400Y-96307200D01*
X150886000Y-112041700D02*
X150886000Y-96480800D01*
X150413100Y-112514600D02*
X150886000Y-112041700D01*
X150413100Y-117534300D02*
X150413100Y-112514600D01*
X148572100Y-119375300D02*
X150413100Y-117534300D01*
X148572100Y-119540700D02*
X148572100Y-119375300D01*
X148572000Y-119540700D02*
X148572100Y-119540700D01*
X152401600Y-119408500D02*
X152354900Y-119455200D01*
X152401600Y-118384900D02*
X152401600Y-119408500D01*
X152490600Y-118295900D02*
X152401600Y-118384900D01*
X152490600Y-98540800D02*
X152490600Y-118295900D01*
X152740900Y-98290500D02*
X152490600Y-98540800D01*
X152740900Y-97642000D02*
X152740900Y-98290500D01*
X152035400Y-96936500D02*
X152740900Y-97642000D01*
X152035400Y-96217500D02*
X152035400Y-96936500D01*
X151841200Y-96023300D02*
X152035400Y-96217500D01*
X151841200Y-94362900D02*
X151841200Y-96023300D01*
X146572000Y-122166000D02*
X146572000Y-119540700D01*
X145749500Y-93883200D02*
X145194700Y-93328400D01*
X145749500Y-96294400D02*
X145749500Y-93883200D01*
X145531800Y-96512100D02*
X145749500Y-96294400D01*
X145531800Y-111307500D02*
X145531800Y-96512100D01*
X146775000Y-112550700D02*
X145531800Y-111307500D01*
X146775000Y-114920000D02*
X146775000Y-112550700D01*
X146827900Y-114972900D02*
X146775000Y-114920000D01*
X146827900Y-119284800D02*
X146827900Y-114972900D01*
X146572000Y-119540700D02*
X146827900Y-119284800D01*
X132572000Y-115753400D02*
X132572000Y-122166000D01*
X132423700Y-115605100D02*
X132572000Y-115753400D01*
X132423700Y-114176700D02*
X132423700Y-115605100D01*
X133113000Y-113487400D02*
X132423700Y-114176700D01*
X133113000Y-99671400D02*
X133113000Y-113487400D01*
X134163300Y-98621100D02*
X133113000Y-99671400D01*
X134163300Y-90254300D02*
X134163300Y-98621100D01*
X134426800Y-89990800D02*
X134163300Y-90254300D01*
X138206100Y-119174800D02*
X138572000Y-119540700D01*
X138206100Y-117361400D02*
X138206100Y-119174800D01*
X139107400Y-116460100D02*
X138206100Y-117361400D01*
X139107400Y-111079700D02*
X139107400Y-116460100D01*
X139498100Y-110689000D02*
X139107400Y-111079700D01*
X139498100Y-96732700D02*
X139498100Y-110689000D01*
X138693300Y-95927900D02*
X139498100Y-96732700D01*
X138693300Y-95904700D02*
X138693300Y-95927900D01*
X138572000Y-122166000D02*
X138572000Y-119540700D01*
X147141700Y-99967200D02*
X146691400Y-99516900D01*
X147141700Y-101384800D02*
X147141700Y-99967200D01*
X147066700Y-101459800D02*
X147141700Y-101384800D01*
X147066700Y-105949400D02*
X147066700Y-101459800D01*
X147252500Y-106135200D02*
X147066700Y-105949400D01*
X164572000Y-122166000D02*
X164572000Y-110935200D01*
X149604000Y-90338600D02*
X144223100Y-84957700D01*
X149833900Y-90338600D02*
X149604000Y-90338600D01*
X152497900Y-93002600D02*
X149833900Y-90338600D01*
X153058000Y-93002600D02*
X152497900Y-93002600D01*
X156097000Y-96041600D02*
X153058000Y-93002600D01*
X156097000Y-101929300D02*
X156097000Y-96041600D01*
X155973900Y-102052400D02*
X156097000Y-101929300D01*
X155973900Y-109528700D02*
X155973900Y-102052400D01*
X156469900Y-110024700D02*
X155973900Y-109528700D01*
X156469900Y-110935200D02*
X156469900Y-110024700D01*
X162572000Y-114748900D02*
X162100800Y-114277700D01*
X162572000Y-122166000D02*
X162572000Y-114748900D01*
X148938100Y-90788900D02*
X143632200Y-85483000D01*
X149647300Y-90788900D02*
X148938100Y-90788900D01*
X152311300Y-93452900D02*
X149647300Y-90788900D01*
X152871400Y-93452900D02*
X152311300Y-93452900D01*
X155646700Y-96228200D02*
X152871400Y-93452900D01*
X155646700Y-101742700D02*
X155646700Y-96228200D01*
X155523600Y-101865800D02*
X155646700Y-101742700D01*
X155523600Y-109715300D02*
X155523600Y-101865800D01*
X155944500Y-110136200D02*
X155523600Y-109715300D01*
X155944500Y-112960100D02*
X155944500Y-110136200D01*
X156204800Y-113220400D02*
X155944500Y-112960100D01*
X156204800Y-113980100D02*
X156204800Y-113220400D01*
X160572000Y-97708500D02*
X160572000Y-122166000D01*
X154064900Y-91201400D02*
X160572000Y-97708500D01*
X153244300Y-91201400D02*
X154064900Y-91201400D01*
X145794300Y-83751400D02*
X153244300Y-91201400D01*
X138429600Y-83751400D02*
X145794300Y-83751400D01*
X137914900Y-83236700D02*
X138429600Y-83751400D01*
X158572000Y-122166000D02*
X158572000Y-119540700D01*
X158737600Y-119375100D02*
X158572000Y-119540700D01*
X158737600Y-96771500D02*
X158737600Y-119375100D01*
X153617800Y-91651700D02*
X158737600Y-96771500D01*
X153057700Y-91651700D02*
X153617800Y-91651700D01*
X145607700Y-84201700D02*
X153057700Y-91651700D01*
X137828500Y-84201700D02*
X145607700Y-84201700D01*
X137389500Y-83762700D02*
X137828500Y-84201700D01*
X156572000Y-122166000D02*
X156572000Y-119540700D01*
X157630700Y-118482000D02*
X156572000Y-119540700D01*
X157630700Y-112840200D02*
X157630700Y-118482000D01*
X157578000Y-112787500D02*
X157630700Y-112840200D01*
X157578000Y-96885700D02*
X157578000Y-112787500D01*
X153244600Y-92552300D02*
X157578000Y-96885700D01*
X152684500Y-92552300D02*
X153244600Y-92552300D01*
X146330200Y-86198000D02*
X152684500Y-92552300D01*
X146217100Y-86198000D02*
X146330200Y-86198000D01*
X154572000Y-122166000D02*
X154572000Y-119540700D01*
X137096300Y-84652000D02*
X136795300Y-84351000D01*
X141432300Y-84652000D02*
X137096300Y-84652000D01*
X148019500Y-91239200D02*
X141432300Y-84652000D01*
X149460700Y-91239200D02*
X148019500Y-91239200D01*
X152124700Y-93903200D02*
X149460700Y-91239200D01*
X152684800Y-93903200D02*
X152124700Y-93903200D01*
X155196400Y-96414800D02*
X152684800Y-93903200D01*
X155196400Y-101556100D02*
X155196400Y-96414800D01*
X155045100Y-101707400D02*
X155196400Y-101556100D01*
X155045100Y-109873700D02*
X155045100Y-101707400D01*
X155156500Y-109985100D02*
X155045100Y-109873700D01*
X155156500Y-112809000D02*
X155156500Y-109985100D01*
X155538300Y-113190800D02*
X155156500Y-112809000D01*
X155538300Y-118574400D02*
X155538300Y-113190800D01*
X154572000Y-119540700D02*
X155538300Y-118574400D01*
X154792200Y-90300800D02*
X155535400Y-91044000D01*
X153617500Y-90300800D02*
X154792200Y-90300800D01*
X144171100Y-80854400D02*
X153617500Y-90300800D01*
X141716600Y-80854400D02*
X144171100Y-80854400D01*
X152880300Y-121857700D02*
X152572000Y-122166000D01*
X152880300Y-118543100D02*
X152880300Y-121857700D01*
X152963000Y-118460400D02*
X152880300Y-118543100D01*
X152963000Y-101029800D02*
X152963000Y-118460400D01*
X153191200Y-100801600D02*
X152963000Y-101029800D01*
X153191200Y-96900700D02*
X153191200Y-100801600D01*
X153104900Y-96814400D02*
X153191200Y-96900700D01*
X142109100Y-90459900D02*
X139167800Y-87518600D01*
X144609900Y-90459900D02*
X142109100Y-90459900D01*
X146418900Y-92268900D02*
X144609900Y-90459900D01*
X146418900Y-92535700D02*
X146418900Y-92268900D01*
X147104100Y-93220900D02*
X146418900Y-92535700D01*
X147104100Y-94729000D02*
X147104100Y-93220900D01*
X147554400Y-95179300D02*
X147104100Y-94729000D01*
X147554400Y-96528500D02*
X147554400Y-95179300D01*
X149520300Y-98494400D02*
X147554400Y-96528500D01*
X149520300Y-110557700D02*
X149520300Y-98494400D01*
X148833100Y-111244900D02*
X149520300Y-110557700D01*
X148833100Y-116897400D02*
X148833100Y-111244900D01*
X148174100Y-117556400D02*
X148833100Y-116897400D01*
X150622500Y-118704700D02*
X150691900Y-118704700D01*
X150208300Y-119118900D02*
X150622500Y-118704700D01*
X149283400Y-117236900D02*
X148363500Y-118156800D01*
X149283400Y-111431500D02*
X149283400Y-117236900D01*
X149970600Y-110744300D02*
X149283400Y-111431500D01*
X149970600Y-98307700D02*
X149970600Y-110744300D01*
X148004700Y-96341800D02*
X149970600Y-98307700D01*
X148004700Y-94992700D02*
X148004700Y-96341800D01*
X147554400Y-94542400D02*
X148004700Y-94992700D01*
X147554400Y-92897400D02*
X147554400Y-94542400D01*
X146996900Y-92339900D02*
X147554400Y-92897400D01*
X156915300Y-100946100D02*
X156682000Y-101179400D01*
X156915300Y-97328500D02*
X156915300Y-100946100D01*
X154594800Y-112401000D02*
X154594800Y-101414700D01*
X154692300Y-112498500D02*
X154594800Y-112401000D01*
X154692300Y-112981800D02*
X154692300Y-112498500D01*
X155076700Y-113366200D02*
X154692300Y-112981800D01*
X155076700Y-116839600D02*
X155076700Y-113366200D01*
X154692300Y-117224000D02*
X155076700Y-116839600D01*
X154692300Y-117773100D02*
X154692300Y-117224000D01*
X154293600Y-118171800D02*
X154692300Y-117773100D01*
X148382800Y-114082000D02*
X147849800Y-114615000D01*
X148382800Y-111058300D02*
X148382800Y-114082000D01*
X149070000Y-110371100D02*
X148382800Y-111058300D01*
X149070000Y-98681000D02*
X149070000Y-110371100D01*
X147104100Y-96715100D02*
X149070000Y-98681000D01*
X147104100Y-95365900D02*
X147104100Y-96715100D01*
X146653800Y-94915600D02*
X147104100Y-95365900D01*
X146653800Y-93407500D02*
X146653800Y-94915600D01*
X145711000Y-92464700D02*
X146653800Y-93407500D01*
X145711000Y-92304200D02*
X145711000Y-92464700D01*
X147810300Y-110993900D02*
X147810300Y-113114000D01*
X148619700Y-110184500D02*
X147810300Y-110993900D01*
X148619700Y-98867600D02*
X148619700Y-110184500D01*
X146653800Y-96901700D02*
X148619700Y-98867600D01*
X146653800Y-95552500D02*
X146653800Y-96901700D01*
X146203500Y-95102200D02*
X146653800Y-95552500D01*
X146203500Y-93594100D02*
X146203500Y-95102200D01*
X145135200Y-92525800D02*
X146203500Y-93594100D01*
X145135200Y-91728400D02*
X145135200Y-92525800D01*
X141321400Y-117231300D02*
X141157000Y-117395700D01*
X141321400Y-115886300D02*
X141321400Y-117231300D01*
X141771700Y-115436000D02*
X141321400Y-115886300D01*
X141771700Y-112721200D02*
X141771700Y-115436000D01*
X141541800Y-112491300D02*
X141771700Y-112721200D01*
X143914600Y-93571100D02*
X143718700Y-93375200D01*
X143914600Y-114701600D02*
X143914600Y-93571100D01*
X143788500Y-114827700D02*
X143914600Y-114701600D01*
X136255700Y-118104400D02*
X136173300Y-118186800D01*
X136255700Y-116397500D02*
X136255700Y-118104400D01*
X137365900Y-115287300D02*
X136255700Y-116397500D01*
X137365900Y-93562300D02*
X137365900Y-115287300D01*
X139870200Y-91058000D02*
X137365900Y-93562300D01*
X141447100Y-86993300D02*
X142915600Y-88461800D01*
X138908700Y-86993300D02*
X141447100Y-86993300D01*
X136871400Y-89030600D02*
X138908700Y-86993300D01*
X136871400Y-92312500D02*
X136871400Y-89030600D01*
X135970800Y-93213100D02*
X136871400Y-92312500D01*
X135970800Y-114441100D02*
X135970800Y-93213100D01*
X135346100Y-115065800D02*
X135970800Y-114441100D01*
X135346100Y-117564200D02*
X135346100Y-115065800D01*
X134977900Y-117932400D02*
X135346100Y-117564200D01*
X134977900Y-119054900D02*
X134977900Y-117932400D01*
X134633500Y-119399300D02*
X134977900Y-119054900D01*
X135970800Y-88499800D02*
X138342600Y-86128000D01*
X135970800Y-91903200D02*
X135970800Y-88499800D01*
X135070200Y-92803800D02*
X135970800Y-91903200D01*
X135070200Y-114067900D02*
X135070200Y-92803800D01*
X134445500Y-114692600D02*
X135070200Y-114067900D01*
X134445500Y-115099700D02*
X134445500Y-114692600D01*
X134445400Y-115099800D02*
X134445500Y-115099700D01*
X134445400Y-117191100D02*
X134445400Y-115099800D01*
X134002300Y-117634200D02*
X134445400Y-117191100D01*
X134002300Y-117696600D02*
X134002300Y-117634200D01*
X140572000Y-122166000D02*
X140572000Y-119540700D01*
X142454000Y-101199300D02*
X142454000Y-98554200D01*
X141299300Y-102354000D02*
X142454000Y-101199300D01*
X141299300Y-111660700D02*
X141299300Y-102354000D01*
X140968300Y-111991700D02*
X141299300Y-111660700D01*
X140968300Y-114460900D02*
X140968300Y-111991700D01*
X141321400Y-114814000D02*
X140968300Y-114460900D01*
X141321400Y-115249400D02*
X141321400Y-114814000D01*
X140871200Y-115699600D02*
X141321400Y-115249400D01*
X140871100Y-115699600D02*
X140871200Y-115699600D01*
X140871100Y-116832400D02*
X140871100Y-115699600D01*
X140572000Y-117131500D02*
X140871100Y-116832400D01*
X140572000Y-119540700D02*
X140572000Y-117131500D01*
X147243700Y-108422100D02*
X147201400Y-108379800D01*
X147243700Y-110273900D02*
X147243700Y-108422100D01*
X154579700Y-113614100D02*
X154491700Y-113526100D01*
X154579700Y-116474400D02*
X154579700Y-113614100D01*
X154046600Y-117007500D02*
X154579700Y-116474400D01*
X154046600Y-117442200D02*
X154046600Y-117007500D01*
X141971800Y-91186700D02*
X138835800Y-88050700D01*
X141971800Y-94841700D02*
X141971800Y-91186700D01*
X143464300Y-96334200D02*
X141971800Y-94841700D01*
X143464300Y-101462800D02*
X143464300Y-96334200D01*
X143208000Y-101719100D02*
X143464300Y-101462800D01*
X143208000Y-114990300D02*
X143208000Y-101719100D01*
X144861500Y-116643800D02*
X143208000Y-114990300D01*
X144861500Y-117118000D02*
X144861500Y-116643800D01*
X148117400Y-109640300D02*
X148089700Y-109668000D01*
X148117400Y-104338000D02*
X148117400Y-109640300D01*
X148094400Y-104315000D02*
X148117400Y-104338000D01*
X146098700Y-96983500D02*
X146098700Y-96688100D01*
X148094400Y-98979200D02*
X146098700Y-96983500D01*
X148094400Y-104315000D02*
X148094400Y-98979200D01*
X150155600Y-95007700D02*
X150155600Y-96310900D01*
X149355600Y-94207700D02*
X150155600Y-95007700D01*
X149355600Y-92792800D02*
X149355600Y-94207700D01*
X149682600Y-92465800D02*
X149355600Y-92792800D01*
X150050400Y-92465800D02*
X149682600Y-92465800D01*
X151315900Y-93731300D02*
X150050400Y-92465800D01*
X151315900Y-96273800D02*
X151315900Y-93731300D01*
X151530800Y-96488700D02*
X151315900Y-96273800D01*
X151530800Y-116643300D02*
X151530800Y-96488700D01*
X151388700Y-116785400D02*
X151530800Y-116643300D01*
X145024700Y-96067100D02*
X145183200Y-95908600D01*
X145024700Y-114443500D02*
X145024700Y-96067100D01*
X145897900Y-115316700D02*
X145024700Y-114443500D01*
X145897900Y-118373800D02*
X145897900Y-115316700D01*
X145287800Y-118983900D02*
X145897900Y-118373800D01*
X141892600Y-97558700D02*
X142250100Y-97201200D01*
X141892600Y-101123800D02*
X141892600Y-97558700D01*
X140849000Y-102167400D02*
X141892600Y-101123800D01*
X140849000Y-111474100D02*
X140849000Y-102167400D01*
X140518000Y-111805100D02*
X140849000Y-111474100D01*
X140518000Y-114753600D02*
X140518000Y-111805100D01*
X140796100Y-115031700D02*
X140518000Y-114753600D01*
X143014000Y-96873600D02*
X142751700Y-96611300D01*
X143014000Y-101276200D02*
X143014000Y-96873600D01*
X142747400Y-101542800D02*
X143014000Y-101276200D01*
X142747400Y-115272700D02*
X142747400Y-101542800D01*
X139948400Y-96419700D02*
X139813700Y-96285000D01*
X139948400Y-110981900D02*
X139948400Y-96419700D01*
X139557700Y-111372600D02*
X139948400Y-110981900D01*
X139557700Y-116872000D02*
X139557700Y-111372600D01*
X138774100Y-117655600D02*
X139557700Y-116872000D01*
X138774100Y-118981000D02*
X138774100Y-117655600D01*
X137816300Y-95961100D02*
X139843300Y-93934100D01*
X137816300Y-115473800D02*
X137816300Y-95961100D01*
X136706100Y-116584000D02*
X137816300Y-115473800D01*
X136706100Y-118452900D02*
X136706100Y-116584000D01*
X136030200Y-119128800D02*
X136706100Y-118452900D01*
X136030200Y-119218800D02*
X136030200Y-119128800D01*
X149989300Y-96930200D02*
X150301000Y-96930200D01*
X149013100Y-95954000D02*
X149989300Y-96930200D01*
X149013100Y-94727200D02*
X149013100Y-95954000D01*
X148667300Y-94381400D02*
X149013100Y-94727200D01*
X148667300Y-92606600D02*
X148667300Y-94381400D01*
X142603700Y-86543000D02*
X148667300Y-92606600D01*
X138722100Y-86543000D02*
X142603700Y-86543000D01*
X136421100Y-88844000D02*
X138722100Y-86543000D01*
X136421100Y-92089800D02*
X136421100Y-88844000D01*
X135520500Y-92990400D02*
X136421100Y-92089800D01*
X135520500Y-114254500D02*
X135520500Y-92990400D01*
X134895800Y-114879200D02*
X135520500Y-114254500D01*
X134895800Y-115286300D02*
X134895800Y-114879200D01*
X134895700Y-115286400D02*
X134895800Y-115286300D01*
X134895700Y-117377700D02*
X134895700Y-115286400D01*
X134527600Y-117745800D02*
X134895700Y-117377700D01*
X134527600Y-118273400D02*
X134527600Y-117745800D01*
X134061900Y-118739100D02*
X134527600Y-118273400D01*
X153423600Y-114146300D02*
X153521000Y-114243700D01*
X153423600Y-101206100D02*
X153423600Y-114146300D01*
X153641500Y-100988200D02*
X153423600Y-101206100D01*
X153641500Y-96523800D02*
X153641500Y-100988200D01*
X152488900Y-95371200D02*
X153641500Y-96523800D01*
X158152600Y-96823400D02*
X158152600Y-100770800D01*
X153431200Y-92102000D02*
X158152600Y-96823400D01*
X152871100Y-92102000D02*
X153431200Y-92102000D01*
X146090500Y-85321400D02*
X152871100Y-92102000D01*
X145383500Y-85321400D02*
X146090500Y-85321400D01*
X147569100Y-105016000D02*
X147592100Y-105039000D01*
X147569100Y-104097400D02*
X147569100Y-105016000D01*
X147592100Y-104074400D02*
X147569100Y-104097400D01*
X147592100Y-99220000D02*
X147592100Y-104074400D01*
X147292900Y-98920800D02*
X147592100Y-99220000D01*
X162890400Y-103118900D02*
X163576000Y-102433300D01*
X162890400Y-106638300D02*
X162890400Y-103118900D01*
X163576000Y-101092000D02*
X163576000Y-102433300D01*
X132501900Y-98154600D02*
X132952200Y-97704300D01*
X132501900Y-110939400D02*
X132501900Y-98154600D01*
X131673500Y-111767800D02*
X132501900Y-110939400D01*
X132557000Y-86671200D02*
X126254700Y-80368900D01*
X132557000Y-87464800D02*
X132557000Y-86671200D01*
X158849000Y-81549100D02*
X157432700Y-80132800D01*
X158849000Y-85124000D02*
X158849000Y-81549100D01*
X130341700Y-90844500D02*
X130341700Y-93250000D01*
X128974800Y-89477600D02*
X130341700Y-90844500D01*
X155572000Y-122166000D02*
X155572000Y-119540700D01*
X147572000Y-122166000D02*
X147572000Y-119540700D01*
X141572000Y-122166000D02*
X141572000Y-119540700D01*
X151572000Y-119518900D02*
X151629100Y-119461800D01*
X151572000Y-122166000D02*
X151572000Y-119518900D01*
X155550200Y-119540700D02*
X155472600Y-119463100D01*
X155572000Y-119540700D02*
X155550200Y-119540700D01*
X157092000Y-118020700D02*
X155572000Y-119540700D01*
X157092000Y-117348000D02*
X157092000Y-118020700D01*
X154145700Y-99622600D02*
X154220800Y-99622600D01*
X154091800Y-96118800D02*
X152588400Y-94615400D01*
X154091800Y-99568700D02*
X154091800Y-96118800D01*
X154145700Y-99622600D02*
X154091800Y-99568700D01*
X152021300Y-98054000D02*
X152215600Y-97859700D01*
X152021300Y-118128300D02*
X152021300Y-98054000D01*
X151926900Y-118222700D02*
X152021300Y-118128300D01*
X151926900Y-118940200D02*
X151926900Y-118222700D01*
X151629100Y-119238000D02*
X151926900Y-118940200D01*
X151629100Y-119461800D02*
X151629100Y-119238000D01*
X146616400Y-111755200D02*
X146616400Y-101031000D01*
X147225300Y-112364100D02*
X146616400Y-111755200D01*
X147225300Y-114733400D02*
X147225300Y-112364100D01*
X147572000Y-115080100D02*
X147225300Y-114733400D01*
X147572000Y-119540700D02*
X147572000Y-115080100D01*
X154046400Y-101220200D02*
X154046400Y-102870000D01*
X154145700Y-101120900D02*
X154046400Y-101220200D01*
X154145700Y-99622600D02*
X154145700Y-101120900D01*
X156995200Y-103313700D02*
X156499300Y-102817800D01*
X156995200Y-114088300D02*
X156995200Y-103313700D01*
X156542700Y-114540800D02*
X156995200Y-114088300D01*
X156542700Y-116837400D02*
X156644200Y-116938900D01*
X156542700Y-114540800D02*
X156542700Y-116837400D01*
X137572000Y-122166000D02*
X137572000Y-119540700D01*
X133544700Y-114693700D02*
X133447000Y-114596000D01*
X133544700Y-116040200D02*
X133544700Y-114693700D01*
X133026500Y-116558400D02*
X133544700Y-116040200D01*
X133026500Y-119172300D02*
X133026500Y-116558400D01*
X133572000Y-119717800D02*
X133026500Y-119172300D01*
X133572000Y-122166000D02*
X133572000Y-119717800D01*
X138575100Y-116201200D02*
X138575100Y-114642900D01*
X137699000Y-117077300D02*
X138575100Y-116201200D01*
X137699000Y-119413700D02*
X137699000Y-117077300D01*
X137572000Y-119540700D02*
X137699000Y-119413700D01*
X142222000Y-104597800D02*
X141824700Y-104200500D01*
X142222000Y-115622600D02*
X142222000Y-104597800D01*
X141899700Y-115944900D02*
X142222000Y-115622600D01*
X141899700Y-119213000D02*
X141899700Y-115944900D01*
X141572000Y-119540700D02*
X141899700Y-119213000D01*
X138575100Y-105281000D02*
X138913100Y-104943000D01*
X138575100Y-114642900D02*
X138575100Y-105281000D01*
X198120000Y-76605100D02*
X198120000Y-60960000D01*
X163572000Y-111153100D02*
X198120000Y-76605100D01*
X163572000Y-122166000D02*
X163572000Y-111153100D01*
X133499900Y-98541400D02*
X133286300Y-98755000D01*
X133499900Y-65568400D02*
X133499900Y-98541400D01*
X133463500Y-65532000D02*
X133499900Y-65568400D01*
X134544800Y-113956400D02*
X134544800Y-99619400D01*
X133995100Y-114506100D02*
X134544800Y-113956400D01*
X133995100Y-116960900D02*
X133995100Y-114506100D01*
X133476900Y-117479100D02*
X133995100Y-116960900D01*
X133476900Y-118985800D02*
X133476900Y-117479100D01*
X134572000Y-120080900D02*
X133476900Y-118985800D01*
X134572000Y-122166000D02*
X134572000Y-120080900D01*
X132874000Y-115312500D02*
X133019400Y-115457900D01*
X132874000Y-114363300D02*
X132874000Y-115312500D01*
X133579200Y-113658100D02*
X132874000Y-114363300D01*
X133579200Y-99842100D02*
X133579200Y-113658100D01*
X134619900Y-98801400D02*
X133579200Y-99842100D01*
X134619900Y-92392200D02*
X134619900Y-98801400D01*
X135520500Y-91491600D02*
X134619900Y-92392200D01*
X135520500Y-81832100D02*
X135520500Y-91491600D01*
X140954100Y-76398500D02*
X135520500Y-81832100D01*
X150088400Y-76398500D02*
X140954100Y-76398500D01*
X152025400Y-78335500D02*
X150088400Y-76398500D01*
X137156500Y-116876800D02*
X137944200Y-116089100D01*
X137156500Y-118639400D02*
X137156500Y-116876800D01*
X136572000Y-119223900D02*
X137156500Y-118639400D01*
X136572000Y-122166000D02*
X136572000Y-119223900D01*
X160273300Y-83222500D02*
X161071200Y-82424600D01*
X160273300Y-94286400D02*
X160273300Y-83222500D01*
X159572000Y-97526500D02*
X159371400Y-97325900D01*
X159572000Y-122166000D02*
X159572000Y-97526500D01*
X161572000Y-122166000D02*
X161572000Y-119540700D01*
X161572000Y-97780700D02*
X161572000Y-119540700D01*
X159547000Y-95755700D02*
X161572000Y-97780700D01*
X171244100Y-84058600D02*
X171244100Y-83861500D01*
X159547000Y-95755700D02*
X171244100Y-84058600D01*
X159466600Y-95755700D02*
X159547000Y-95755700D01*
X154462000Y-90751100D02*
X159466600Y-95755700D01*
X153430900Y-90751100D02*
X154462000Y-90751100D01*
X144432400Y-81752600D02*
X153430900Y-90751100D01*
X142579400Y-81752600D02*
X144432400Y-81752600D01*
X152550700Y-87032800D02*
X152463700Y-87119800D01*
X152550700Y-70813900D02*
X152550700Y-87032800D01*
X150573300Y-68836500D02*
X152550700Y-70813900D01*
X153535000Y-64751700D02*
X153535000Y-88770800D01*
X158837300Y-59449400D02*
X153535000Y-64751700D01*
X153001000Y-62753400D02*
X156305000Y-59449400D01*
X153001000Y-87432100D02*
X153001000Y-62753400D01*
X152656700Y-87776400D02*
X153001000Y-87432100D01*
X154746100Y-97641700D02*
X154630100Y-97525700D01*
X154746100Y-100736500D02*
X154746100Y-97641700D01*
X154671100Y-100811500D02*
X154746100Y-100736500D01*
D22*
G36*
X153599560Y-122313000D02*
X153544440Y-122313000D01*
X153544440Y-122205422D01*
X153582448Y-122148539D01*
X153599560Y-122062512D01*
X153599560Y-122313000D01*
X153599560Y-122313000D01*
G37*
X153599560Y-122313000D02*
X153544440Y-122313000D01*
X153544440Y-122205422D01*
X153582448Y-122148539D01*
X153599560Y-122062512D01*
X153599560Y-122313000D01*
G36*
X149599560Y-122313000D02*
X149544440Y-122313000D01*
X149544440Y-122019000D01*
X149599560Y-122019000D01*
X149599560Y-122313000D01*
X149599560Y-122313000D01*
G37*
X149599560Y-122313000D02*
X149544440Y-122313000D01*
X149544440Y-122019000D01*
X149599560Y-122019000D01*
X149599560Y-122313000D01*
G36*
X145599560Y-122313000D02*
X145544440Y-122313000D01*
X145544440Y-122019000D01*
X145599560Y-122019000D01*
X145599560Y-122313000D01*
X145599560Y-122313000D01*
G37*
X145599560Y-122313000D02*
X145544440Y-122313000D01*
X145544440Y-122019000D01*
X145599560Y-122019000D01*
X145599560Y-122313000D01*
G36*
X139599560Y-122313000D02*
X139544440Y-122313000D01*
X139544440Y-122019000D01*
X139599560Y-122019000D01*
X139599560Y-122313000D01*
X139599560Y-122313000D01*
G37*
X139599560Y-122313000D02*
X139544440Y-122313000D01*
X139544440Y-122019000D01*
X139599560Y-122019000D01*
X139599560Y-122313000D01*
G36*
X135599560Y-122313000D02*
X135544440Y-122313000D01*
X135544440Y-122019000D01*
X135599560Y-122019000D01*
X135599560Y-122313000D01*
X135599560Y-122313000D01*
G37*
X135599560Y-122313000D02*
X135544440Y-122313000D01*
X135544440Y-122019000D01*
X135599560Y-122019000D01*
X135599560Y-122313000D01*
G36*
X157599560Y-122313000D02*
X157544440Y-122313000D01*
X157544440Y-122019000D01*
X157599560Y-122019000D01*
X157599560Y-122313000D01*
X157599560Y-122313000D01*
G37*
X157599560Y-122313000D02*
X157544440Y-122313000D01*
X157544440Y-122019000D01*
X157599560Y-122019000D01*
X157599560Y-122313000D01*
G36*
X212815000Y-116315000D02*
X165500000Y-116315000D01*
X165332000Y-116348418D01*
X165332000Y-111282291D01*
X165406855Y-111102021D01*
X165407145Y-110769837D01*
X165296894Y-110503008D01*
X165550068Y-110249834D01*
X205644543Y-110249834D01*
X206044853Y-111218658D01*
X206785443Y-111960542D01*
X207753567Y-112362542D01*
X208801834Y-112363457D01*
X209770658Y-111963147D01*
X210512542Y-111222557D01*
X210914542Y-110254433D01*
X210915457Y-109206166D01*
X210515147Y-108237342D01*
X209774557Y-107495458D01*
X208806433Y-107093458D01*
X207758166Y-107092543D01*
X206789342Y-107492853D01*
X206047458Y-108233443D01*
X205645458Y-109201567D01*
X205644543Y-110249834D01*
X165550068Y-110249834D01*
X174759902Y-101040000D01*
X192316655Y-101040000D01*
X192430729Y-101613489D01*
X192755585Y-102099670D01*
X193070366Y-102310000D01*
X192755585Y-102520330D01*
X192430729Y-103006511D01*
X192316655Y-103580000D01*
X192430729Y-104153489D01*
X192755585Y-104639670D01*
X193241766Y-104964526D01*
X193815255Y-105078600D01*
X194184745Y-105078600D01*
X194758234Y-104964526D01*
X195244415Y-104639670D01*
X195569271Y-104153489D01*
X195683345Y-103580000D01*
X195569271Y-103006511D01*
X195244415Y-102520330D01*
X194929634Y-102310000D01*
X195244415Y-102099670D01*
X195569271Y-101613489D01*
X195683345Y-101040000D01*
X195569271Y-100466511D01*
X195244415Y-99980330D01*
X195222220Y-99965500D01*
X195375698Y-99901927D01*
X195554327Y-99723299D01*
X195651000Y-99489910D01*
X195651000Y-98785750D01*
X195492250Y-98627000D01*
X194127000Y-98627000D01*
X194127000Y-98647000D01*
X193873000Y-98647000D01*
X193873000Y-98627000D01*
X192507750Y-98627000D01*
X192349000Y-98785750D01*
X192349000Y-99489910D01*
X192445673Y-99723299D01*
X192624302Y-99901927D01*
X192777780Y-99965500D01*
X192755585Y-99980330D01*
X192430729Y-100466511D01*
X192316655Y-101040000D01*
X174759902Y-101040000D01*
X178289812Y-97510090D01*
X192349000Y-97510090D01*
X192349000Y-98214250D01*
X192507750Y-98373000D01*
X193873000Y-98373000D01*
X193873000Y-97160150D01*
X194127000Y-97160150D01*
X194127000Y-98373000D01*
X195492250Y-98373000D01*
X195651000Y-98214250D01*
X195651000Y-97510090D01*
X195554327Y-97276701D01*
X195375698Y-97098073D01*
X195142309Y-97001400D01*
X194285750Y-97001400D01*
X194127000Y-97160150D01*
X193873000Y-97160150D01*
X193714250Y-97001400D01*
X192857691Y-97001400D01*
X192624302Y-97098073D01*
X192445673Y-97276701D01*
X192349000Y-97510090D01*
X178289812Y-97510090D01*
X194519902Y-81280000D01*
X201516655Y-81280000D01*
X201630729Y-81853489D01*
X201955585Y-82339670D01*
X202270366Y-82550000D01*
X201955585Y-82760330D01*
X201630729Y-83246511D01*
X201516655Y-83820000D01*
X201630729Y-84393489D01*
X201955585Y-84879670D01*
X202270366Y-85090000D01*
X201955585Y-85300330D01*
X201630729Y-85786511D01*
X201516655Y-86360000D01*
X201630729Y-86933489D01*
X201955585Y-87419670D01*
X202441766Y-87744526D01*
X203015255Y-87858600D01*
X203384745Y-87858600D01*
X203958234Y-87744526D01*
X204444415Y-87419670D01*
X204769271Y-86933489D01*
X204883345Y-86360000D01*
X204769271Y-85786511D01*
X204444415Y-85300330D01*
X204129634Y-85090000D01*
X204444415Y-84879670D01*
X204769271Y-84393489D01*
X204883345Y-83820000D01*
X204769271Y-83246511D01*
X204444415Y-82760330D01*
X204129634Y-82550000D01*
X204444415Y-82339670D01*
X204769271Y-81853489D01*
X204883345Y-81280000D01*
X204769271Y-80706511D01*
X204444415Y-80220330D01*
X204422220Y-80205500D01*
X204575698Y-80141927D01*
X204754327Y-79963299D01*
X204851000Y-79729910D01*
X204851000Y-79025750D01*
X204692250Y-78867000D01*
X203327000Y-78867000D01*
X203327000Y-78887000D01*
X203073000Y-78887000D01*
X203073000Y-78867000D01*
X201707750Y-78867000D01*
X201549000Y-79025750D01*
X201549000Y-79729910D01*
X201645673Y-79963299D01*
X201824302Y-80141927D01*
X201977780Y-80205500D01*
X201955585Y-80220330D01*
X201630729Y-80706511D01*
X201516655Y-81280000D01*
X194519902Y-81280000D01*
X198049812Y-77750090D01*
X201549000Y-77750090D01*
X201549000Y-78454250D01*
X201707750Y-78613000D01*
X203073000Y-78613000D01*
X203073000Y-77400150D01*
X203327000Y-77400150D01*
X203327000Y-78613000D01*
X204692250Y-78613000D01*
X204851000Y-78454250D01*
X204851000Y-77750090D01*
X204754327Y-77516701D01*
X204575698Y-77338073D01*
X204342309Y-77241400D01*
X203485750Y-77241400D01*
X203327000Y-77400150D01*
X203073000Y-77400150D01*
X202914250Y-77241400D01*
X202057691Y-77241400D01*
X201824302Y-77338073D01*
X201645673Y-77516701D01*
X201549000Y-77750090D01*
X198049812Y-77750090D01*
X198657401Y-77142501D01*
X198822148Y-76895939D01*
X198880000Y-76605100D01*
X198880000Y-62623440D01*
X199136000Y-62623440D01*
X199371317Y-62579162D01*
X199587441Y-62440090D01*
X199698840Y-62277052D01*
X199795182Y-62366385D01*
X200277056Y-62565975D01*
X200533000Y-62446836D01*
X200533000Y-61087000D01*
X200787000Y-61087000D01*
X200787000Y-62446836D01*
X201042944Y-62565975D01*
X201524818Y-62366385D01*
X201997188Y-61928379D01*
X202265983Y-61342946D01*
X202147367Y-61087000D01*
X200787000Y-61087000D01*
X200533000Y-61087000D01*
X200513000Y-61087000D01*
X200513000Y-60833000D01*
X200533000Y-60833000D01*
X200533000Y-59473164D01*
X200787000Y-59473164D01*
X200787000Y-60833000D01*
X202147367Y-60833000D01*
X202265983Y-60577054D01*
X201997188Y-59991621D01*
X201524818Y-59553615D01*
X201274258Y-59449834D01*
X205644543Y-59449834D01*
X206044853Y-60418658D01*
X206785443Y-61160542D01*
X207753567Y-61562542D01*
X208801834Y-61563457D01*
X209770658Y-61163147D01*
X210512542Y-60422557D01*
X210914542Y-59454433D01*
X210915457Y-58406166D01*
X210515147Y-57437342D01*
X209774557Y-56695458D01*
X208806433Y-56293458D01*
X207758166Y-56292543D01*
X206789342Y-56692853D01*
X206047458Y-57433443D01*
X205645458Y-58401567D01*
X205644543Y-59449834D01*
X201274258Y-59449834D01*
X201042944Y-59354025D01*
X200787000Y-59473164D01*
X200533000Y-59473164D01*
X200277056Y-59354025D01*
X199795182Y-59553615D01*
X199697602Y-59644097D01*
X199600090Y-59492559D01*
X199387890Y-59347569D01*
X199136000Y-59296560D01*
X197104000Y-59296560D01*
X196868683Y-59340838D01*
X196652559Y-59479910D01*
X196507569Y-59692110D01*
X196456560Y-59944000D01*
X196456560Y-61976000D01*
X196500838Y-62211317D01*
X196639910Y-62427441D01*
X196852110Y-62572431D01*
X197104000Y-62623440D01*
X197360000Y-62623440D01*
X197360000Y-76290298D01*
X163034599Y-110615699D01*
X162869852Y-110862261D01*
X162812000Y-111153100D01*
X162812000Y-113812366D01*
X162809092Y-113805328D01*
X162574407Y-113570234D01*
X162332000Y-113469578D01*
X162332000Y-107260825D01*
X162416793Y-107345766D01*
X162723579Y-107473155D01*
X163055763Y-107473445D01*
X163362772Y-107346592D01*
X163597866Y-107111907D01*
X163725255Y-106805121D01*
X163725545Y-106472937D01*
X163650400Y-106291071D01*
X163650400Y-103433702D01*
X164113401Y-102970701D01*
X164257233Y-102755440D01*
X164592000Y-102755440D01*
X164827317Y-102711162D01*
X165043441Y-102572090D01*
X165154840Y-102409052D01*
X165251182Y-102498385D01*
X165733056Y-102697975D01*
X165989000Y-102578836D01*
X165989000Y-101219000D01*
X166243000Y-101219000D01*
X166243000Y-102578836D01*
X166498944Y-102697975D01*
X166980818Y-102498385D01*
X167453188Y-102060379D01*
X167721983Y-101474946D01*
X167603367Y-101219000D01*
X166243000Y-101219000D01*
X165989000Y-101219000D01*
X165969000Y-101219000D01*
X165969000Y-100965000D01*
X165989000Y-100965000D01*
X165989000Y-99605164D01*
X166243000Y-99605164D01*
X166243000Y-100965000D01*
X167603367Y-100965000D01*
X167721983Y-100709054D01*
X167453188Y-100123621D01*
X166980818Y-99685615D01*
X166498944Y-99486025D01*
X166243000Y-99605164D01*
X165989000Y-99605164D01*
X165733056Y-99486025D01*
X165251182Y-99685615D01*
X165153602Y-99776097D01*
X165056090Y-99624559D01*
X164843890Y-99479569D01*
X164592000Y-99428560D01*
X162560000Y-99428560D01*
X162332000Y-99471461D01*
X162332000Y-97780700D01*
X162274713Y-97492700D01*
X162274148Y-97489860D01*
X162109401Y-97243299D01*
X160621802Y-95755700D01*
X171781501Y-84596001D01*
X171946248Y-84349440D01*
X171948488Y-84338180D01*
X171951566Y-84335107D01*
X172078955Y-84028321D01*
X172079245Y-83696137D01*
X171952392Y-83389128D01*
X171717707Y-83154034D01*
X171410921Y-83026645D01*
X171078737Y-83026355D01*
X170771728Y-83153208D01*
X170536634Y-83387893D01*
X170409245Y-83694679D01*
X170409137Y-83818761D01*
X161033300Y-93194598D01*
X161033300Y-83537302D01*
X161363170Y-83207432D01*
X161543572Y-83132892D01*
X161778666Y-82898207D01*
X161906055Y-82591421D01*
X161906345Y-82259237D01*
X161779492Y-81952228D01*
X161544807Y-81717134D01*
X161238021Y-81589745D01*
X160905837Y-81589455D01*
X160598828Y-81716308D01*
X160363734Y-81950993D01*
X160288271Y-82132727D01*
X159735899Y-82685099D01*
X159609000Y-82875017D01*
X159609000Y-81549100D01*
X159551148Y-81258261D01*
X159386401Y-81011699D01*
X158215532Y-79840830D01*
X158140992Y-79660428D01*
X157906307Y-79425334D01*
X157599521Y-79297945D01*
X157267337Y-79297655D01*
X156960328Y-79424508D01*
X156725234Y-79659193D01*
X156597845Y-79965979D01*
X156597555Y-80298163D01*
X156724408Y-80605172D01*
X156959093Y-80840266D01*
X157140827Y-80915729D01*
X158089000Y-81863902D01*
X158089000Y-84776909D01*
X158014145Y-84957179D01*
X158013855Y-85289363D01*
X158140708Y-85596372D01*
X158375393Y-85831466D01*
X158682179Y-85958855D01*
X159014363Y-85959145D01*
X159321372Y-85832292D01*
X159513300Y-85640698D01*
X159513300Y-93939309D01*
X159438445Y-94119579D01*
X159438155Y-94451763D01*
X159536974Y-94690924D01*
X159506800Y-94721098D01*
X156260600Y-91474898D01*
X156370255Y-91210821D01*
X156370545Y-90878637D01*
X156243692Y-90571628D01*
X156009007Y-90336534D01*
X155827273Y-90261071D01*
X155329601Y-89763399D01*
X155083039Y-89598652D01*
X154792200Y-89540800D01*
X153932302Y-89540800D01*
X153910585Y-89519083D01*
X154007372Y-89479092D01*
X154242466Y-89244407D01*
X154369855Y-88937621D01*
X154370145Y-88605437D01*
X154295000Y-88423571D01*
X154295000Y-65066502D01*
X159129270Y-60232232D01*
X159309672Y-60157692D01*
X159544766Y-59923007D01*
X159672155Y-59616221D01*
X159672445Y-59284037D01*
X159545592Y-58977028D01*
X159310907Y-58741934D01*
X159004121Y-58614545D01*
X158671937Y-58614255D01*
X158364928Y-58741108D01*
X158129834Y-58975793D01*
X158054371Y-59157527D01*
X153761000Y-63450898D01*
X153761000Y-63068202D01*
X156596970Y-60232232D01*
X156777372Y-60157692D01*
X157012466Y-59923007D01*
X157139855Y-59616221D01*
X157140145Y-59284037D01*
X157013292Y-58977028D01*
X156778607Y-58741934D01*
X156471821Y-58614545D01*
X156139637Y-58614255D01*
X155832628Y-58741108D01*
X155597534Y-58975793D01*
X155522071Y-59157527D01*
X152463599Y-62215999D01*
X152298852Y-62462561D01*
X152241000Y-62753400D01*
X152241000Y-69429398D01*
X151356132Y-68544530D01*
X151281592Y-68364128D01*
X151046907Y-68129034D01*
X150740121Y-68001645D01*
X150407937Y-68001355D01*
X150100928Y-68128208D01*
X149865834Y-68362893D01*
X149738445Y-68669679D01*
X149738155Y-69001863D01*
X149865008Y-69308872D01*
X150099693Y-69543966D01*
X150281427Y-69619429D01*
X151790700Y-71128702D01*
X151790700Y-77025998D01*
X150625801Y-75861099D01*
X150379239Y-75696352D01*
X150088400Y-75638500D01*
X140954100Y-75638500D01*
X140663261Y-75696352D01*
X140416699Y-75861099D01*
X134983099Y-81294699D01*
X134818352Y-81541261D01*
X134760500Y-81832100D01*
X134760500Y-89225239D01*
X134593621Y-89155945D01*
X134261437Y-89155655D01*
X134259900Y-89156290D01*
X134259900Y-65791431D01*
X134298355Y-65698821D01*
X134298645Y-65366637D01*
X134171792Y-65059628D01*
X133937107Y-64824534D01*
X133630321Y-64697145D01*
X133298137Y-64696855D01*
X132991128Y-64823708D01*
X132756034Y-65058393D01*
X132628645Y-65365179D01*
X132628355Y-65697363D01*
X132739900Y-65967324D01*
X132739900Y-85779298D01*
X127037532Y-80076930D01*
X126962992Y-79896528D01*
X126728307Y-79661434D01*
X126421521Y-79534045D01*
X126089337Y-79533755D01*
X125782328Y-79660608D01*
X125547234Y-79895293D01*
X125419845Y-80202079D01*
X125419555Y-80534263D01*
X125546408Y-80841272D01*
X125781093Y-81076366D01*
X125962827Y-81151829D01*
X131797000Y-86986002D01*
X131797000Y-87117709D01*
X131722145Y-87297979D01*
X131721855Y-87630163D01*
X131848708Y-87937172D01*
X132083393Y-88172266D01*
X132390179Y-88299655D01*
X132722363Y-88299945D01*
X132739900Y-88292699D01*
X132739900Y-96888549D01*
X132479828Y-96996008D01*
X132244734Y-97230693D01*
X132169271Y-97412427D01*
X131964499Y-97617199D01*
X131799752Y-97863761D01*
X131741900Y-98154600D01*
X131741900Y-105653130D01*
X131595564Y-105506539D01*
X131086702Y-105295241D01*
X130535715Y-105294760D01*
X130026485Y-105505169D01*
X129636539Y-105894436D01*
X129425241Y-106403298D01*
X129424760Y-106954285D01*
X129635169Y-107463515D01*
X130024436Y-107853461D01*
X130533298Y-108064759D01*
X131084285Y-108065240D01*
X131593515Y-107854831D01*
X131741900Y-107706704D01*
X131741900Y-110624598D01*
X131381530Y-110984968D01*
X131201128Y-111059508D01*
X130966034Y-111294193D01*
X130838645Y-111600979D01*
X130838355Y-111933163D01*
X130965208Y-112240172D01*
X131199893Y-112475266D01*
X131506679Y-112602655D01*
X131838863Y-112602945D01*
X132145872Y-112476092D01*
X132353000Y-112269324D01*
X132353000Y-113172598D01*
X131886299Y-113639299D01*
X131721552Y-113885861D01*
X131663700Y-114176700D01*
X131663700Y-115605100D01*
X131721552Y-115895939D01*
X131812000Y-116031304D01*
X131812000Y-119276750D01*
X131699000Y-119389750D01*
X131699000Y-119543229D01*
X131650569Y-119614110D01*
X131599560Y-119866000D01*
X131599560Y-122313000D01*
X131445000Y-122313000D01*
X131445000Y-122293000D01*
X131435000Y-122293000D01*
X131435000Y-122039000D01*
X131445000Y-122039000D01*
X131445000Y-119389750D01*
X131435000Y-119379750D01*
X131435000Y-116500000D01*
X131382857Y-116237862D01*
X131234368Y-116015632D01*
X131100166Y-115925961D01*
X131088553Y-115908965D01*
X131046159Y-115881685D01*
X131029097Y-115878475D01*
X131012138Y-115867143D01*
X130750000Y-115815000D01*
X78685000Y-115815000D01*
X78685000Y-112789834D01*
X81184543Y-112789834D01*
X81584853Y-113758658D01*
X82325443Y-114500542D01*
X83293567Y-114902542D01*
X84341834Y-114903457D01*
X85310658Y-114503147D01*
X86052542Y-113762557D01*
X86454542Y-112794433D01*
X86455457Y-111746166D01*
X86055147Y-110777342D01*
X85314557Y-110035458D01*
X84346433Y-109633458D01*
X83298166Y-109632543D01*
X82329342Y-110032853D01*
X81587458Y-110773443D01*
X81185458Y-111741567D01*
X81184543Y-112789834D01*
X78685000Y-112789834D01*
X78685000Y-103503604D01*
X125974079Y-103503604D01*
X126184488Y-104012834D01*
X126573755Y-104402780D01*
X127082617Y-104614078D01*
X127633604Y-104614559D01*
X128142834Y-104404150D01*
X128532780Y-104014883D01*
X128744078Y-103506021D01*
X128744559Y-102955034D01*
X128534150Y-102445804D01*
X128144883Y-102055858D01*
X127636021Y-101844560D01*
X127085034Y-101844079D01*
X126575804Y-102054488D01*
X126185858Y-102443755D01*
X125974560Y-102952617D01*
X125974079Y-103503604D01*
X78685000Y-103503604D01*
X78685000Y-89642963D01*
X128139655Y-89642963D01*
X128266508Y-89949972D01*
X128501193Y-90185066D01*
X128682927Y-90260529D01*
X129581700Y-91159302D01*
X129581700Y-92902909D01*
X129506845Y-93083179D01*
X129506555Y-93415363D01*
X129633408Y-93722372D01*
X129868093Y-93957466D01*
X130174879Y-94084855D01*
X130507063Y-94085145D01*
X130814072Y-93958292D01*
X131049166Y-93723607D01*
X131176555Y-93416821D01*
X131176845Y-93084637D01*
X131101700Y-92902771D01*
X131101700Y-90844500D01*
X131043848Y-90553661D01*
X130879101Y-90307099D01*
X129757632Y-89185630D01*
X129683092Y-89005228D01*
X129448407Y-88770134D01*
X129141621Y-88642745D01*
X128809437Y-88642455D01*
X128502428Y-88769308D01*
X128267334Y-89003993D01*
X128139945Y-89310779D01*
X128139655Y-89642963D01*
X78685000Y-89642963D01*
X78685000Y-73026946D01*
X126918017Y-73026946D01*
X127186812Y-73612379D01*
X127659182Y-74050385D01*
X128141056Y-74249975D01*
X128397000Y-74130836D01*
X128397000Y-72771000D01*
X127036633Y-72771000D01*
X126918017Y-73026946D01*
X78685000Y-73026946D01*
X78685000Y-72261054D01*
X126918017Y-72261054D01*
X127036633Y-72517000D01*
X128397000Y-72517000D01*
X128397000Y-71157164D01*
X128651000Y-71157164D01*
X128651000Y-72517000D01*
X128671000Y-72517000D01*
X128671000Y-72771000D01*
X128651000Y-72771000D01*
X128651000Y-74130836D01*
X128906944Y-74249975D01*
X129388818Y-74050385D01*
X129486398Y-73959903D01*
X129583910Y-74111441D01*
X129796110Y-74256431D01*
X130048000Y-74307440D01*
X132080000Y-74307440D01*
X132315317Y-74263162D01*
X132531441Y-74124090D01*
X132676431Y-73911890D01*
X132727440Y-73660000D01*
X132727440Y-71628000D01*
X132683162Y-71392683D01*
X132544090Y-71176559D01*
X132331890Y-71031569D01*
X132080000Y-70980560D01*
X130048000Y-70980560D01*
X129812683Y-71024838D01*
X129596559Y-71163910D01*
X129485160Y-71326948D01*
X129388818Y-71237615D01*
X128906944Y-71038025D01*
X128651000Y-71157164D01*
X128397000Y-71157164D01*
X128141056Y-71038025D01*
X127659182Y-71237615D01*
X127186812Y-71675621D01*
X126918017Y-72261054D01*
X78685000Y-72261054D01*
X78685000Y-59449834D01*
X81184543Y-59449834D01*
X81584853Y-60418658D01*
X82325443Y-61160542D01*
X83293567Y-61562542D01*
X84341834Y-61563457D01*
X85310658Y-61163147D01*
X86052542Y-60422557D01*
X86454542Y-59454433D01*
X86455457Y-58406166D01*
X86055147Y-57437342D01*
X85314557Y-56695458D01*
X84346433Y-56293458D01*
X83298166Y-56292543D01*
X82329342Y-56692853D01*
X81587458Y-57433443D01*
X81185458Y-58401567D01*
X81184543Y-59449834D01*
X78685000Y-59449834D01*
X78685000Y-54685000D01*
X212815000Y-54685000D01*
X212815000Y-116315000D01*
X212815000Y-116315000D01*
G37*
X212815000Y-116315000D02*
X165500000Y-116315000D01*
X165332000Y-116348418D01*
X165332000Y-111282291D01*
X165406855Y-111102021D01*
X165407145Y-110769837D01*
X165296894Y-110503008D01*
X165550068Y-110249834D01*
X205644543Y-110249834D01*
X206044853Y-111218658D01*
X206785443Y-111960542D01*
X207753567Y-112362542D01*
X208801834Y-112363457D01*
X209770658Y-111963147D01*
X210512542Y-111222557D01*
X210914542Y-110254433D01*
X210915457Y-109206166D01*
X210515147Y-108237342D01*
X209774557Y-107495458D01*
X208806433Y-107093458D01*
X207758166Y-107092543D01*
X206789342Y-107492853D01*
X206047458Y-108233443D01*
X205645458Y-109201567D01*
X205644543Y-110249834D01*
X165550068Y-110249834D01*
X174759902Y-101040000D01*
X192316655Y-101040000D01*
X192430729Y-101613489D01*
X192755585Y-102099670D01*
X193070366Y-102310000D01*
X192755585Y-102520330D01*
X192430729Y-103006511D01*
X192316655Y-103580000D01*
X192430729Y-104153489D01*
X192755585Y-104639670D01*
X193241766Y-104964526D01*
X193815255Y-105078600D01*
X194184745Y-105078600D01*
X194758234Y-104964526D01*
X195244415Y-104639670D01*
X195569271Y-104153489D01*
X195683345Y-103580000D01*
X195569271Y-103006511D01*
X195244415Y-102520330D01*
X194929634Y-102310000D01*
X195244415Y-102099670D01*
X195569271Y-101613489D01*
X195683345Y-101040000D01*
X195569271Y-100466511D01*
X195244415Y-99980330D01*
X195222220Y-99965500D01*
X195375698Y-99901927D01*
X195554327Y-99723299D01*
X195651000Y-99489910D01*
X195651000Y-98785750D01*
X195492250Y-98627000D01*
X194127000Y-98627000D01*
X194127000Y-98647000D01*
X193873000Y-98647000D01*
X193873000Y-98627000D01*
X192507750Y-98627000D01*
X192349000Y-98785750D01*
X192349000Y-99489910D01*
X192445673Y-99723299D01*
X192624302Y-99901927D01*
X192777780Y-99965500D01*
X192755585Y-99980330D01*
X192430729Y-100466511D01*
X192316655Y-101040000D01*
X174759902Y-101040000D01*
X178289812Y-97510090D01*
X192349000Y-97510090D01*
X192349000Y-98214250D01*
X192507750Y-98373000D01*
X193873000Y-98373000D01*
X193873000Y-97160150D01*
X194127000Y-97160150D01*
X194127000Y-98373000D01*
X195492250Y-98373000D01*
X195651000Y-98214250D01*
X195651000Y-97510090D01*
X195554327Y-97276701D01*
X195375698Y-97098073D01*
X195142309Y-97001400D01*
X194285750Y-97001400D01*
X194127000Y-97160150D01*
X193873000Y-97160150D01*
X193714250Y-97001400D01*
X192857691Y-97001400D01*
X192624302Y-97098073D01*
X192445673Y-97276701D01*
X192349000Y-97510090D01*
X178289812Y-97510090D01*
X194519902Y-81280000D01*
X201516655Y-81280000D01*
X201630729Y-81853489D01*
X201955585Y-82339670D01*
X202270366Y-82550000D01*
X201955585Y-82760330D01*
X201630729Y-83246511D01*
X201516655Y-83820000D01*
X201630729Y-84393489D01*
X201955585Y-84879670D01*
X202270366Y-85090000D01*
X201955585Y-85300330D01*
X201630729Y-85786511D01*
X201516655Y-86360000D01*
X201630729Y-86933489D01*
X201955585Y-87419670D01*
X202441766Y-87744526D01*
X203015255Y-87858600D01*
X203384745Y-87858600D01*
X203958234Y-87744526D01*
X204444415Y-87419670D01*
X204769271Y-86933489D01*
X204883345Y-86360000D01*
X204769271Y-85786511D01*
X204444415Y-85300330D01*
X204129634Y-85090000D01*
X204444415Y-84879670D01*
X204769271Y-84393489D01*
X204883345Y-83820000D01*
X204769271Y-83246511D01*
X204444415Y-82760330D01*
X204129634Y-82550000D01*
X204444415Y-82339670D01*
X204769271Y-81853489D01*
X204883345Y-81280000D01*
X204769271Y-80706511D01*
X204444415Y-80220330D01*
X204422220Y-80205500D01*
X204575698Y-80141927D01*
X204754327Y-79963299D01*
X204851000Y-79729910D01*
X204851000Y-79025750D01*
X204692250Y-78867000D01*
X203327000Y-78867000D01*
X203327000Y-78887000D01*
X203073000Y-78887000D01*
X203073000Y-78867000D01*
X201707750Y-78867000D01*
X201549000Y-79025750D01*
X201549000Y-79729910D01*
X201645673Y-79963299D01*
X201824302Y-80141927D01*
X201977780Y-80205500D01*
X201955585Y-80220330D01*
X201630729Y-80706511D01*
X201516655Y-81280000D01*
X194519902Y-81280000D01*
X198049812Y-77750090D01*
X201549000Y-77750090D01*
X201549000Y-78454250D01*
X201707750Y-78613000D01*
X203073000Y-78613000D01*
X203073000Y-77400150D01*
X203327000Y-77400150D01*
X203327000Y-78613000D01*
X204692250Y-78613000D01*
X204851000Y-78454250D01*
X204851000Y-77750090D01*
X204754327Y-77516701D01*
X204575698Y-77338073D01*
X204342309Y-77241400D01*
X203485750Y-77241400D01*
X203327000Y-77400150D01*
X203073000Y-77400150D01*
X202914250Y-77241400D01*
X202057691Y-77241400D01*
X201824302Y-77338073D01*
X201645673Y-77516701D01*
X201549000Y-77750090D01*
X198049812Y-77750090D01*
X198657401Y-77142501D01*
X198822148Y-76895939D01*
X198880000Y-76605100D01*
X198880000Y-62623440D01*
X199136000Y-62623440D01*
X199371317Y-62579162D01*
X199587441Y-62440090D01*
X199698840Y-62277052D01*
X199795182Y-62366385D01*
X200277056Y-62565975D01*
X200533000Y-62446836D01*
X200533000Y-61087000D01*
X200787000Y-61087000D01*
X200787000Y-62446836D01*
X201042944Y-62565975D01*
X201524818Y-62366385D01*
X201997188Y-61928379D01*
X202265983Y-61342946D01*
X202147367Y-61087000D01*
X200787000Y-61087000D01*
X200533000Y-61087000D01*
X200513000Y-61087000D01*
X200513000Y-60833000D01*
X200533000Y-60833000D01*
X200533000Y-59473164D01*
X200787000Y-59473164D01*
X200787000Y-60833000D01*
X202147367Y-60833000D01*
X202265983Y-60577054D01*
X201997188Y-59991621D01*
X201524818Y-59553615D01*
X201274258Y-59449834D01*
X205644543Y-59449834D01*
X206044853Y-60418658D01*
X206785443Y-61160542D01*
X207753567Y-61562542D01*
X208801834Y-61563457D01*
X209770658Y-61163147D01*
X210512542Y-60422557D01*
X210914542Y-59454433D01*
X210915457Y-58406166D01*
X210515147Y-57437342D01*
X209774557Y-56695458D01*
X208806433Y-56293458D01*
X207758166Y-56292543D01*
X206789342Y-56692853D01*
X206047458Y-57433443D01*
X205645458Y-58401567D01*
X205644543Y-59449834D01*
X201274258Y-59449834D01*
X201042944Y-59354025D01*
X200787000Y-59473164D01*
X200533000Y-59473164D01*
X200277056Y-59354025D01*
X199795182Y-59553615D01*
X199697602Y-59644097D01*
X199600090Y-59492559D01*
X199387890Y-59347569D01*
X199136000Y-59296560D01*
X197104000Y-59296560D01*
X196868683Y-59340838D01*
X196652559Y-59479910D01*
X196507569Y-59692110D01*
X196456560Y-59944000D01*
X196456560Y-61976000D01*
X196500838Y-62211317D01*
X196639910Y-62427441D01*
X196852110Y-62572431D01*
X197104000Y-62623440D01*
X197360000Y-62623440D01*
X197360000Y-76290298D01*
X163034599Y-110615699D01*
X162869852Y-110862261D01*
X162812000Y-111153100D01*
X162812000Y-113812366D01*
X162809092Y-113805328D01*
X162574407Y-113570234D01*
X162332000Y-113469578D01*
X162332000Y-107260825D01*
X162416793Y-107345766D01*
X162723579Y-107473155D01*
X163055763Y-107473445D01*
X163362772Y-107346592D01*
X163597866Y-107111907D01*
X163725255Y-106805121D01*
X163725545Y-106472937D01*
X163650400Y-106291071D01*
X163650400Y-103433702D01*
X164113401Y-102970701D01*
X164257233Y-102755440D01*
X164592000Y-102755440D01*
X164827317Y-102711162D01*
X165043441Y-102572090D01*
X165154840Y-102409052D01*
X165251182Y-102498385D01*
X165733056Y-102697975D01*
X165989000Y-102578836D01*
X165989000Y-101219000D01*
X166243000Y-101219000D01*
X166243000Y-102578836D01*
X166498944Y-102697975D01*
X166980818Y-102498385D01*
X167453188Y-102060379D01*
X167721983Y-101474946D01*
X167603367Y-101219000D01*
X166243000Y-101219000D01*
X165989000Y-101219000D01*
X165969000Y-101219000D01*
X165969000Y-100965000D01*
X165989000Y-100965000D01*
X165989000Y-99605164D01*
X166243000Y-99605164D01*
X166243000Y-100965000D01*
X167603367Y-100965000D01*
X167721983Y-100709054D01*
X167453188Y-100123621D01*
X166980818Y-99685615D01*
X166498944Y-99486025D01*
X166243000Y-99605164D01*
X165989000Y-99605164D01*
X165733056Y-99486025D01*
X165251182Y-99685615D01*
X165153602Y-99776097D01*
X165056090Y-99624559D01*
X164843890Y-99479569D01*
X164592000Y-99428560D01*
X162560000Y-99428560D01*
X162332000Y-99471461D01*
X162332000Y-97780700D01*
X162274713Y-97492700D01*
X162274148Y-97489860D01*
X162109401Y-97243299D01*
X160621802Y-95755700D01*
X171781501Y-84596001D01*
X171946248Y-84349440D01*
X171948488Y-84338180D01*
X171951566Y-84335107D01*
X172078955Y-84028321D01*
X172079245Y-83696137D01*
X171952392Y-83389128D01*
X171717707Y-83154034D01*
X171410921Y-83026645D01*
X171078737Y-83026355D01*
X170771728Y-83153208D01*
X170536634Y-83387893D01*
X170409245Y-83694679D01*
X170409137Y-83818761D01*
X161033300Y-93194598D01*
X161033300Y-83537302D01*
X161363170Y-83207432D01*
X161543572Y-83132892D01*
X161778666Y-82898207D01*
X161906055Y-82591421D01*
X161906345Y-82259237D01*
X161779492Y-81952228D01*
X161544807Y-81717134D01*
X161238021Y-81589745D01*
X160905837Y-81589455D01*
X160598828Y-81716308D01*
X160363734Y-81950993D01*
X160288271Y-82132727D01*
X159735899Y-82685099D01*
X159609000Y-82875017D01*
X159609000Y-81549100D01*
X159551148Y-81258261D01*
X159386401Y-81011699D01*
X158215532Y-79840830D01*
X158140992Y-79660428D01*
X157906307Y-79425334D01*
X157599521Y-79297945D01*
X157267337Y-79297655D01*
X156960328Y-79424508D01*
X156725234Y-79659193D01*
X156597845Y-79965979D01*
X156597555Y-80298163D01*
X156724408Y-80605172D01*
X156959093Y-80840266D01*
X157140827Y-80915729D01*
X158089000Y-81863902D01*
X158089000Y-84776909D01*
X158014145Y-84957179D01*
X158013855Y-85289363D01*
X158140708Y-85596372D01*
X158375393Y-85831466D01*
X158682179Y-85958855D01*
X159014363Y-85959145D01*
X159321372Y-85832292D01*
X159513300Y-85640698D01*
X159513300Y-93939309D01*
X159438445Y-94119579D01*
X159438155Y-94451763D01*
X159536974Y-94690924D01*
X159506800Y-94721098D01*
X156260600Y-91474898D01*
X156370255Y-91210821D01*
X156370545Y-90878637D01*
X156243692Y-90571628D01*
X156009007Y-90336534D01*
X155827273Y-90261071D01*
X155329601Y-89763399D01*
X155083039Y-89598652D01*
X154792200Y-89540800D01*
X153932302Y-89540800D01*
X153910585Y-89519083D01*
X154007372Y-89479092D01*
X154242466Y-89244407D01*
X154369855Y-88937621D01*
X154370145Y-88605437D01*
X154295000Y-88423571D01*
X154295000Y-65066502D01*
X159129270Y-60232232D01*
X159309672Y-60157692D01*
X159544766Y-59923007D01*
X159672155Y-59616221D01*
X159672445Y-59284037D01*
X159545592Y-58977028D01*
X159310907Y-58741934D01*
X159004121Y-58614545D01*
X158671937Y-58614255D01*
X158364928Y-58741108D01*
X158129834Y-58975793D01*
X158054371Y-59157527D01*
X153761000Y-63450898D01*
X153761000Y-63068202D01*
X156596970Y-60232232D01*
X156777372Y-60157692D01*
X157012466Y-59923007D01*
X157139855Y-59616221D01*
X157140145Y-59284037D01*
X157013292Y-58977028D01*
X156778607Y-58741934D01*
X156471821Y-58614545D01*
X156139637Y-58614255D01*
X155832628Y-58741108D01*
X155597534Y-58975793D01*
X155522071Y-59157527D01*
X152463599Y-62215999D01*
X152298852Y-62462561D01*
X152241000Y-62753400D01*
X152241000Y-69429398D01*
X151356132Y-68544530D01*
X151281592Y-68364128D01*
X151046907Y-68129034D01*
X150740121Y-68001645D01*
X150407937Y-68001355D01*
X150100928Y-68128208D01*
X149865834Y-68362893D01*
X149738445Y-68669679D01*
X149738155Y-69001863D01*
X149865008Y-69308872D01*
X150099693Y-69543966D01*
X150281427Y-69619429D01*
X151790700Y-71128702D01*
X151790700Y-77025998D01*
X150625801Y-75861099D01*
X150379239Y-75696352D01*
X150088400Y-75638500D01*
X140954100Y-75638500D01*
X140663261Y-75696352D01*
X140416699Y-75861099D01*
X134983099Y-81294699D01*
X134818352Y-81541261D01*
X134760500Y-81832100D01*
X134760500Y-89225239D01*
X134593621Y-89155945D01*
X134261437Y-89155655D01*
X134259900Y-89156290D01*
X134259900Y-65791431D01*
X134298355Y-65698821D01*
X134298645Y-65366637D01*
X134171792Y-65059628D01*
X133937107Y-64824534D01*
X133630321Y-64697145D01*
X133298137Y-64696855D01*
X132991128Y-64823708D01*
X132756034Y-65058393D01*
X132628645Y-65365179D01*
X132628355Y-65697363D01*
X132739900Y-65967324D01*
X132739900Y-85779298D01*
X127037532Y-80076930D01*
X126962992Y-79896528D01*
X126728307Y-79661434D01*
X126421521Y-79534045D01*
X126089337Y-79533755D01*
X125782328Y-79660608D01*
X125547234Y-79895293D01*
X125419845Y-80202079D01*
X125419555Y-80534263D01*
X125546408Y-80841272D01*
X125781093Y-81076366D01*
X125962827Y-81151829D01*
X131797000Y-86986002D01*
X131797000Y-87117709D01*
X131722145Y-87297979D01*
X131721855Y-87630163D01*
X131848708Y-87937172D01*
X132083393Y-88172266D01*
X132390179Y-88299655D01*
X132722363Y-88299945D01*
X132739900Y-88292699D01*
X132739900Y-96888549D01*
X132479828Y-96996008D01*
X132244734Y-97230693D01*
X132169271Y-97412427D01*
X131964499Y-97617199D01*
X131799752Y-97863761D01*
X131741900Y-98154600D01*
X131741900Y-105653130D01*
X131595564Y-105506539D01*
X131086702Y-105295241D01*
X130535715Y-105294760D01*
X130026485Y-105505169D01*
X129636539Y-105894436D01*
X129425241Y-106403298D01*
X129424760Y-106954285D01*
X129635169Y-107463515D01*
X130024436Y-107853461D01*
X130533298Y-108064759D01*
X131084285Y-108065240D01*
X131593515Y-107854831D01*
X131741900Y-107706704D01*
X131741900Y-110624598D01*
X131381530Y-110984968D01*
X131201128Y-111059508D01*
X130966034Y-111294193D01*
X130838645Y-111600979D01*
X130838355Y-111933163D01*
X130965208Y-112240172D01*
X131199893Y-112475266D01*
X131506679Y-112602655D01*
X131838863Y-112602945D01*
X132145872Y-112476092D01*
X132353000Y-112269324D01*
X132353000Y-113172598D01*
X131886299Y-113639299D01*
X131721552Y-113885861D01*
X131663700Y-114176700D01*
X131663700Y-115605100D01*
X131721552Y-115895939D01*
X131812000Y-116031304D01*
X131812000Y-119276750D01*
X131699000Y-119389750D01*
X131699000Y-119543229D01*
X131650569Y-119614110D01*
X131599560Y-119866000D01*
X131599560Y-122313000D01*
X131445000Y-122313000D01*
X131445000Y-122293000D01*
X131435000Y-122293000D01*
X131435000Y-122039000D01*
X131445000Y-122039000D01*
X131445000Y-119389750D01*
X131435000Y-119379750D01*
X131435000Y-116500000D01*
X131382857Y-116237862D01*
X131234368Y-116015632D01*
X131100166Y-115925961D01*
X131088553Y-115908965D01*
X131046159Y-115881685D01*
X131029097Y-115878475D01*
X131012138Y-115867143D01*
X130750000Y-115815000D01*
X78685000Y-115815000D01*
X78685000Y-112789834D01*
X81184543Y-112789834D01*
X81584853Y-113758658D01*
X82325443Y-114500542D01*
X83293567Y-114902542D01*
X84341834Y-114903457D01*
X85310658Y-114503147D01*
X86052542Y-113762557D01*
X86454542Y-112794433D01*
X86455457Y-111746166D01*
X86055147Y-110777342D01*
X85314557Y-110035458D01*
X84346433Y-109633458D01*
X83298166Y-109632543D01*
X82329342Y-110032853D01*
X81587458Y-110773443D01*
X81185458Y-111741567D01*
X81184543Y-112789834D01*
X78685000Y-112789834D01*
X78685000Y-103503604D01*
X125974079Y-103503604D01*
X126184488Y-104012834D01*
X126573755Y-104402780D01*
X127082617Y-104614078D01*
X127633604Y-104614559D01*
X128142834Y-104404150D01*
X128532780Y-104014883D01*
X128744078Y-103506021D01*
X128744559Y-102955034D01*
X128534150Y-102445804D01*
X128144883Y-102055858D01*
X127636021Y-101844560D01*
X127085034Y-101844079D01*
X126575804Y-102054488D01*
X126185858Y-102443755D01*
X125974560Y-102952617D01*
X125974079Y-103503604D01*
X78685000Y-103503604D01*
X78685000Y-89642963D01*
X128139655Y-89642963D01*
X128266508Y-89949972D01*
X128501193Y-90185066D01*
X128682927Y-90260529D01*
X129581700Y-91159302D01*
X129581700Y-92902909D01*
X129506845Y-93083179D01*
X129506555Y-93415363D01*
X129633408Y-93722372D01*
X129868093Y-93957466D01*
X130174879Y-94084855D01*
X130507063Y-94085145D01*
X130814072Y-93958292D01*
X131049166Y-93723607D01*
X131176555Y-93416821D01*
X131176845Y-93084637D01*
X131101700Y-92902771D01*
X131101700Y-90844500D01*
X131043848Y-90553661D01*
X130879101Y-90307099D01*
X129757632Y-89185630D01*
X129683092Y-89005228D01*
X129448407Y-88770134D01*
X129141621Y-88642745D01*
X128809437Y-88642455D01*
X128502428Y-88769308D01*
X128267334Y-89003993D01*
X128139945Y-89310779D01*
X128139655Y-89642963D01*
X78685000Y-89642963D01*
X78685000Y-73026946D01*
X126918017Y-73026946D01*
X127186812Y-73612379D01*
X127659182Y-74050385D01*
X128141056Y-74249975D01*
X128397000Y-74130836D01*
X128397000Y-72771000D01*
X127036633Y-72771000D01*
X126918017Y-73026946D01*
X78685000Y-73026946D01*
X78685000Y-72261054D01*
X126918017Y-72261054D01*
X127036633Y-72517000D01*
X128397000Y-72517000D01*
X128397000Y-71157164D01*
X128651000Y-71157164D01*
X128651000Y-72517000D01*
X128671000Y-72517000D01*
X128671000Y-72771000D01*
X128651000Y-72771000D01*
X128651000Y-74130836D01*
X128906944Y-74249975D01*
X129388818Y-74050385D01*
X129486398Y-73959903D01*
X129583910Y-74111441D01*
X129796110Y-74256431D01*
X130048000Y-74307440D01*
X132080000Y-74307440D01*
X132315317Y-74263162D01*
X132531441Y-74124090D01*
X132676431Y-73911890D01*
X132727440Y-73660000D01*
X132727440Y-71628000D01*
X132683162Y-71392683D01*
X132544090Y-71176559D01*
X132331890Y-71031569D01*
X132080000Y-70980560D01*
X130048000Y-70980560D01*
X129812683Y-71024838D01*
X129596559Y-71163910D01*
X129485160Y-71326948D01*
X129388818Y-71237615D01*
X128906944Y-71038025D01*
X128651000Y-71157164D01*
X128397000Y-71157164D01*
X128141056Y-71038025D01*
X127659182Y-71237615D01*
X127186812Y-71675621D01*
X126918017Y-72261054D01*
X78685000Y-72261054D01*
X78685000Y-59449834D01*
X81184543Y-59449834D01*
X81584853Y-60418658D01*
X82325443Y-61160542D01*
X83293567Y-61562542D01*
X84341834Y-61563457D01*
X85310658Y-61163147D01*
X86052542Y-60422557D01*
X86454542Y-59454433D01*
X86455457Y-58406166D01*
X86055147Y-57437342D01*
X85314557Y-56695458D01*
X84346433Y-56293458D01*
X83298166Y-56292543D01*
X82329342Y-56692853D01*
X81587458Y-57433443D01*
X81185458Y-58401567D01*
X81184543Y-59449834D01*
X78685000Y-59449834D01*
X78685000Y-54685000D01*
X212815000Y-54685000D01*
X212815000Y-116315000D01*
G36*
X151242568Y-78627470D02*
X151317108Y-78807872D01*
X151551793Y-79042966D01*
X151790700Y-79142169D01*
X151790700Y-86611787D01*
X151756234Y-86646193D01*
X151628845Y-86952979D01*
X151628597Y-87237095D01*
X144708501Y-80316999D01*
X144461939Y-80152252D01*
X144171100Y-80094400D01*
X142063691Y-80094400D01*
X141883421Y-80019545D01*
X141551237Y-80019255D01*
X141244228Y-80146108D01*
X141009134Y-80380793D01*
X140881745Y-80687579D01*
X140881455Y-81019763D01*
X141008308Y-81326772D01*
X141242993Y-81561866D01*
X141549779Y-81689255D01*
X141744455Y-81689425D01*
X141744255Y-81917963D01*
X141871108Y-82224972D01*
X142105793Y-82460066D01*
X142412579Y-82587455D01*
X142744763Y-82587745D01*
X142926629Y-82512600D01*
X144117598Y-82512600D01*
X144596398Y-82991400D01*
X138744402Y-82991400D01*
X138697732Y-82944730D01*
X138623192Y-82764328D01*
X138388507Y-82529234D01*
X138081721Y-82401845D01*
X137749537Y-82401555D01*
X137442528Y-82528408D01*
X137207434Y-82763093D01*
X137121541Y-82969947D01*
X136917128Y-83054408D01*
X136682034Y-83289093D01*
X136579162Y-83536835D01*
X136322928Y-83642708D01*
X136280500Y-83685062D01*
X136280500Y-82146902D01*
X141268902Y-77158500D01*
X149773598Y-77158500D01*
X151242568Y-78627470D01*
X151242568Y-78627470D01*
G37*
X151242568Y-78627470D02*
X151317108Y-78807872D01*
X151551793Y-79042966D01*
X151790700Y-79142169D01*
X151790700Y-86611787D01*
X151756234Y-86646193D01*
X151628845Y-86952979D01*
X151628597Y-87237095D01*
X144708501Y-80316999D01*
X144461939Y-80152252D01*
X144171100Y-80094400D01*
X142063691Y-80094400D01*
X141883421Y-80019545D01*
X141551237Y-80019255D01*
X141244228Y-80146108D01*
X141009134Y-80380793D01*
X140881745Y-80687579D01*
X140881455Y-81019763D01*
X141008308Y-81326772D01*
X141242993Y-81561866D01*
X141549779Y-81689255D01*
X141744455Y-81689425D01*
X141744255Y-81917963D01*
X141871108Y-82224972D01*
X142105793Y-82460066D01*
X142412579Y-82587455D01*
X142744763Y-82587745D01*
X142926629Y-82512600D01*
X144117598Y-82512600D01*
X144596398Y-82991400D01*
X138744402Y-82991400D01*
X138697732Y-82944730D01*
X138623192Y-82764328D01*
X138388507Y-82529234D01*
X138081721Y-82401845D01*
X137749537Y-82401555D01*
X137442528Y-82528408D01*
X137207434Y-82763093D01*
X137121541Y-82969947D01*
X136917128Y-83054408D01*
X136682034Y-83289093D01*
X136579162Y-83536835D01*
X136322928Y-83642708D01*
X136280500Y-83685062D01*
X136280500Y-82146902D01*
X141268902Y-77158500D01*
X149773598Y-77158500D01*
X151242568Y-78627470D01*
M02*
