G04 #@! TF.FileFunction,Soldermask,Bot*
%FSLAX46Y46*%
G04 Gerber Fmt 4.6, Leading zero omitted, Abs format (unit mm)*
G04 Created by KiCad (PCBNEW 4.0.2+dfsg1-stable) date gio 27 giu 2019 16:47:11 CEST*
%MOMM*%
G01*
G04 APERTURE LIST*
%ADD10C,0.100000*%
%ADD11C,0.650000*%
%ADD12O,0.650000X0.650000*%
%ADD13R,0.650000X4.600000*%
%ADD14C,1.500000*%
%ADD15C,4.000000*%
%ADD16R,2.032000X1.727200*%
%ADD17O,2.032000X1.727200*%
%ADD18R,2.032000X2.032000*%
%ADD19O,2.032000X2.032000*%
%ADD20C,0.400000*%
G04 APERTURE END LIST*
D10*
D11*
X131572000Y-124466000D03*
D12*
X151572000Y-124466000D03*
D13*
X151572000Y-122166000D03*
X131572000Y-122166000D03*
X132572000Y-122166000D03*
X133572000Y-122166000D03*
X134572000Y-122166000D03*
X135572000Y-122166000D03*
X136572000Y-122166000D03*
X137572000Y-122166000D03*
X138572000Y-122166000D03*
X139572000Y-122166000D03*
X140572000Y-122166000D03*
X141572000Y-122166000D03*
X146572000Y-122166000D03*
X147572000Y-122166000D03*
X148572000Y-122166000D03*
X149572000Y-122166000D03*
X150572000Y-122166000D03*
X144572000Y-122166000D03*
X145572000Y-122166000D03*
D12*
X134572000Y-124466000D03*
X135572000Y-124466000D03*
X136572000Y-124466000D03*
X137572000Y-124466000D03*
X138572000Y-124466000D03*
X139572000Y-124466000D03*
X140572000Y-124466000D03*
X146572000Y-124466000D03*
X147572000Y-124466000D03*
X133572000Y-124466000D03*
X145572000Y-124466000D03*
X148572000Y-124466000D03*
X141572000Y-124466000D03*
X144572000Y-124466000D03*
X149572000Y-124466000D03*
X150572000Y-124466000D03*
X132572000Y-124466000D03*
D13*
X152572000Y-122166000D03*
X153572000Y-122166000D03*
X154572000Y-122166000D03*
X155572000Y-122166000D03*
X156572000Y-122166000D03*
X157572000Y-122166000D03*
X158572000Y-122166000D03*
X159572000Y-122166000D03*
X160572000Y-122166000D03*
X161572000Y-122166000D03*
X162572000Y-122166000D03*
X163572000Y-122166000D03*
X164572000Y-122166000D03*
D12*
X152572000Y-124466000D03*
X153572000Y-124466000D03*
X154572000Y-124466000D03*
X155572000Y-124466000D03*
X156572000Y-124466000D03*
X157572000Y-124466000D03*
X158572000Y-124466000D03*
X159572000Y-124466000D03*
X160572000Y-124466000D03*
X161572000Y-124466000D03*
X162572000Y-124466000D03*
X163572000Y-124466000D03*
X164572000Y-124466000D03*
D14*
X130810000Y-106680000D03*
X127359319Y-103229319D03*
D15*
X208280000Y-58928000D03*
X83820000Y-112268000D03*
X208280000Y-109728000D03*
X83820000Y-58928000D03*
D16*
X203200000Y-78740000D03*
D17*
X203200000Y-81280000D03*
X203200000Y-83820000D03*
X203200000Y-86360000D03*
D18*
X198120000Y-60960000D03*
D19*
X200660000Y-60960000D03*
D16*
X194000000Y-98500000D03*
D17*
X194000000Y-101040000D03*
X194000000Y-103580000D03*
D18*
X163576000Y-101092000D03*
D19*
X166116000Y-101092000D03*
D18*
X131064000Y-72644000D03*
D19*
X128524000Y-72644000D03*
D20*
X133914000Y-96584400D03*
X141095700Y-110840700D03*
X157893600Y-119439100D03*
X157984500Y-116775000D03*
X130951700Y-88110200D03*
X149392900Y-81099300D03*
X149758300Y-109233200D03*
X162828000Y-107217200D03*
X149458600Y-77470000D03*
X157976100Y-114551200D03*
X149033000Y-117764600D03*
X149572000Y-119457600D03*
X152483900Y-86639300D03*
X154293400Y-117987400D03*
X153511700Y-119421500D03*
X132562300Y-118620300D03*
X141068600Y-112197000D03*
X142345700Y-101187000D03*
X143449500Y-99255900D03*
X146456100Y-111346800D03*
X146396400Y-99922100D03*
X145948400Y-85896400D03*
X146508500Y-87125000D03*
X160671200Y-116638200D03*
X159191500Y-115024900D03*
X143742400Y-86814600D03*
X142599500Y-86287500D03*
X142438400Y-87124400D03*
X138407800Y-86265600D03*
X140569500Y-87109600D03*
X150678900Y-118385800D03*
X140131400Y-87634900D03*
X148101500Y-117748100D03*
X145920100Y-95311600D03*
X146206300Y-116816900D03*
X144479700Y-94747800D03*
X144926600Y-119446600D03*
X144420200Y-93817500D03*
X140210700Y-118912100D03*
X141554500Y-94360900D03*
X138300800Y-119006900D03*
X139282000Y-94596400D03*
X144514100Y-115219100D03*
X141978100Y-91401800D03*
X138188600Y-114183200D03*
X137975700Y-89703700D03*
X132190400Y-119462600D03*
X136255900Y-88697800D03*
X145980300Y-100658300D03*
X144614400Y-113607300D03*
X144754300Y-110065900D03*
X155673400Y-118840700D03*
X142076000Y-88151600D03*
X152323800Y-104701500D03*
X151077500Y-100396500D03*
X139459700Y-114160200D03*
X139056800Y-92375800D03*
X138805000Y-115793200D03*
X135000400Y-90884100D03*
X138301700Y-116276700D03*
X135104100Y-91838100D03*
X137944500Y-117597400D03*
X134988000Y-92465000D03*
X137394900Y-118461100D03*
X132543800Y-94270800D03*
X144174100Y-114693800D03*
X142215500Y-94102100D03*
X133381300Y-118760300D03*
X132957700Y-94883300D03*
X137773300Y-112937100D03*
X137778100Y-95124500D03*
X191282900Y-105763800D03*
X159519300Y-103945200D03*
X121361600Y-77746200D03*
X130467800Y-87367700D03*
X155491100Y-119459800D03*
X151572000Y-119178100D03*
X150363900Y-102704000D03*
X133439500Y-95420800D03*
X152510000Y-117880600D03*
X156448000Y-117461000D03*
X143200800Y-106678800D03*
X150253900Y-99060000D03*
X138211200Y-96344800D03*
X138772000Y-89673600D03*
X147335800Y-88724800D03*
X133482400Y-64969300D03*
X133914000Y-100896200D03*
X135053900Y-115330700D03*
X132043100Y-110662200D03*
X140411000Y-76974300D03*
X146341900Y-82370600D03*
X144979900Y-85312300D03*
X152191000Y-59452900D03*
X153526500Y-64799700D03*
X153068900Y-68836500D03*
X151959800Y-88534400D03*
X158817500Y-59449400D03*
X152662900Y-88764900D03*
X152515600Y-61191700D03*
X148107400Y-92169200D03*
X154393600Y-59438900D03*
X162680300Y-56996100D03*
X142757000Y-72819900D03*
X143478200Y-98433100D03*
M02*
